SplineFontDB: 3.0
FontName: AbrilFatface-Regular
FullName: Abril Fatface Regular
FamilyName: Abril Fatface
Weight: Regular
Copyright: Copyright (c) 2011, Copyright (c) 2011, TypeTogether (www.type-together.com), with Reserved Font Names "Abril" and "Abril Fatface"
Version: 001.001
ItalicAngle: 0
UnderlinePosition: -50
UnderlineWidth: 50
Ascent: 800
Descent: 200
sfntRevision: 0x00010042
LayerCount: 2
Layer: 0 1 "Back"  1
Layer: 1 1 "Fore"  0
XUID: [1021 288 713564382 15761454]
FSType: 0
OS2Version: 2
OS2_WeightWidthSlopeOnly: 0
OS2_UseTypoMetrics: 1
CreationTime: 1314382518
ModificationTime: 1314379827
PfmFamily: 17
TTFWeight: 400
TTFWidth: 5
LineGap: 0
VLineGap: 0
Panose: 2 0 5 3 0 0 0 2 0 3
OS2TypoAscent: 1058
OS2TypoAOffset: 0
OS2TypoDescent: -291
OS2TypoDOffset: 0
OS2TypoLinegap: 0
OS2WinAscent: 1058
OS2WinAOffset: 0
OS2WinDescent: 291
OS2WinDOffset: 0
HheadAscent: 1058
HheadAOffset: 0
HheadDescent: -291
HheadDOffset: 0
OS2SubXSize: 700
OS2SubYSize: 650
OS2SubXOff: 0
OS2SubYOff: 140
OS2SupXSize: 700
OS2SupYSize: 650
OS2SupXOff: 0
OS2SupYOff: 477
OS2StrikeYSize: 50
OS2StrikeYPos: 250
OS2Vendor: 'TT  '
OS2CodePages: 20000093.00000000
OS2UnicodeRanges: a00000a7.5000205b.00000000.00000000
Lookup: 1 0 0 "'locl' Localized Forms in Latin lookup 0"  {"'locl' Localized Forms in Latin lookup 0 subtable"  } ['locl' ('latn' <'AZE ' > ) ]
Lookup: 1 0 0 "'locl' Localized Forms in Latin lookup 1"  {"'locl' Localized Forms in Latin lookup 1 subtable"  } ['locl' ('latn' <'CRT ' > ) ]
Lookup: 1 0 0 "'locl' Localized Forms in Latin lookup 2"  {"'locl' Localized Forms in Latin lookup 2 subtable"  } ['locl' ('latn' <'MOL ' > ) ]
Lookup: 1 0 0 "'locl' Localized Forms in Latin lookup 3"  {"'locl' Localized Forms in Latin lookup 3 subtable"  } ['locl' ('latn' <'ROM ' > ) ]
Lookup: 1 0 0 "'locl' Localized Forms in Latin lookup 4"  {"'locl' Localized Forms in Latin lookup 4 subtable"  } ['locl' ('latn' <'TRK ' > ) ]

StartChar: quotesingle
Encoding: 39 39 4
Width: 186
Flags: MW
LayerCount: 2
Fore
SplineSet
79 481 m 1,0,-1
 50 747 l 1,1,2
 90 767 90 767 115 767 c 0,3,4
 149 767 149 767 149 730 c 0,5,6
 149 707 149 707 140 664 c 2,7,-1
 100 481 l 1,8,-1
 79 481 l 1,0,-1
EndSplineSet
EndChar

StartChar: quotedbl
Encoding: 34 34 5
Width: 334
Flags: MW
LayerCount: 2
Fore
SplineSet
227 481 m 1,0,-1
 198 747 l 1,1,2
 238 767 238 767 263 767 c 0,3,4
 297 767 297 767 297 730 c 0,5,6
 297 707 297 707 288 664 c 2,7,-1
 248 481 l 1,8,-1
 227 481 l 1,0,-1
79 481 m 1,9,-1
 50 747 l 1,10,11
 90 767 90 767 115 767 c 0,12,13
 149 767 149 767 149 730 c 0,14,15
 149 707 149 707 140 664 c 2,16,-1
 100 481 l 1,17,-1
 79 481 l 1,9,-1
EndSplineSet
EndChar

StartChar: numbersign
Encoding: 35 35 6
Width: 608
Flags: MW
LayerCount: 2
Fore
SplineSet
163 0 m 1,0,-1
 138 0 l 1,1,-1
 165 169 l 1,2,-1
 45 169 l 1,3,-1
 61 261 l 1,4,-1
 178 261 l 1,5,-1
 204 407 l 1,6,-1
 84 407 l 1,7,-1
 99 500 l 1,8,-1
 216 500 l 1,9,-1
 237 640 l 1,10,-1
 263 640 l 1,11,-1
 241 500 l 1,12,-1
 413 500 l 1,13,-1
 434 640 l 1,14,-1
 460 640 l 1,15,-1
 438 500 l 1,16,-1
 566 500 l 1,17,-1
 552 407 l 1,18,-1
 426 407 l 1,19,-1
 402 261 l 1,20,-1
 528 261 l 1,21,-1
 514 169 l 1,22,-1
 390 169 l 1,23,-1
 362 0 l 1,24,-1
 337 0 l 1,25,-1
 365 169 l 1,26,-1
 191 169 l 1,27,-1
 163 0 l 1,0,-1
401 407 m 1,28,-1
 229 407 l 1,29,-1
 203 261 l 1,30,-1
 377 261 l 1,31,-1
 401 407 l 1,28,-1
EndSplineSet
EndChar

StartChar: ampersand
Encoding: 38 38 7
Width: 822
Flags: MW
LayerCount: 2
Fore
SplineSet
515 -226 m 0,0,1
 564 -226 564 -226 590.5 -179 c 128,-1,2
 617 -132 617 -132 617 -63 c 128,-1,3
 617 6 617 6 564 77 c 1,4,5
 488 -10 488 -10 355 -10 c 128,-1,6
 222 -10 222 -10 143.5 35 c 128,-1,7
 65 80 65 80 65 177 c 0,8,9
 65 244 65 244 101 285 c 128,-1,10
 137 326 137 326 222 345 c 1,11,12
 134 425 134 425 134 519.5 c 128,-1,13
 134 614 134 614 200.5 662.5 c 128,-1,14
 267 711 267 711 366 711 c 128,-1,15
 465 711 465 711 514.5 675 c 128,-1,16
 564 639 564 639 564 578 c 0,17,18
 564 472 564 472 403 416 c 1,19,20
 423 403 423 403 475.5 369.5 c 0,21,22
 587.187562688 298.232698094 587.187562688 298.232698094 633 254 c 1,23,24
 648 325 648 325 650 400 c 1,25,-1
 571 400 l 1,26,-1
 571 420 l 1,27,-1
 745 420 l 1,28,-1
 745 400 l 1,29,-1
 675 400 l 1,30,31
 673 306 673 306 656 231 c 1,32,33
 699 183 699 183 721 139 c 128,-1,34
 743 95 743 95 743 28 c 0,35,36
 743 -80 743 -80 667 -165 c 128,-1,37
 591 -250 591 -250 494 -250 c 0,38,39
 429 -250 429 -250 393 -223 c 128,-1,40
 357 -196 357 -196 357 -154 c 128,-1,41
 357 -112 357 -112 380.5 -88.5 c 128,-1,42
 404 -65 404 -65 440 -65 c 0,43,44
 520 -65 520 -65 520 -137 c 0,45,46
 520 -152 520 -152 514 -173 c 1,47,-1
 479 -173 l 1,48,49
 461 -226 461 -226 515 -226 c 0,0,1
379 16 m 0,50,51
 485 16 485 16 547 98 c 1,52,53
 501 146 501 146 418 202 c 1,54,55
 275 296 275 296 236 330 c 1,56,57
 221 298 221 298 221 200 c 128,-1,58
 221 102 221 102 260 59 c 128,-1,59
 299 16 299 16 379 16 c 0,50,51
296 666.5 m 128,-1,61
 269 643 269 643 269 592 c 128,-1,62
 269 541 269 541 293 508 c 128,-1,63
 317 475 317 475 385 428 c 1,64,65
 427 450 427 450 437.5 481 c 128,-1,66
 448 512 448 512 448 572 c 0,67,68
 448 690 448 690 361 690 c 0,69,60
 323 690 323 690 296 666.5 c 128,-1,61
EndSplineSet
EndChar

StartChar: asterisk
Encoding: 42 42 8
Width: 529
Flags: MW
LayerCount: 2
Fore
SplineSet
465 608 m 1,0,-1
 282 575 l 1,1,-1
 414 540 l 2,2,3
 430 536 430 536 439.5 532 c 128,-1,4
 449 528 449 528 458.5 517.5 c 128,-1,5
 468 507 468 507 468 492 c 0,6,7
 468 445 468 445 400 418 c 1,8,-1
 271 561 l 1,9,-1
 316 373 l 1,10,11
 283 347 283 347 256 347 c 128,-1,12
 229 347 229 347 215 358 c 128,-1,13
 201 369 201 369 201 389 c 128,-1,14
 201 409 201 409 210 436 c 2,15,-1
 253 562 l 1,16,-1
 129 418 l 1,17,18
 102 428 102 428 81.5 447 c 128,-1,19
 61 466 61 466 61 490 c 128,-1,20
 61 514 61 514 76.5 524 c 128,-1,21
 92 534 92 534 123 542 c 2,22,-1
 242 575 l 1,23,-1
 64 608 l 1,24,25
 60 624 60 624 60 646.5 c 128,-1,26
 60 669 60 669 72.5 689.5 c 128,-1,27
 85 710 85 710 109 710 c 0,28,29
 125.142857143 710 125.142857143 710 136.071428571 701.5 c 128,-1,30
 147 693 147 693 164 677 c 2,31,-1
 255 590 l 1,32,-1
 211 765 l 1,33,34
 244 791 244 791 271 791 c 128,-1,35
 298 791 298 791 312 780 c 128,-1,36
 326 769 326 769 326 748.5 c 128,-1,37
 326 728 326 728 313 693 c 2,38,-1
 274 589 l 1,39,-1
 363 678 l 2,40,41
 395 710 395 710 419.5 710 c 128,-1,42
 444 710 444 710 456.5 691.5 c 128,-1,43
 469 673 469 673 469 648.5 c 128,-1,44
 469 624 469 624 465 608 c 1,0,-1
EndSplineSet
EndChar

StartChar: comma
Encoding: 44 44 9
Width: 262
Flags: MW
LayerCount: 2
Fore
SplineSet
86 -156 m 1,0,-1
 74 -141 l 1,1,2
 136 -88 136 -88 155 -58.5 c 128,-1,3
 174 -29 174 -29 174 6.5 c 0,4,5
 174 42 174 42 143 46 c 1,6,-1
 95 3 l 1,7,8
 72 11 72 11 53.5 31.5 c 128,-1,9
 35 52 35 52 35 84.5 c 0,10,11
 35 117 35 117 58.5 140 c 128,-1,12
 82 163 82 163 123.5 163 c 0,13,14
 165 163 165 163 191 131 c 128,-1,15
 217 99 217 99 217 46 c 0,16,17
 217 -7 217 -7 186 -56 c 128,-1,18
 155 -105 155 -105 86 -156 c 1,0,-1
EndSplineSet
EndChar

StartChar: hyphen
Encoding: 45 45 10
Width: 352
Flags: MW
LayerCount: 2
Fore
SplineSet
50 278 m 1,0,-1
 50 308 l 1,1,-1
 302 308 l 1,2,-1
 302 278 l 1,3,-1
 50 278 l 1,0,-1
EndSplineSet
Substitution2: "'case' Case-Sensitive Forms lookup 8 subtable" hyphen.case
EndChar

StartChar: period
Encoding: 46 46 11
Width: 265
Flags: MW
LayerCount: 2
Fore
SplineSet
66.5 15.5 m 128,-1,1
 45 41 45 41 45 77.5 c 128,-1,2
 45 114 45 114 67.5 139 c 128,-1,3
 90 164 90 164 131 164 c 128,-1,4
 172 164 172 164 196 143 c 128,-1,5
 220 122 220 122 220 80 c 128,-1,6
 220 38 220 38 197.5 14 c 128,-1,7
 175 -10 175 -10 131.5 -10 c 128,-1,0
 88 -10 88 -10 66.5 15.5 c 128,-1,1
EndSplineSet
EndChar

StartChar: colon
Encoding: 58 58 12
Width: 265
Flags: MW
LayerCount: 2
Fore
SplineSet
66.5 346.5 m 128,-1,1
 45 372 45 372 45 408.5 c 128,-1,2
 45 445 45 445 67.5 470 c 128,-1,3
 90 495 90 495 131 495 c 128,-1,4
 172 495 172 495 196 474 c 128,-1,5
 220 453 220 453 220 411 c 128,-1,6
 220 369 220 369 197.5 345 c 128,-1,7
 175 321 175 321 131.5 321 c 128,-1,0
 88 321 88 321 66.5 346.5 c 128,-1,1
66.5 15.5 m 128,-1,9
 45 41 45 41 45 77.5 c 128,-1,10
 45 114 45 114 67.5 139 c 128,-1,11
 90 164 90 164 131 164 c 128,-1,12
 172 164 172 164 196 143 c 128,-1,13
 220 122 220 122 220 80 c 128,-1,14
 220 38 220 38 197.5 14 c 128,-1,15
 175 -10 175 -10 131.5 -10 c 128,-1,8
 88 -10 88 -10 66.5 15.5 c 128,-1,9
EndSplineSet
EndChar

StartChar: question
Encoding: 63 63 14
Width: 580
Flags: MW
LayerCount: 2
Fore
SplineSet
117 667 m 128,-1,1
 176 711 176 711 285.5 711 c 128,-1,2
 395 711 395 711 454.5 669 c 128,-1,3
 514 627 514 627 514 545 c 0,4,5
 514 491 514 491 487.5 449.5 c 128,-1,6
 461 408 461 408 414 365 c 2,7,-1
 263 231 l 1,8,-1
 263 173 l 1,9,-1
 238 173 l 1,10,-1
 238 383 l 2,11,12
 238 400 238 400 249 411 c 2,13,-1
 311 474 l 2,14,15
 340 503 340 503 351 528.5 c 128,-1,16
 362 554 362 554 362 595 c 0,17,18
 362 692 362 692 272 692 c 0,19,20
 229 692 229 692 209 669 c 128,-1,21
 189 646 189 646 189 625 c 128,-1,22
 189 604 189 604 195 588 c 1,23,-1
 227 588 l 1,24,25
 235 567 235 567 235 537.5 c 128,-1,26
 235 508 235 508 210 486.5 c 128,-1,27
 185 465 185 465 144 465 c 128,-1,28
 103 465 103 465 80.5 491.5 c 128,-1,29
 58 518 58 518 58 558 c 0,30,0
 58 623 58 623 117 667 c 128,-1,1
192.5 11.5 m 128,-1,32
 174 33 174 33 174 65.5 c 128,-1,33
 174 98 174 98 194 119.5 c 128,-1,34
 214 141 214 141 249 141 c 128,-1,35
 284 141 284 141 305 122.5 c 128,-1,36
 326 104 326 104 326 68 c 128,-1,37
 326 32 326 32 306 11 c 128,-1,38
 286 -10 286 -10 248.5 -10 c 128,-1,31
 211 -10 211 -10 192.5 11.5 c 128,-1,32
EndSplineSet
EndChar

StartChar: exclam
Encoding: 33 33 15
Width: 377
Flags: MW
LayerCount: 2
Fore
SplineSet
178 178 m 1,0,-1
 178 264 l 2,1,2
 178 350 178 350 145.5 468.5 c 128,-1,3
 113 587 113 587 113 630 c 128,-1,4
 113 673 113 673 136.5 692 c 128,-1,5
 160 711 160 711 194 711 c 0,6,7
 270 711 270 711 270 630 c 0,8,9
 270 583 270 583 235 466 c 128,-1,10
 200 349 200 349 200 263 c 2,11,-1
 200 178 l 1,12,-1
 178 178 l 1,0,-1
129.5 11.5 m 128,-1,14
 111 33 111 33 111 65.5 c 128,-1,15
 111 98 111 98 131 119.5 c 128,-1,16
 151 141 151 141 186 141 c 128,-1,17
 221 141 221 141 242 122.5 c 128,-1,18
 263 104 263 104 263 68 c 128,-1,19
 263 32 263 32 243 11 c 128,-1,20
 223 -10 223 -10 185.5 -10 c 128,-1,13
 148 -10 148 -10 129.5 11.5 c 128,-1,14
EndSplineSet
EndChar

StartChar: exclamdown
Encoding: 161 161 16
Width: 377
Flags: MW
LayerCount: 2
Fore
SplineSet
178 212 m 2,0,-1
 178 298 l 1,1,-1
 200 298 l 1,2,-1
 200 213 l 2,3,4
 200 127 200 127 235 10 c 128,-1,5
 270 -107 270 -107 270 -154 c 0,6,7
 270 -235 270 -235 194 -235 c 0,8,9
 160 -235 160 -235 136.5 -216 c 128,-1,10
 113 -197 113 -197 113 -154 c 128,-1,11
 113 -111 113 -111 145.5 7.5 c 128,-1,12
 178 126 178 126 178 212 c 2,0,-1
131 356.5 m 128,-1,14
 111 378 111 378 111 410.5 c 128,-1,15
 111 443 111 443 129.5 464.5 c 128,-1,16
 148 486 148 486 185.5 486 c 128,-1,17
 223 486 223 486 243 465 c 128,-1,18
 263 444 263 444 263 408 c 128,-1,19
 263 372 263 372 242 353.5 c 128,-1,20
 221 335 221 335 186 335 c 128,-1,13
 151 335 151 335 131 356.5 c 128,-1,14
EndSplineSet
Position2: "'case' Case-Sensitive Forms lookup 0 per glyph data 2" dx=10 dy=215 dh=0 dv=0
EndChar

StartChar: questiondown
Encoding: 191 191 17
Width: 580
Flags: MW
LayerCount: 2
Fore
SplineSet
467 -191 m 128,-1,1
 408 -235 408 -235 298.5 -235 c 128,-1,2
 189 -235 189 -235 129.5 -193 c 128,-1,3
 70 -151 70 -151 70 -69 c 0,4,5
 70 -15 70 -15 96.5 26.5 c 128,-1,6
 123 68 123 68 170 111 c 2,7,-1
 321 245 l 1,8,-1
 321 303 l 1,9,-1
 346 303 l 1,10,-1
 346 93 l 2,11,12
 346 76 346 76 335 65 c 2,13,-1
 273 2 l 2,14,15
 244 -27 244 -27 233 -52.5 c 128,-1,16
 222 -78 222 -78 222 -119 c 0,17,18
 222 -216 222 -216 312 -216 c 0,19,20
 355 -216 355 -216 375 -193 c 128,-1,21
 395 -170 395 -170 395 -149 c 128,-1,22
 395 -128 395 -128 389 -112 c 1,23,-1
 357 -112 l 1,24,25
 349 -91 349 -91 349 -61.5 c 128,-1,26
 349 -32 349 -32 374 -10.5 c 128,-1,27
 399 11 399 11 440 11 c 128,-1,28
 481 11 481 11 503.5 -15.5 c 128,-1,29
 526 -42 526 -42 526 -82 c 0,30,0
 526 -147 526 -147 467 -191 c 128,-1,1
391.5 464.5 m 128,-1,32
 410 443 410 443 410 410.5 c 128,-1,33
 410 378 410 378 390 356.5 c 128,-1,34
 370 335 370 335 335 335 c 128,-1,35
 300 335 300 335 279 353.5 c 128,-1,36
 258 372 258 372 258 408 c 128,-1,37
 258 444 258 444 278 465 c 128,-1,38
 298 486 298 486 335.5 486 c 128,-1,31
 373 486 373 486 391.5 464.5 c 128,-1,32
EndSplineSet
Position2: "'case' Case-Sensitive Forms lookup 0 per glyph data 2" dx=10 dy=215 dh=0 dv=0
EndChar

StartChar: at
Encoding: 64 64 18
Width: 879
Flags: MW
LayerCount: 2
Fore
SplineSet
433 395 m 0,0,1
 481 395 481 395 520 358 c 1,2,-1
 537 388 l 1,3,-1
 646 388 l 1,4,-1
 614 206 l 2,5,6
 602 134 602 134 602 96.5 c 128,-1,7
 602 59 602 59 613.5 40.5 c 128,-1,8
 625 22 625 22 659 22 c 0,9,10
 704 22 704 22 743.5 80.5 c 128,-1,11
 783 139 783 139 783 237 c 0,12,13
 783 383 783 383 698 466.5 c 128,-1,14
 613 550 613 550 461.5 550 c 128,-1,15
 310 550 310 550 204 448 c 128,-1,16
 98 346 98 346 98 174 c 0,17,18
 98 86 98 86 129.5 19.5 c 128,-1,19
 161 -47 161 -47 214.5 -85 c 0,20,21
 318.684210526 -159 318.684210526 -159 458.842105263 -159 c 128,-1,22
 599 -159 599 -159 697 -76 c 1,23,-1
 713 -94 l 1,24,25
 669 -135 669 -135 600.5 -159 c 128,-1,26
 532 -183 532 -183 458 -183 c 128,-1,27
 384 -183 384 -183 314.5 -162 c 128,-1,28
 245 -141 245 -141 189.5 -99 c 128,-1,29
 134 -57 134 -57 102 12 c 128,-1,30
 70 81 70 81 70 170 c 0,31,32
 70 345 70 345 180.5 458.5 c 128,-1,33
 291 572 291 572 467 572 c 0,34,35
 620 572 620 572 714.5 485.5 c 128,-1,36
 809 399 809 399 809 244 c 0,37,38
 809 119 809 119 756.5 56 c 128,-1,39
 704 -7 704 -7 604.5 -7 c 128,-1,40
 505 -7 505 -7 477 65 c 1,41,42
 451 -5 451 -5 380 -5 c 128,-1,43
 309 -5 309 -5 271 39 c 128,-1,44
 233 83 233 83 233 147 c 0,45,46
 233 268 233 268 295 331.5 c 128,-1,47
 357 395 357 395 433 395 c 0,0,1
481 130 m 2,48,-1
 515 344 l 1,49,50
 486 374 486 374 453 374 c 128,-1,51
 420 374 420 374 398.5 343 c 128,-1,52
 377 312 377 312 367 264 c 0,53,54
 349 177.6 349 177.6 349 96.8 c 128,-1,55
 349 16 349 16 400 16 c 0,56,57
 429 16 429 16 451 48 c 128,-1,58
 473 80 473 80 481 130 c 2,48,-1
EndSplineSet
Substitution2: "'case' Case-Sensitive Forms lookup 8 subtable" at.case
Position2: "'case' Case-Sensitive Forms lookup 0 per glyph data 1" dx=0 dy=130 dh=0 dv=0
EndChar

StartChar: at.case
Encoding: 65539 -1 19
Width: 879
Flags: MW
LayerCount: 2
Fore
SplineSet
433 527 m 0,0,1
 481 527 481 527 520 490 c 1,2,-1
 537 520 l 1,3,-1
 646 520 l 1,4,-1
 614 338 l 2,5,6
 602 266 602 266 602 228.5 c 128,-1,7
 602 191 602 191 613.5 172.5 c 128,-1,8
 625 154 625 154 659 154 c 0,9,10
 704 154 704 154 743.5 212.5 c 128,-1,11
 783 271 783 271 783 369 c 0,12,13
 783 515 783 515 698 598.5 c 128,-1,14
 613 682 613 682 461.5 682 c 128,-1,15
 310 682 310 682 204 580 c 128,-1,16
 98 478 98 478 98 306 c 0,17,18
 98 218 98 218 129.5 151.5 c 128,-1,19
 161 85 161 85 214.5 47 c 0,20,21
 318.684210526 -27 318.684210526 -27 458.842105263 -27 c 128,-1,22
 599 -27 599 -27 697 56 c 1,23,-1
 713 38 l 1,24,25
 669 -3 669 -3 600.5 -27 c 128,-1,26
 532 -51 532 -51 458 -51 c 128,-1,27
 384 -51 384 -51 314.5 -30 c 128,-1,28
 245 -9 245 -9 189.5 33 c 128,-1,29
 134 75 134 75 102 144 c 128,-1,30
 70 213 70 213 70 302 c 0,31,32
 70 477 70 477 180.5 590.5 c 128,-1,33
 291 704 291 704 467 704 c 0,34,35
 620 704 620 704 714.5 617.5 c 128,-1,36
 809 531 809 531 809 376 c 0,37,38
 809 251 809 251 756.5 188 c 128,-1,39
 704 125 704 125 604.5 125 c 128,-1,40
 505 125 505 125 477 197 c 1,41,42
 451 127 451 127 380 127 c 128,-1,43
 309 127 309 127 271 171 c 128,-1,44
 233 215 233 215 233 279 c 0,45,46
 233 400 233 400 295 463.5 c 128,-1,47
 357 527 357 527 433 527 c 0,0,1
481 262 m 2,48,-1
 515 476 l 1,49,50
 486 506 486 506 453 506 c 128,-1,51
 420 506 420 506 398.5 475 c 128,-1,52
 377 444 377 444 367 396 c 0,53,54
 349 309.6 349 309.6 349 228.8 c 128,-1,55
 349 148 349 148 400 148 c 0,56,57
 429 148 429 148 451 180 c 128,-1,58
 473 212 473 212 481 262 c 2,48,-1
EndSplineSet
EndChar

StartChar: A
Encoding: 65 65 20
Width: 694
Flags: MW
LayerCount: 2
Fore
SplineSet
432 19 m 1,0,-1
 359 235 l 1,1,-1
 161 235 l 1,2,-1
 84 19 l 1,3,-1
 159 19 l 1,4,-1
 159 0 l 1,5,-1
 6 0 l 1,6,-1
 6 19 l 1,7,-1
 53 19 l 1,8,-1
 308 706 l 1,9,-1
 390 706 l 1,10,-1
 642 19 l 1,11,-1
 688 19 l 1,12,-1
 688 0 l 1,13,-1
 361 0 l 1,14,-1
 361 19 l 1,15,-1
 432 19 l 1,0,-1
264 519 m 1,16,-1
 170 257 l 1,17,-1
 351 257 l 1,18,-1
 264 519 l 1,16,-1
EndSplineSet
EndChar

StartChar: B
Encoding: 66 66 21
Width: 659
Flags: MW
LayerCount: 2
Fore
SplineSet
21 700 m 1,0,-1
 320 700 l 2,1,2
 459 700 459 700 528.5 662.5 c 128,-1,3
 598 625 598 625 598 536 c 0,4,5
 598 399 598 399 433 372 c 1,6,-1
 433 370 l 1,7,8
 633 345 633 345 633 196 c 0,9,10
 633 87 633 87 551 43.5 c 128,-1,11
 469 0 469 0 315 0 c 2,12,-1
 21 0 l 1,13,-1
 21 19 l 1,14,-1
 86 19 l 1,15,-1
 86 681 l 1,16,-1
 21 681 l 1,17,-1
 21 700 l 1,0,-1
281 354 m 1,18,-1
 281 19 l 1,19,-1
 328 19 l 2,20,21
 383 19 383 19 405 57 c 128,-1,22
 427 95 427 95 427 169 c 2,23,-1
 427 222 l 2,24,25
 427 288 427 288 400 321 c 128,-1,26
 373 354 373 354 304 354 c 2,27,-1
 281 354 l 1,18,-1
281 681 m 1,28,-1
 281 373 l 1,29,-1
 307 373 l 2,30,31
 359 373 359 373 379.5 404.5 c 128,-1,32
 400 436 400 436 400 501 c 2,33,-1
 400 548 l 2,34,35
 400 622 400 622 382 651.5 c 128,-1,36
 364 681 364 681 313 681 c 2,37,-1
 281 681 l 1,28,-1
EndSplineSet
EndChar

StartChar: C
Encoding: 67 67 22
Width: 690
Flags: MW
LayerCount: 2
Fore
SplineSet
400 691 m 0,0,1
 245 691 245 691 245 392 c 2,2,-1
 245 313 l 2,3,4
 245 171 245 171 286 90.5 c 128,-1,5
 327 10 327 10 407 10 c 0,6,7
 517 10 517 10 609 224 c 1,8,-1
 627 224 l 1,9,-1
 620 1 l 1,10,-1
 609 1 l 1,11,12
 603 12 603 12 598 16.5 c 128,-1,13
 593 21 593 21 583.5 21 c 0,14,15
 574 21 574 21 511 5.5 c 128,-1,16
 448 -10 448 -10 383 -10 c 0,17,18
 220 -10 220 -10 130.5 78 c 128,-1,19
 41 166 41 166 41 342.5 c 0,20,21
 41 519 41 519 134.5 615 c 128,-1,22
 228 711 228 711 386 711 c 0,23,24
 447 711 447 711 505.5 695.5 c 128,-1,25
 564 680 564 680 574 680 c 0,26,27
 584 680 584 680 589 684.5 c 128,-1,28
 594 689 594 689 600 700 c 1,29,-1
 611 700 l 1,30,-1
 619 483 l 1,31,-1
 601 483 l 1,32,33
 556 584 556 584 508.5 637.5 c 128,-1,34
 461 691 461 691 400 691 c 0,0,1
EndSplineSet
EndChar

StartChar: D
Encoding: 68 68 23
Width: 755
Flags: MW
LayerCount: 2
Fore
SplineSet
714 362 m 0,0,1
 714 156.403508772 714 156.403508772 598 75 c 0,2,3
 491.125 0 491.125 0 304 0 c 2,4,-1
 21 0 l 1,5,-1
 21 19 l 1,6,-1
 87 19 l 1,7,-1
 87 681 l 1,8,-1
 21 681 l 1,9,-1
 21 700 l 1,10,-1
 330 700 l 2,11,12
 522 700 522 700 618 621.5 c 128,-1,13
 714 543 714 543 714 362 c 0,0,1
282 19 m 1,14,-1
 320 19 l 2,15,16
 421 19 421 19 464.5 90.5 c 128,-1,17
 508 162 508 162 508 330 c 2,18,-1
 508 388 l 2,19,20
 508 612.853658537 508 612.853658537 422 659 c 0,21,22
 381 681 381 681 306 681 c 2,23,-1
 282 681 l 1,24,-1
 282 19 l 1,14,-1
EndSplineSet
EndChar

StartChar: E
Encoding: 69 69 24
Width: 624
Flags: MW
LayerCount: 2
Fore
SplineSet
21 700 m 1,0,-1
 541 700 l 1,1,-1
 551 502 l 1,2,-1
 533 502 l 1,3,4
 491 603 491 603 445 640.5 c 128,-1,5
 399 678 399 678 310 678 c 2,6,-1
 275 678 l 1,7,-1
 275 369 l 1,8,-1
 309 369 l 2,9,10
 356 369 356 369 388 404.5 c 128,-1,11
 420 440 420 440 433 500 c 1,12,-1
 448 500 l 1,13,-1
 448 204 l 1,14,-1
 431 204 l 1,15,16
 413 279 413 279 382.5 311 c 128,-1,17
 352 343 352 343 299 343 c 2,18,-1
 275 343 l 1,19,-1
 275 22 l 1,20,-1
 313 22 l 2,21,22
 405 22 405 22 469.5 77 c 128,-1,23
 534 132 534 132 558 218 c 1,24,-1
 578 218 l 1,25,-1
 570 0 l 1,26,-1
 21 0 l 1,27,-1
 21 22 l 1,28,-1
 80 22 l 1,29,-1
 80 678 l 1,30,-1
 21 678 l 1,31,-1
 21 700 l 1,0,-1
EndSplineSet
EndChar

StartChar: F
Encoding: 70 70 25
Width: 592
Flags: MW
LayerCount: 2
Fore
SplineSet
21 700 m 1,0,-1
 541 700 l 1,1,-1
 551 492 l 1,2,-1
 533 492 l 1,3,4
 496 600 496 600 447.5 639 c 128,-1,5
 399 678 399 678 303 678 c 2,6,-1
 275 678 l 1,7,-1
 275 353 l 1,8,-1
 320 353 l 2,9,10
 368 353 368 353 400 388 c 128,-1,11
 432 423 432 423 444 484 c 1,12,-1
 459 484 l 1,13,-1
 459 188 l 1,14,-1
 442 188 l 1,15,16
 426 263 426 263 397.5 295 c 128,-1,17
 369 327 369 327 320 327 c 2,18,-1
 275 327 l 1,19,-1
 275 22 l 1,20,-1
 399 22 l 1,21,-1
 399 0 l 1,22,-1
 21 0 l 1,23,-1
 21 22 l 1,24,-1
 80 22 l 1,25,-1
 80 678 l 1,26,-1
 21 678 l 1,27,-1
 21 700 l 1,0,-1
EndSplineSet
EndChar

StartChar: G
Encoding: 71 71 26
Width: 723
Flags: MW
LayerCount: 2
Fore
SplineSet
390 10 m 0,0,1
 439 10 439 10 452.5 28 c 128,-1,2
 466 46 466 46 466 89 c 2,3,-1
 466 283 l 1,4,-1
 402 283 l 1,5,-1
 402 305 l 1,6,-1
 690 305 l 1,7,-1
 690 283 l 1,8,-1
 651 283 l 1,9,-1
 651 1 l 1,10,-1
 636 1 l 1,11,12
 618 26 618 26 585 26 c 0,13,14
 571 26 571 26 501.5 8 c 128,-1,15
 432 -10 432 -10 383 -10 c 0,16,17
 220 -10 220 -10 130.5 78 c 128,-1,18
 41 166 41 166 41 342.5 c 0,19,20
 41 519 41 519 134.5 615 c 128,-1,21
 228 711 228 711 386 711 c 0,22,23
 447 711 447 711 508.5 695.5 c 128,-1,24
 570 680 570 680 580 680 c 0,25,26
 590 680 590 680 595 684.5 c 128,-1,27
 600 689 600 689 606 700 c 1,28,-1
 617 700 l 1,29,-1
 625 483 l 1,30,-1
 607 483 l 1,31,32
 558 580 558 580 508.5 635.5 c 128,-1,33
 459 691 459 691 398 691 c 0,34,35
 245 691 245 691 245 392 c 2,36,-1
 245 313 l 2,37,38
 245 163 245 163 282.5 86.5 c 128,-1,39
 320 10 320 10 390 10 c 0,0,1
EndSplineSet
EndChar

StartChar: H
Encoding: 72 72 27
Width: 749
Flags: MW
LayerCount: 2
Fore
SplineSet
21 700 m 1,0,-1
 333 700 l 1,1,-1
 333 681 l 1,2,-1
 275 681 l 1,3,-1
 275 371 l 1,4,-1
 474 371 l 1,5,-1
 474 681 l 1,6,-1
 415 681 l 1,7,-1
 415 700 l 1,8,-1
 728 700 l 1,9,-1
 728 681 l 1,10,-1
 669 681 l 1,11,-1
 669 19 l 1,12,-1
 728 19 l 1,13,-1
 728 0 l 1,14,-1
 415 0 l 1,15,-1
 415 19 l 1,16,-1
 474 19 l 1,17,-1
 474 345 l 1,18,-1
 275 345 l 1,19,-1
 275 19 l 1,20,-1
 333 19 l 1,21,-1
 333 0 l 1,22,-1
 21 0 l 1,23,-1
 21 19 l 1,24,-1
 80 19 l 1,25,-1
 80 681 l 1,26,-1
 21 681 l 1,27,-1
 21 700 l 1,0,-1
EndSplineSet
EndChar

StartChar: I
Encoding: 73 73 28
Width: 355
Flags: MW
LayerCount: 2
Fore
SplineSet
25 700 m 1,0,-1
 330 700 l 1,1,-1
 330 681 l 1,2,-1
 275 681 l 1,3,-1
 275 19 l 1,4,-1
 330 19 l 1,5,-1
 330 0 l 1,6,-1
 25 0 l 1,7,-1
 25 19 l 1,8,-1
 80 19 l 1,9,-1
 80 681 l 1,10,-1
 25 681 l 1,11,-1
 25 700 l 1,0,-1
EndSplineSet
EndChar

StartChar: J
Encoding: 74 74 29
Width: 517
Flags: MW
LayerCount: 2
Fore
SplineSet
176 700 m 1,0,-1
 501 700 l 1,1,-1
 501 681 l 1,2,-1
 446 681 l 1,3,-1
 446 249 l 2,4,5
 446 114 446 114 385 52.5 c 128,-1,6
 324 -9 324 -9 202 -9 c 0,7,8
 121 -9 121 -9 73.5 22 c 128,-1,9
 26 53 26 53 26 109 c 0,10,11
 26 152 26 152 50 176.5 c 128,-1,12
 74 201 74 201 115.5 201 c 0,13,14
 157 201 157 201 177.5 180 c 128,-1,15
 198 159 198 159 198 129.5 c 0,16,17
 198 100 198 100 187 70 c 1,18,-1
 148 70 l 1,19,20
 139 55 139 55 139 41.5 c 0,21,22
 139 28 139 28 152.5 18.5 c 128,-1,23
 166 9 166 9 188 9 c 0,24,25
 228 9 228 9 239.5 40.5 c 128,-1,26
 251 72 251 72 251 177 c 2,27,-1
 251 681 l 1,28,-1
 176 681 l 1,29,-1
 176 700 l 1,0,-1
EndSplineSet
EndChar

StartChar: K
Encoding: 75 75 30
Width: 734
Flags: MW
LayerCount: 2
Fore
SplineSet
25 700 m 1,0,-1
 330 700 l 1,1,-1
 330 681 l 1,2,-1
 275 681 l 1,3,-1
 275 365 l 1,4,-1
 283 367 l 1,5,-1
 565 681 l 1,6,-1
 486 681 l 1,7,-1
 486 700 l 1,8,-1
 661 700 l 1,9,-1
 661 681 l 1,10,-1
 601 681 l 1,11,-1
 429 489 l 1,12,-1
 669 19 l 1,13,-1
 723 19 l 1,14,-1
 723 0 l 1,15,-1
 402 0 l 1,16,-1
 402 19 l 1,17,-1
 449 19 l 1,18,-1
 284 338 l 1,19,-1
 275 336 l 1,20,-1
 275 19 l 1,21,-1
 330 19 l 1,22,-1
 330 0 l 1,23,-1
 25 0 l 1,24,-1
 25 19 l 1,25,-1
 80 19 l 1,26,-1
 80 681 l 1,27,-1
 25 681 l 1,28,-1
 25 700 l 1,0,-1
EndSplineSet
EndChar

StartChar: L
Encoding: 76 76 31
Width: 596
Flags: MW
LayerCount: 2
Fore
SplineSet
21 700 m 1,0,-1
 381 700 l 1,1,-1
 381 678 l 1,2,-1
 275 678 l 1,3,-1
 275 22 l 1,4,-1
 311 22 l 2,5,6
 396 22 396 22 446.5 74 c 128,-1,7
 497 126 497 126 549 234 c 1,8,-1
 570 234 l 1,9,-1
 551 0 l 1,10,-1
 21 0 l 1,11,-1
 21 22 l 1,12,-1
 80 22 l 1,13,-1
 80 678 l 1,14,-1
 21 678 l 1,15,-1
 21 700 l 1,0,-1
EndSplineSet
EndChar

StartChar: M
Encoding: 77 77 32
Width: 840
Flags: MW
LayerCount: 2
Fore
SplineSet
548 700 m 1,0,-1
 815 700 l 1,1,-1
 815 681 l 1,2,-1
 760 681 l 1,3,-1
 760 19 l 1,4,-1
 815 19 l 1,5,-1
 815 0 l 1,6,-1
 510 0 l 1,7,-1
 510 19 l 1,8,-1
 565 19 l 1,9,-1
 565 644 l 1,10,-1
 561 644 l 1,11,-1
 411 0 l 1,12,-1
 286 0 l 1,13,-1
 110 647 l 1,14,-1
 106 647 l 1,15,-1
 106 19 l 1,16,-1
 161 19 l 1,17,-1
 161 0 l 1,18,-1
 25 0 l 1,19,-1
 25 19 l 1,20,-1
 80 19 l 1,21,-1
 80 681 l 1,22,-1
 25 681 l 1,23,-1
 25 700 l 1,24,-1
 295 700 l 1,25,-1
 428 185 l 1,26,-1
 548 700 l 1,0,-1
EndSplineSet
EndChar

StartChar: N
Encoding: 78 78 33
Width: 670
Flags: MW
LayerCount: 2
Fore
SplineSet
590 681 m 1,0,-1
 590 0 l 1,1,-1
 450 0 l 1,2,-1
 107 647 l 1,3,-1
 107 19 l 1,4,-1
 162 19 l 1,5,-1
 162 0 l 1,6,-1
 25 0 l 1,7,-1
 25 19 l 1,8,-1
 80 19 l 1,9,-1
 80 681 l 1,10,-1
 25 681 l 1,11,-1
 25 700 l 1,12,-1
 301 700 l 1,13,-1
 563 198 l 1,14,-1
 563 681 l 1,15,-1
 508 681 l 1,16,-1
 508 700 l 1,17,-1
 645 700 l 1,18,-1
 645 681 l 1,19,-1
 590 681 l 1,0,-1
EndSplineSet
EndChar

StartChar: O
Encoding: 79 79 34
Width: 748
Flags: MW
LayerCount: 2
Fore
SplineSet
501 309 m 2,0,-1
 501 383 l 2,1,2
 501 566.125 501 566.125 483 614.5 c 0,3,4
 462.555555556 669.444444444 462.555555556 669.444444444 426 682.5 c 0,5,6
 405 690 405 690 375 690 c 128,-1,7
 345 690 345 690 323.5 682 c 128,-1,8
 302 674 302 674 288 654 c 128,-1,9
 274 634 274 634 265.5 612 c 128,-1,10
 257 590 257 590 252.5 550 c 0,11,12
 246 492.222222222 246 492.222222222 246 379 c 2,13,-1
 246 307 l 2,14,15
 246 184.6 246 184.6 255.5 133.3 c 128,-1,16
 265 82 265 82 279 60 c 0,17,18
 310.181818182 11 310.181818182 11 375 11 c 0,19,20
 454 11 454 11 477.5 77.5 c 128,-1,21
 501 144 501 144 501 309 c 2,0,-1
123.5 80.5 m 128,-1,23
 41 171 41 171 41 342.5 c 128,-1,24
 41 514 41 514 129.5 612.5 c 128,-1,25
 218 711 218 711 380 711 c 128,-1,26
 542 711 542 711 624.5 617.5 c 128,-1,27
 707 524 707 524 707 352 c 128,-1,28
 707 180 707 180 623.5 85 c 128,-1,29
 540 -10 540 -10 373 -10 c 128,-1,22
 206 -10 206 -10 123.5 80.5 c 128,-1,23
EndSplineSet
EndChar

StartChar: P
Encoding: 80 80 35
Width: 634
Flags: MW
LayerCount: 2
Fore
SplineSet
15 700 m 1,0,-1
 309 700 l 2,1,2
 460 700 460 700 534 656.5 c 128,-1,3
 608 613 608 613 608 501 c 0,4,5
 608 376.775280899 608 376.775280899 517.5 330 c 0,6,7
 434.304347826 287 434.304347826 287 283 287 c 2,8,-1
 275 287 l 1,9,-1
 275 19 l 1,10,-1
 400 19 l 1,11,-1
 400 0 l 1,12,-1
 15 0 l 1,13,-1
 15 19 l 1,14,-1
 80 19 l 1,15,-1
 80 681 l 1,16,-1
 15 681 l 1,17,-1
 15 700 l 1,0,-1
275 681 m 1,18,-1
 275 306 l 1,19,-1
 296 306 l 2,20,21
 356 306 356 306 379 347 c 128,-1,22
 402 388 402 388 402 480 c 2,23,-1
 402 528 l 2,24,25
 402 613 402 613 380.5 647 c 128,-1,26
 359 681 359 681 302 681 c 2,27,-1
 275 681 l 1,18,-1
EndSplineSet
EndChar

StartChar: Q
Encoding: 81 81 36
Width: 748
Flags: MW
LayerCount: 2
Fore
SplineSet
41 339 m 0,0,1
 41 514 41 514 129.5 612.5 c 128,-1,2
 218 711 218 711 380 711 c 128,-1,3
 542 711 542 711 624.5 617.5 c 128,-1,4
 707 524 707 524 707 352 c 0,5,6
 707 25 707 25 423 -1 c 1,7,-1
 423 -8 l 1,8,9
 480 -14 480 -14 507.5 -39 c 128,-1,10
 535 -64 535 -64 549 -105.5 c 128,-1,11
 563 -147 563 -147 574 -162 c 128,-1,12
 585 -177 585 -177 607 -177 c 0,13,14
 645 -177 645 -177 652 -97 c 1,15,-1
 674 -99 l 1,16,17
 672 -165 672 -165 633 -200 c 128,-1,18
 594 -235 594 -235 524.5 -235 c 128,-1,19
 455 -235 455 -235 417 -200.5 c 128,-1,20
 379 -166 379 -166 359 -99 c 0,21,22
 346 -58 346 -58 337 -46 c 128,-1,23
 328 -34 328 -34 314 -34 c 0,24,25
 286 -34 286 -34 240 -75 c 1,26,-1
 226 -59 l 1,27,28
 266 -19 266 -19 317 -10 c 1,29,-1
 317 -4 l 1,30,31
 181 10 181 10 111 99 c 128,-1,32
 41 188 41 188 41 339 c 0,0,1
501 309 m 2,33,-1
 501 383 l 2,34,35
 501 566.125 501 566.125 483 614.5 c 0,36,37
 462.555555556 669.444444444 462.555555556 669.444444444 426 682.5 c 0,38,39
 405 690 405 690 375 690 c 128,-1,40
 345 690 345 690 323.5 682 c 128,-1,41
 302 674 302 674 288 654 c 128,-1,42
 274 634 274 634 265.5 612 c 128,-1,43
 257 590 257 590 252.5 550 c 0,44,45
 246 492.222222222 246 492.222222222 246 379 c 2,46,-1
 246 307 l 2,47,48
 246 184.6 246 184.6 255.5 133.3 c 128,-1,49
 265 82 265 82 279 60 c 0,50,51
 310.181818182 11 310.181818182 11 375 11 c 0,52,53
 454 11 454 11 477.5 77.5 c 128,-1,54
 501 144 501 144 501 309 c 2,33,-1
EndSplineSet
EndChar

StartChar: R
Encoding: 82 82 37
Width: 716
Flags: MW
LayerCount: 2
Fore
SplineSet
328 354 m 2,0,-1
 275 354 l 1,1,-1
 275 19 l 1,2,-1
 340 19 l 1,3,-1
 340 0 l 1,4,-1
 15 0 l 1,5,-1
 15 19 l 1,6,-1
 80 19 l 1,7,-1
 80 681 l 1,8,-1
 15 681 l 1,9,-1
 15 700 l 1,10,-1
 317 700 l 2,11,12
 446.65 700 446.65 700 501.325 686.5 c 128,-1,13
 556 673 556 673 578.5 654.5 c 0,14,15
 626 615.444444444 626 615.444444444 626 530.222222222 c 128,-1,16
 626 445 626 445 584 408.5 c 128,-1,17
 542 372 542 372 456 365 c 1,18,-1
 456 362 l 1,19,20
 537 351 537 351 569 314 c 128,-1,21
 601 277 601 277 601 190 c 2,22,-1
 601 137 l 2,23,24
 601 85 601 85 606.5 67 c 128,-1,25
 612 49 612 49 630 49 c 128,-1,26
 648 49 648 49 658.5 65.5 c 128,-1,27
 669 82 669 82 678 135 c 1,28,-1
 695 133 l 1,29,30
 684 48 684 48 656.5 19 c 128,-1,31
 629 -10 629 -10 547 -10 c 128,-1,32
 465 -10 465 -10 430.5 28.5 c 128,-1,33
 396 67 396 67 396 173 c 2,34,-1
 396 246 l 2,35,36
 396 302 396 302 381.5 328 c 128,-1,37
 367 354 367 354 328 354 c 2,0,-1
275 681 m 1,38,-1
 275 373 l 1,39,-1
 307 373 l 2,40,41
 364 373 364 373 391.5 408 c 128,-1,42
 419 443 419 443 419 522 c 2,43,-1
 419 551 l 2,44,45
 419 630 419 630 392.5 655.5 c 128,-1,46
 366 681 366 681 308 681 c 2,47,-1
 275 681 l 1,38,-1
EndSplineSet
EndChar

StartChar: S
Encoding: 83 83 38
Width: 600
Flags: MW
LayerCount: 2
Fore
SplineSet
325 11 m 0,0,1
 375 11 375 11 413.5 38 c 128,-1,2
 452 65 452 65 452 119.5 c 128,-1,3
 452 174 452 174 410.5 203 c 128,-1,4
 369 232 369 232 292.5 253.5 c 128,-1,5
 216 275 216 275 181.5 291 c 128,-1,6
 147 307 147 307 116 333 c 0,7,8
 54 385 54 385 54 494 c 0,9,10
 54 583 54 583 117.5 647 c 128,-1,11
 181 711 181 711 291 711 c 0,12,13
 344 711 344 711 401.5 695.5 c 128,-1,14
 459 680 459 680 473 680 c 128,-1,15
 487 680 487 680 498 700 c 1,16,-1
 509 700 l 1,17,-1
 516 498 l 1,18,-1
 500 498 l 1,19,20
 452 585 452 585 399.5 637.5 c 128,-1,21
 347 690 347 690 285.5 690 c 128,-1,22
 224 690 224 690 190 661.5 c 128,-1,23
 156 633 156 633 156 585.5 c 128,-1,24
 156 538 156 538 196.5 512.5 c 128,-1,25
 237 487 237 487 296 471 c 128,-1,26
 355 455 355 455 373.5 449 c 128,-1,27
 392 443 392 443 419.5 432.5 c 128,-1,28
 447 422 447 422 464.5 410.5 c 128,-1,29
 482 399 482 399 501.5 381.5 c 128,-1,30
 521 364 521 364 532.5 343 c 0,31,32
 559 294.608695652 559 294.608695652 559 229 c 0,33,34
 559 121 559 121 491.5 55.5 c 128,-1,35
 424 -10 424 -10 314 -10 c 0,36,37
 257 -10 257 -10 183.5 5 c 128,-1,38
 110 20 110 20 102 20 c 0,39,40
 88.125 20 88.125 20 75 -10 c 1,41,-1
 61 -10 l 1,42,-1
 51 228 l 1,43,-1
 68 228 l 1,44,45
 112 141 112 141 180.5 76 c 128,-1,46
 249 11 249 11 325 11 c 0,0,1
EndSplineSet
EndChar

StartChar: T
Encoding: 84 84 39
Width: 683
Flags: MW
LayerCount: 2
Fore
SplineSet
636 700 m 1,0,-1
 646 449 l 1,1,-1
 627 449 l 1,2,3
 583 582 583 582 549 630.5 c 128,-1,4
 515 679 515 679 451 679 c 2,5,-1
 439 679 l 1,6,-1
 439 21 l 1,7,-1
 524 21 l 1,8,-1
 524 0 l 1,9,-1
 159 0 l 1,10,-1
 159 21 l 1,11,-1
 244 21 l 1,12,-1
 244 679 l 1,13,-1
 231 679 l 2,14,15
 167 679 167 679 132 628.5 c 128,-1,16
 97 578 97 578 55 449 c 1,17,-1
 36 449 l 1,18,-1
 46 700 l 1,19,-1
 636 700 l 1,0,-1
EndSplineSet
EndChar

StartChar: U
Encoding: 85 85 40
Width: 683
Flags: MW
LayerCount: 2
Fore
SplineSet
302.5 72 m 128,-1,1
 334 23 334 23 416 23 c 128,-1,2
 498 23 498 23 542 74 c 128,-1,3
 586 125 586 125 586 229 c 2,4,-1
 586 681 l 1,5,-1
 521 681 l 1,6,-1
 521 700 l 1,7,-1
 667 700 l 1,8,-1
 667 681 l 1,9,-1
 612 681 l 1,10,-1
 612 236 l 2,11,12
 612 112 612 112 557 51 c 128,-1,13
 502 -10 502 -10 362.5 -10 c 128,-1,14
 223 -10 223 -10 149.5 48 c 128,-1,15
 76 106 76 106 76 247 c 2,16,-1
 76 681 l 1,17,-1
 21 681 l 1,18,-1
 21 700 l 1,19,-1
 336 700 l 1,20,-1
 336 681 l 1,21,-1
 271 681 l 1,22,-1
 271 213 l 2,23,0
 271 121 271 121 302.5 72 c 128,-1,1
EndSplineSet
EndChar

StartChar: V
Encoding: 86 86 41
Width: 685
Flags: MW
LayerCount: 2
Fore
SplineSet
430 181 m 1,0,-1
 604 681 l 1,1,-1
 526 681 l 1,2,-1
 526 700 l 1,3,-1
 679 700 l 1,4,-1
 679 681 l 1,5,-1
 632 681 l 1,6,-1
 391 -10 l 1,7,-1
 307 -10 l 1,8,-1
 52 681 l 1,9,-1
 6 681 l 1,10,-1
 6 700 l 1,11,-1
 333 700 l 1,12,-1
 333 681 l 1,13,-1
 262 681 l 1,14,-1
 430 181 l 1,0,-1
EndSplineSet
EndChar

StartChar: W
Encoding: 87 87 42
Width: 1015
Flags: MW
LayerCount: 2
Fore
SplineSet
424 202 m 1,0,-1
 507 490 l 1,1,-1
 447 681 l 1,2,-1
 390 681 l 1,3,-1
 390 700 l 1,4,-1
 700 700 l 1,5,-1
 700 681 l 1,6,-1
 641 681 l 1,7,-1
 790 208 l 1,8,-1
 910 681 l 1,9,-1
 809 681 l 1,10,-1
 809 700 l 1,11,-1
 1009 700 l 1,12,-1
 1009 681 l 1,13,-1
 943 681 l 1,14,-1
 759 -10 l 1,15,-1
 670 -10 l 1,16,-1
 522 442 l 1,17,-1
 392 -10 l 1,18,-1
 305 -10 l 1,19,-1
 53 681 l 1,20,-1
 6 681 l 1,21,-1
 6 700 l 1,22,-1
 331 700 l 1,23,-1
 331 681 l 1,24,-1
 261 681 l 1,25,-1
 424 202 l 1,0,-1
EndSplineSet
EndChar

StartChar: X
Encoding: 88 88 43
Width: 711
Flags: MW
LayerCount: 2
Fore
SplineSet
700 0 m 1,0,-1
 358 0 l 1,1,-1
 358 19 l 1,2,-1
 424 19 l 1,3,-1
 275 283 l 1,4,-1
 116 19 l 1,5,-1
 222 19 l 1,6,-1
 222 0 l 1,7,-1
 15 0 l 1,8,-1
 15 19 l 1,9,-1
 82 19 l 1,10,-1
 257 313 l 1,11,-1
 48 680 l 1,12,-1
 -6 680 l 1,13,-1
 -6 700 l 1,14,-1
 331 700 l 1,15,-1
 331 680 l 1,16,-1
 263 680 l 1,17,-1
 398 438 l 1,18,-1
 549 680 l 1,19,-1
 445 680 l 1,20,-1
 445 700 l 1,21,-1
 650 700 l 1,22,-1
 650 680 l 1,23,-1
 584 680 l 1,24,-1
 415 410 l 1,25,-1
 642 19 l 1,26,-1
 700 19 l 1,27,-1
 700 0 l 1,0,-1
EndSplineSet
EndChar

StartChar: Y
Encoding: 89 89 44
Width: 641
Flags: MW
LayerCount: 2
Fore
SplineSet
397 371 m 1,0,-1
 539 684 l 1,1,-1
 438 684 l 1,2,-1
 438 700 l 1,3,-1
 635 700 l 1,4,-1
 635 684 l 1,5,-1
 569 684 l 1,6,-1
 418 350 l 1,7,-1
 418 19 l 1,8,-1
 479 19 l 1,9,-1
 479 0 l 1,10,-1
 162 0 l 1,11,-1
 162 19 l 1,12,-1
 223 19 l 1,13,-1
 223 331 l 1,14,-1
 53 684 l 1,15,-1
 6 684 l 1,16,-1
 6 700 l 1,17,-1
 326 700 l 1,18,-1
 326 684 l 1,19,-1
 261 684 l 1,20,-1
 397 371 l 1,0,-1
EndSplineSet
EndChar

StartChar: Z
Encoding: 90 90 45
Width: 612
Flags: MW
LayerCount: 2
Fore
SplineSet
559 700 m 1,0,-1
 559 678 l 1,1,-1
 263 23 l 1,2,-1
 297 23 l 2,3,4
 387 23 387 23 455.5 80.5 c 128,-1,5
 524 138 524 138 554 244 c 1,6,-1
 572 244 l 1,7,-1
 560 0 l 1,8,-1
 48 0 l 1,9,-1
 48 19 l 1,10,-1
 347 678 l 1,11,-1
 306 678 l 2,12,13
 217 678 217 678 171 639 c 128,-1,14
 125 600 125 600 67 479 c 1,15,-1
 49 479 l 1,16,-1
 64 700 l 1,17,-1
 559 700 l 1,0,-1
EndSplineSet
EndChar

StartChar: a
Encoding: 97 97 46
Width: 549
Flags: MW
LayerCount: 2
Fore
SplineSet
250 235 m 2,0,-1
 279 235 l 1,1,-1
 279 312 l 2,2,3
 279 407 279 407 268.5 439.5 c 128,-1,4
 258 472 258 472 228 472 c 0,5,6
 210 472 210 472 195.5 462.5 c 128,-1,7
 181 453 181 453 181 436.5 c 128,-1,8
 181 420 181 420 187 403 c 1,9,-1
 212 403 l 1,10,11
 220 382 220 382 220 352.5 c 128,-1,12
 220 323 220 323 195 301.5 c 128,-1,13
 170 280 170 280 132 280 c 0,14,15
 46 280 46 280 46 363 c 0,16,17
 46 486 46 486 255 486 c 0,18,19
 374 486 374 486 419.5 445.5 c 128,-1,20
 465 405 465 405 465 297 c 2,21,-1
 465 94 l 2,22,23
 465 42 465 42 494 42 c 0,24,25
 528 42 528 42 534 145 c 1,26,-1
 549 144 l 1,27,28
 545 56 545 56 516 23 c 128,-1,29
 487 -10 487 -10 421 -10 c 0,30,31
 301 -10 301 -10 283 64 c 1,32,33
 270 26 270 26 244 8 c 128,-1,34
 218 -10 218 -10 168 -10 c 0,35,36
 20 -10 20 -10 20 111 c 0,37,38
 20 182 20 182 76.5 208.5 c 128,-1,39
 133 235 133 235 250 235 c 2,0,-1
215.5 45 m 128,-1,41
 221 30 221 30 236.5 30 c 128,-1,42
 252 30 252 30 265.5 55.5 c 128,-1,43
 279 81 279 81 279 126 c 2,44,-1
 279 219 l 1,45,-1
 272 219 l 2,46,47
 210 219 210 219 210 128 c 2,48,-1
 210 112 l 2,49,40
 210 60 210 60 215.5 45 c 128,-1,41
EndSplineSet
EndChar

StartChar: b
Encoding: 98 98 47
Width: 588
Flags: MW
LayerCount: 2
Fore
SplineSet
365 407.5 m 128,-1,1
 355 443 355 443 326 443 c 128,-1,2
 297 443 297 443 274 407 c 128,-1,3
 251 371 251 371 251 308 c 2,4,-1
 251 122 l 2,5,6
 251 79 251 79 268.5 49 c 128,-1,7
 286 19 286 19 318.5 19 c 128,-1,8
 351 19 351 19 363 63 c 128,-1,9
 375 107 375 107 375 217 c 2,10,-1
 375 269 l 2,11,0
 375 372 375 372 365 407.5 c 128,-1,1
251 750 m 1,12,-1
 251 400 l 1,13,14
 289 486 289 486 381 486 c 0,15,16
 568 486 568 486 568 237 c 0,17,18
 568 110 568 110 516.5 50 c 128,-1,19
 465 -10 465 -10 362 -10 c 0,20,21
 310 -10 310 -10 282.5 6 c 128,-1,22
 255 22 255 22 245 59 c 1,23,-1
 238 0 l 1,24,-1
 10 0 l 1,25,-1
 10 18 l 1,26,-1
 65 18 l 1,27,-1
 65 732 l 1,28,-1
 10 732 l 1,29,-1
 10 750 l 1,30,-1
 251 750 l 1,12,-1
EndSplineSet
EndChar

StartChar: c
Encoding: 99 99 48
Width: 483
Flags: MW
LayerCount: 2
Fore
SplineSet
290 468 m 0,0,1
 246 468 246 468 227 420 c 128,-1,2
 208 372 208 372 208 261 c 2,3,-1
 208 209 l 2,4,5
 208 110 208 110 230 67 c 128,-1,6
 252 24 252 24 311 24 c 128,-1,7
 370 24 370 24 405 64 c 128,-1,8
 440 104 440 104 450 155 c 1,9,-1
 468 153 l 1,10,11
 449.254523522 66.7708082027 449.254523522 66.7708082027 398.5 29 c 0,12,13
 346.09375 -10 346.09375 -10 255 -10 c 0,14,15
 139 -10 139 -10 77 52.5 c 128,-1,16
 15 115 15 115 15 235.5 c 128,-1,17
 15 356 15 356 85.5 421 c 128,-1,18
 156 486 156 486 282 486 c 0,19,20
 371 486 371 486 418 451.5 c 128,-1,21
 465 417 465 417 465 365 c 128,-1,22
 465 313 465 313 442.5 289 c 128,-1,23
 420 265 420 265 380.5 265 c 128,-1,24
 341 265 341 265 317 286 c 128,-1,25
 293 307 293 307 293 348 c 0,26,27
 293 366 293 366 298 384 c 1,28,-1
 331 384 l 1,29,30
 338 404 338 404 338 420 c 0,31,32
 338 468 338 468 290 468 c 0,0,1
EndSplineSet
EndChar

StartChar: d
Encoding: 100 100 49
Width: 588
Flags: MW
LayerCount: 2
Fore
SplineSet
224 67.5 m 128,-1,1
 235 33 235 33 264.5 33 c 128,-1,2
 294 33 294 33 315.5 59 c 128,-1,3
 337 85 337 85 337 136 c 2,4,-1
 337 354 l 2,5,6
 337 397 337 397 320 427 c 128,-1,7
 303 457 303 457 270 457 c 128,-1,8
 237 457 237 457 225 413 c 128,-1,9
 213 369 213 369 213 259 c 2,10,-1
 213 207 l 2,11,0
 213 102 213 102 224 67.5 c 128,-1,1
350 0 m 1,12,-1
 339 70 l 1,13,14
 305 -10 305 -10 201 -10 c 0,15,16
 115 -10 115 -10 67.5 52 c 128,-1,17
 20 114 20 114 20 237 c 0,18,19
 20 486 20 486 218 486 c 0,20,21
 306 486 306 486 334 437 c 1,22,-1
 334 732 l 1,23,-1
 273 732 l 1,24,-1
 273 750 l 1,25,-1
 523 750 l 1,26,-1
 523 18 l 1,27,-1
 572 18 l 1,28,-1
 572 0 l 1,29,-1
 350 0 l 1,12,-1
EndSplineSet
EndChar

StartChar: e
Encoding: 101 101 50
Width: 516
Flags: MW
LayerCount: 2
Fore
SplineSet
79.5 56.5 m 128,-1,1
 15 123 15 123 15 241.5 c 128,-1,2
 15 360 15 360 87.5 423 c 128,-1,3
 160 486 160 486 272 486 c 0,4,5
 499 486 499 486 490 258 c 1,6,-1
 208 258 l 1,7,-1
 208 219 l 2,8,9
 208 121 208 121 233 71 c 128,-1,10
 258 21 258 21 319.5 21 c 0,11,12
 436.271186441 21 436.271186441 21 472 145 c 1,13,-1
 490 142 l 1,14,15
 471 70 471 70 421.5 30 c 128,-1,16
 372 -10 372 -10 273 -10 c 0,17,0
 144 -10 144 -10 79.5 56.5 c 128,-1,1
209 278 m 1,18,-1
 312 278 l 1,19,-1
 312 327 l 2,20,21
 312 408 312 408 302.5 437.5 c 128,-1,22
 293 467 293 467 264.5 467 c 128,-1,23
 236 467 236 467 222.5 435.5 c 128,-1,24
 209 404 209 404 209 327 c 2,25,-1
 209 278 l 1,18,-1
EndSplineSet
EndChar

StartChar: f
Encoding: 102 102 51
Width: 383
Flags: MW
LayerCount: 2
Fore
SplineSet
313 756 m 0,0,1
 275 756 275 756 263 727.5 c 128,-1,2
 251 699 251 699 251 636 c 2,3,-1
 251 476 l 1,4,-1
 383 476 l 1,5,-1
 383 458 l 1,6,-1
 251 458 l 1,7,-1
 251 18 l 1,8,-1
 373 18 l 1,9,-1
 373 0 l 1,10,-1
 10 0 l 1,11,-1
 10 18 l 1,12,-1
 65 18 l 1,13,-1
 65 458 l 1,14,-1
 7 458 l 1,15,-1
 7 476 l 1,16,-1
 65 476 l 1,17,-1
 65 480 l 2,18,19
 65 624 65 624 120 698.5 c 128,-1,20
 175 773 175 773 304 773 c 0,21,22
 389 773 389 773 426 739.5 c 128,-1,23
 463 706 463 706 463 662 c 0,24,25
 463 618 463 618 440 596 c 128,-1,26
 417 574 417 574 379 574 c 0,27,28
 341 574 341 574 320.5 593.5 c 128,-1,29
 300 613 300 613 300 638.5 c 0,30,31
 300 664 300 664 306 688 c 1,32,-1
 344 688 l 1,33,34
 364.216216216 756 364.216216216 756 313 756 c 0,0,1
EndSplineSet
Substitution2: "Single Substitution lookup 9 subtable" f.calt
EndChar

StartChar: f.calt
Encoding: 65540 -1 52
Width: 369
Flags: MW
LayerCount: 2
Fore
SplineSet
260.5 732.5 m 128,-1,1
 251 753 251 753 221.5 753 c 128,-1,2
 192 753 192 753 174.5 737 c 128,-1,3
 157 721 157 721 157 692.5 c 128,-1,4
 157 664 157 664 171 636 c 2,5,-1
 251 476 l 1,6,-1
 373 476 l 1,7,-1
 373 458 l 1,8,-1
 251 458 l 1,9,-1
 251 18 l 1,10,-1
 359 18 l 1,11,-1
 359 0 l 1,12,-1
 10 0 l 1,13,-1
 10 18 l 1,14,-1
 65 18 l 1,15,-1
 65 458 l 1,16,-1
 7 458 l 1,17,-1
 7 476 l 1,18,-1
 65 476 l 1,19,-1
 65 523 l 2,20,21
 65 633 65 633 110 703 c 128,-1,22
 155 773 155 773 243 773 c 0,23,24
 310 773 310 773 344.5 740 c 128,-1,25
 379 707 379 707 379 663.5 c 128,-1,26
 379 620 379 620 356 598.5 c 128,-1,27
 333 577 333 577 295.5 577 c 128,-1,28
 258 577 258 577 237.5 599 c 128,-1,29
 217 621 217 621 217 655 c 0,30,31
 217 669 217 669 218 676 c 1,32,-1
 256 682 l 1,33,0
 270 712 270 712 260.5 732.5 c 128,-1,1
EndSplineSet
EndChar

StartChar: g
Encoding: 103 103 53
Width: 522
Flags: MW
LayerCount: 2
Fore
SplineSet
411 528 m 1,0,-1
 439 545 l 1,1,2
 445 576 445 576 415 576 c 0,3,4
 372 576 372 576 372 510 c 0,5,6
 372 484 372 484 379 450 c 1,7,8
 455 399 455 399 455 319.5 c 0,9,10
 455 240 455 240 400 196 c 128,-1,11
 345 152 345 152 251 152 c 0,12,13
 212 152 212 152 170 160 c 1,14,15
 126 132 126 132 126 118 c 128,-1,16
 126 104 126 104 190 104 c 2,17,-1
 292 104 l 2,18,19
 519 104 519 104 519 -59 c 0,20,21
 519 -147 519 -147 450.5 -198.5 c 128,-1,22
 382 -250 382 -250 237 -250 c 0,23,24
 -10 -250 -10 -250 -10 -143 c 0,25,26
 -10 -85 -10 -85 67 -63 c 1,27,-1
 127 -90 l 1,28,29
 119 -119 119 -119 119 -145 c 0,30,31
 119 -231 119 -231 247 -231 c 0,32,33
 325 -231 325 -231 367 -202 c 128,-1,34
 409 -173 409 -173 409 -130 c 0,35,36
 409 -87 409 -87 383.5 -72.5 c 128,-1,37
 358 -58 358 -58 282 -58 c 2,38,-1
 185 -58 l 2,39,40
 104 -58 104 -58 69 -31 c 128,-1,41
 34 -4 34 -4 34 35.5 c 0,42,43
 34 75 34 75 59 101.5 c 128,-1,44
 84 128 84 128 148 167 c 1,45,46
 32 200 32 200 32 319 c 0,47,48
 32 394 32 394 86 440 c 128,-1,49
 140 486 140 486 248 486 c 0,50,51
 313 486 313 486 359 461 c 1,52,53
 353 488 353 488 353 510 c 0,54,55
 353 566 353 566 383 591 c 128,-1,56
 413 616 413 616 450 616 c 0,57,58
 487 616 487 616 509.5 596.5 c 128,-1,59
 532 577 532 577 532 543 c 0,60,61
 532 509 532 509 514 492.5 c 128,-1,62
 496 476 496 476 470.5 476 c 0,63,64
 445 476 445 476 428.5 489.5 c 128,-1,65
 412 503 412 503 411 528 c 1,0,-1
199 341 m 2,66,-1
 199 287 l 2,67,68
 199 220 199 220 210.5 196 c 128,-1,69
 222 172 222 172 245.5 172 c 0,70,71
 269 172 269 172 279.5 195.5 c 128,-1,72
 290 219 290 219 290 292 c 2,73,-1
 290 341 l 2,74,75
 290 419 290 419 280 443.5 c 128,-1,76
 270 468 270 468 246.5 468 c 0,77,78
 223 468 223 468 211 442.5 c 128,-1,79
 199 417 199 417 199 341 c 2,66,-1
EndSplineSet
Substitution2: "Single Substitution lookup 9 subtable" g.calt
EndChar

StartChar: g.calt
Encoding: 65541 -1 54
Width: 509
Flags: MW
LayerCount: 2
Fore
SplineSet
365 449 m 1,0,1
 400 426 400 426 417.5 398 c 128,-1,2
 435 370 435 370 435 323 c 0,3,4
 435 240 435 240 380 196 c 128,-1,5
 325 152 325 152 231 152 c 0,6,7
 195 152 195 152 158 159 c 1,8,9
 116 133 116 133 116 118.5 c 0,10,11
 116 104 116 104 180 104 c 2,12,-1
 272 104 l 2,13,14
 499 104 499 104 499 -59 c 0,15,16
 499 -147 499 -147 430.5 -198.5 c 128,-1,17
 362 -250 362 -250 217 -250 c 0,18,19
 0 -250 0 -250 0 -147 c 0,20,21
 0 -93 0 -93 77 -71 c 1,22,-1
 137 -98 l 1,23,24
 129 -127 129 -127 129 -145 c 0,25,26
 129 -231 129 -231 236 -231 c 0,27,28
 308 -231 308 -231 348.5 -202 c 128,-1,29
 389 -173 389 -173 389 -130 c 0,30,31
 389 -87 389 -87 363.5 -72.5 c 128,-1,32
 338 -58 338 -58 262 -58 c 2,33,-1
 175 -58 l 2,34,35
 94 -58 94 -58 59 -31 c 128,-1,36
 24 -4 24 -4 24 36.5 c 0,37,38
 24 77 24 77 46 104 c 128,-1,39
 68 131 68 131 128 167 c 1,40,41
 12 200 12 200 12 319 c 0,42,43
 12 394 12 394 66 440 c 128,-1,44
 120 486 120 486 228 486 c 0,45,46
 295 486 295 486 345 460 c 1,47,48
 340 481 340 481 340 510 c 0,49,50
 340 566 340 566 370 591 c 128,-1,51
 400 616 400 616 437 616 c 0,52,53
 474 616 474 616 496.5 596.5 c 128,-1,54
 519 577 519 577 519 543 c 0,55,56
 519 509 519 509 501 492.5 c 128,-1,57
 483 476 483 476 457.5 476 c 0,58,59
 432 476 432 476 415.5 489.5 c 128,-1,60
 399 503 399 503 398 528 c 1,61,-1
 426 545 l 1,62,63
 432 576 432 576 402 576 c 0,64,65
 359 576 359 576 359 510 c 0,66,67
 359 482 359 482 365 449 c 1,0,1
179 341 m 2,68,-1
 179 287 l 2,69,70
 179 220 179 220 190.5 196 c 128,-1,71
 202 172 202 172 225.5 172 c 0,72,73
 249 172 249 172 259.5 195.5 c 128,-1,74
 270 219 270 219 270 292 c 2,75,-1
 270 341 l 2,76,77
 270 419 270 419 260 443.5 c 128,-1,78
 250 468 250 468 226.5 468 c 0,79,80
 203 468 203 468 191 442.5 c 128,-1,81
 179 417 179 417 179 341 c 2,68,-1
EndSplineSet
EndChar

StartChar: h
Encoding: 104 104 55
Width: 616
Flags: MW
LayerCount: 2
Fore
SplineSet
10 750 m 1,0,-1
 251 750 l 1,1,-1
 251 384 l 1,2,3
 267 430 267 430 300 458 c 128,-1,4
 333 486 333 486 400 486 c 0,5,6
 555 486 555 486 555 319 c 2,7,-1
 555 18 l 1,8,-1
 611 18 l 1,9,-1
 611 0 l 1,10,-1
 328 0 l 1,11,-1
 328 18 l 1,12,-1
 369 18 l 1,13,-1
 369 343 l 2,14,15
 369 403 369 403 361 420.5 c 128,-1,16
 353 438 353 438 332 438 c 0,17,18
 300 438 300 438 275.5 396 c 128,-1,19
 251 354 251 354 251 294 c 2,20,-1
 251 18 l 1,21,-1
 294 18 l 1,22,-1
 294 0 l 1,23,-1
 10 0 l 1,24,-1
 10 18 l 1,25,-1
 65 18 l 1,26,-1
 65 732 l 1,27,-1
 10 732 l 1,28,-1
 10 750 l 1,0,-1
EndSplineSet
EndChar

StartChar: i
Encoding: 105 105 56
Width: 317
Flags: MW
LayerCount: 2
Fore
SplineSet
81.5 572 m 128,-1,1
 59 599 59 599 59 639 c 128,-1,2
 59 679 59 679 83.5 705 c 128,-1,3
 108 731 108 731 158 731 c 128,-1,4
 208 731 208 731 234 707.5 c 128,-1,5
 260 684 260 684 260 640.5 c 128,-1,6
 260 597 260 597 235 571 c 128,-1,7
 210 545 210 545 157 545 c 128,-1,0
 104 545 104 545 81.5 572 c 128,-1,1
6 476 m 1,8,-1
 251 476 l 1,9,-1
 251 18 l 1,10,-1
 307 18 l 1,11,-1
 307 0 l 1,12,-1
 10 0 l 1,13,-1
 10 18 l 1,14,-1
 65 18 l 1,15,-1
 65 458 l 1,16,-1
 6 458 l 1,17,-1
 6 476 l 1,8,-1
EndSplineSet
Substitution2: "'locl' Localized Forms in Latin lookup 4 subtable" idotaccent
Substitution2: "'locl' Localized Forms in Latin lookup 1 subtable" idotaccent
Substitution2: "'locl' Localized Forms in Latin lookup 0 subtable" idotaccent
EndChar

StartChar: j
Encoding: 106 106 57
Width: 311
Flags: MW
LayerCount: 2
Fore
SplineSet
251 476 m 1,0,-1
 251 86 l 2,1,2
 251 -78 251 -78 194.5 -164 c 128,-1,3
 138 -250 138 -250 10 -250 c 0,4,5
 -73 -250 -73 -250 -111.5 -217 c 128,-1,6
 -150 -184 -150 -184 -150 -140 c 128,-1,7
 -150 -96 -150 -96 -124 -72.5 c 128,-1,8
 -98 -49 -98 -49 -59 -49 c 128,-1,9
 -20 -49 -20 -49 -0.5 -70.5 c 128,-1,10
 19 -92 19 -92 19 -118 c 128,-1,11
 19 -144 19 -144 13 -168 c 1,12,-1
 -25 -168 l 1,13,14
 -41 -195 -41 -195 -29.5 -214 c 128,-1,15
 -18 -233 -18 -233 12.5 -233 c 128,-1,16
 43 -233 43 -233 54 -198.5 c 128,-1,17
 65 -164 65 -164 65 -56 c 2,18,-1
 65 458 l 1,19,-1
 0 458 l 1,20,-1
 0 476 l 1,21,-1
 251 476 l 1,0,-1
80.5 572 m 128,-1,23
 58 599 58 599 58 639 c 128,-1,24
 58 679 58 679 82.5 705 c 128,-1,25
 107 731 107 731 157 731 c 128,-1,26
 207 731 207 731 233 707.5 c 128,-1,27
 259 684 259 684 259 640.5 c 128,-1,28
 259 597 259 597 234 571 c 128,-1,29
 209 545 209 545 156 545 c 128,-1,22
 103 545 103 545 80.5 572 c 128,-1,23
EndSplineSet
Substitution2: "Single Substitution lookup 9 subtable" j.calt
EndChar

StartChar: j.calt
Encoding: 65542 -1 58
Width: 311
Flags: MW
LayerCount: 2
Fore
SplineSet
251 476 m 1,0,-1
 251 35 l 2,1,2
 251 -37 251 -37 239 -86 c 128,-1,3
 227 -135 227 -135 195 -174 c 0,4,5
 132.641025641 -250 132.641025641 -250 -50 -250 c 1,6,-1
 -51 -233 l 1,7,8
 4 -225 4 -225 34.5 -181.5 c 128,-1,9
 65 -138 65 -138 65 -43 c 2,10,-1
 65 458 l 1,11,-1
 -1 458 l 1,12,-1
 -1 476 l 1,13,-1
 251 476 l 1,0,-1
74.5 572 m 128,-1,15
 52 599 52 599 52 639 c 128,-1,16
 52 679 52 679 76.5 705 c 128,-1,17
 101 731 101 731 151 731 c 128,-1,18
 201 731 201 731 227 707.5 c 128,-1,19
 253 684 253 684 253 640.5 c 128,-1,20
 253 597 253 597 228 571 c 128,-1,21
 203 545 203 545 150 545 c 128,-1,14
 97 545 97 545 74.5 572 c 128,-1,15
EndSplineSet
EndChar

StartChar: k
Encoding: 107 107 59
Width: 620
Flags: MW
LayerCount: 2
Fore
SplineSet
337 0 m 1,0,-1
 337 18 l 1,1,-1
 383 18 l 1,2,-1
 270 250 l 1,3,-1
 251 245 l 1,4,-1
 251 18 l 1,5,-1
 297 18 l 1,6,-1
 297 0 l 1,7,-1
 10 0 l 1,8,-1
 10 18 l 1,9,-1
 65 18 l 1,10,-1
 65 732 l 1,11,-1
 6 732 l 1,12,-1
 6 750 l 1,13,-1
 251 750 l 1,14,-1
 251 265 l 1,15,-1
 267 271 l 1,16,-1
 492 458 l 1,17,-1
 398 458 l 1,18,-1
 398 476 l 1,19,-1
 595 476 l 1,20,-1
 595 458 l 1,21,-1
 525 458 l 1,22,-1
 406 357 l 1,23,-1
 579 18 l 1,24,-1
 615 18 l 1,25,-1
 615 0 l 1,26,-1
 337 0 l 1,0,-1
EndSplineSet
EndChar

StartChar: l
Encoding: 108 108 60
Width: 316
Flags: MW
LayerCount: 2
Fore
SplineSet
6 750 m 1,0,-1
 251 750 l 1,1,-1
 251 18 l 1,2,-1
 307 18 l 1,3,-1
 307 0 l 1,4,-1
 10 0 l 1,5,-1
 10 18 l 1,6,-1
 65 18 l 1,7,-1
 65 732 l 1,8,-1
 6 732 l 1,9,-1
 6 750 l 1,0,-1
EndSplineSet
EndChar

StartChar: m
Encoding: 109 109 61
Width: 888
Flags: MW
LayerCount: 2
Fore
SplineSet
10 476 m 1,0,-1
 251 476 l 1,1,-1
 251 384 l 1,2,3
 284 486 284 486 396.5 486 c 128,-1,4
 509 486 509 486 533 378 c 1,5,6
 568 486 568 486 680 486 c 0,7,8
 827 486 827 486 827 319 c 2,9,-1
 827 18 l 1,10,-1
 883 18 l 1,11,-1
 883 0 l 1,12,-1
 606 0 l 1,13,-1
 606 18 l 1,14,-1
 641 18 l 1,15,-1
 641 343 l 2,16,17
 641 419 641 419 627.5 432.5 c 0,18,19
 622 438 622 438 612 438 c 0,20,21
 583 438 583 438 561 399 c 128,-1,22
 539 360 539 360 539 300 c 2,23,-1
 539 18 l 1,24,-1
 575 18 l 1,25,-1
 575 0 l 1,26,-1
 318 0 l 1,27,-1
 318 18 l 1,28,-1
 353 18 l 1,29,-1
 353 343 l 2,30,31
 353 419 353 419 339.5 432.5 c 0,32,33
 334 438 334 438 324 438 c 0,34,35
 296 438 296 438 273.5 395.5 c 128,-1,36
 251 353 251 353 251 294 c 2,37,-1
 251 18 l 1,38,-1
 287 18 l 1,39,-1
 287 0 l 1,40,-1
 10 0 l 1,41,-1
 10 18 l 1,42,-1
 65 18 l 1,43,-1
 65 458 l 1,44,-1
 10 458 l 1,45,-1
 10 476 l 1,0,-1
EndSplineSet
EndChar

StartChar: n
Encoding: 110 110 62
Width: 616
Flags: MW
LayerCount: 2
Fore
SplineSet
12 476 m 1,0,-1
 253 476 l 1,1,-1
 253 384 l 1,2,3
 269 430 269 430 302 458 c 128,-1,4
 335 486 335 486 402 486 c 0,5,6
 557 486 557 486 557 319 c 2,7,-1
 557 18 l 1,8,-1
 613 18 l 1,9,-1
 613 0 l 1,10,-1
 330 0 l 1,11,-1
 330 18 l 1,12,-1
 371 18 l 1,13,-1
 371 343 l 2,14,15
 371 403 371 403 363 420.5 c 128,-1,16
 355 438 355 438 334 438 c 0,17,18
 302 438 302 438 277.5 396 c 128,-1,19
 253 354 253 354 253 294 c 2,20,-1
 253 18 l 1,21,-1
 296 18 l 1,22,-1
 296 0 l 1,23,-1
 12 0 l 1,24,-1
 12 18 l 1,25,-1
 67 18 l 1,26,-1
 67 458 l 1,27,-1
 12 458 l 1,28,-1
 12 476 l 1,0,-1
EndSplineSet
EndChar

StartChar: o
Encoding: 111 111 63
Width: 543
Flags: MW
LayerCount: 2
Fore
SplineSet
333 197 m 2,0,-1
 333 282 l 2,1,2
 333 379 333 379 322.5 423.5 c 128,-1,3
 312 468 312 468 274 468 c 0,4,5
 252 468 252 468 238.5 455.5 c 128,-1,6
 225 443 225 443 219 413.5 c 0,7,8
 210 369.25 210 369.25 210 277 c 2,9,-1
 210 199 l 2,10,11
 210 89.875 210 89.875 216.5 67.9375 c 128,-1,12
 223 46 223 46 229.5 32.5 c 0,13,14
 241.296296296 8 241.296296296 8 273 8 c 0,15,16
 312.384615385 8 312.384615385 8 324.5 53 c 0,17,18
 333 84.5714285714 333 84.5714285714 333 197 c 2,0,-1
82 54 m 128,-1,20
 18 118 18 118 18 237.5 c 128,-1,21
 18 357 18 357 86.5 421.5 c 128,-1,22
 155 486 155 486 279 486 c 128,-1,23
 403 486 403 486 464 426.5 c 128,-1,24
 525 367 525 367 525 245 c 0,25,26
 525 -10 525 -10 271 -10 c 0,27,19
 146 -10 146 -10 82 54 c 128,-1,20
EndSplineSet
EndChar

StartChar: p
Encoding: 112 112 64
Width: 588
Flags: MW
LayerCount: 2
Fore
SplineSet
365 407.5 m 128,-1,1
 355 443 355 443 326 443 c 128,-1,2
 297 443 297 443 274 405.5 c 128,-1,3
 251 368 251 368 251 305 c 2,4,-1
 251 122 l 2,5,6
 251 79 251 79 268 49 c 128,-1,7
 285 19 285 19 318 19 c 128,-1,8
 351 19 351 19 363 63 c 128,-1,9
 375 107 375 107 375 217 c 2,10,-1
 375 269 l 2,11,0
 375 372 375 372 365 407.5 c 128,-1,1
249 476 m 1,12,-1
 249 397 l 1,13,14
 288 486 288 486 387 486 c 0,15,16
 473 486 473 486 520.5 424 c 128,-1,17
 568 362 568 362 568 236 c 128,-1,18
 568 110 568 110 516.5 50 c 128,-1,19
 465 -10 465 -10 362 -10 c 0,20,21
 314 -10 314 -10 290 2 c 128,-1,22
 266 14 266 14 251 39 c 1,23,-1
 251 -220 l 1,24,-1
 380 -220 l 1,25,-1
 380 -238 l 1,26,-1
 10 -238 l 1,27,-1
 10 -220 l 1,28,-1
 65 -220 l 1,29,-1
 65 458 l 1,30,-1
 12 458 l 1,31,-1
 12 476 l 1,32,-1
 249 476 l 1,12,-1
EndSplineSet
EndChar

StartChar: q
Encoding: 113 113 65
Width: 588
Flags: MW
LayerCount: 2
Fore
SplineSet
223 68.5 m 128,-1,1
 233 33 233 33 262 33 c 128,-1,2
 291 33 291 33 314 69 c 128,-1,3
 337 105 337 105 337 168 c 2,4,-1
 337 354 l 2,5,6
 337 397 337 397 319.5 427 c 128,-1,7
 302 457 302 457 271 457 c 0,8,9
 236 457 236 457 224.5 412.5 c 128,-1,10
 213 368 213 368 213 259 c 2,11,-1
 213 207 l 2,12,0
 213 104 213 104 223 68.5 c 128,-1,1
337 -220 m 1,13,-1
 337 76 l 1,14,15
 299 -10 299 -10 207 -10 c 0,16,17
 20 -10 20 -10 20 239 c 0,18,19
 20 366 20 366 71.5 426 c 128,-1,20
 123 486 123 486 226 486 c 0,21,22
 309 486 309 486 343 423 c 1,23,-1
 350 476 l 1,24,-1
 578 476 l 1,25,-1
 578 458 l 1,26,-1
 523 458 l 1,27,-1
 523 -220 l 1,28,-1
 572 -220 l 1,29,-1
 572 -238 l 1,30,-1
 235 -238 l 1,31,-1
 235 -220 l 1,32,-1
 337 -220 l 1,13,-1
EndSplineSet
EndChar

StartChar: r
Encoding: 114 114 66
Width: 495
Flags: MW
LayerCount: 2
Fore
SplineSet
344 448 m 0,0,1
 307 448 307 448 279 400 c 128,-1,2
 251 352 251 352 251 286 c 2,3,-1
 251 18 l 1,4,-1
 322 18 l 1,5,-1
 322 0 l 1,6,-1
 10 0 l 1,7,-1
 10 18 l 1,8,-1
 65 18 l 1,9,-1
 65 458 l 1,10,-1
 10 458 l 1,11,-1
 10 476 l 1,12,-1
 251 476 l 1,13,-1
 251 380 l 1,14,15
 264 431 264 431 301 458.5 c 128,-1,16
 338 486 338 486 385 486 c 128,-1,17
 432 486 432 486 461.5 459.5 c 128,-1,18
 491 433 491 433 491 384.5 c 0,19,20
 491 336 491 336 469 310 c 128,-1,21
 447 284 447 284 401.5 284 c 0,22,23
 356 284 356 284 334.5 314 c 128,-1,24
 313 344 313 344 329 397 c 1,25,-1
 365 397 l 1,26,27
 390 448 390 448 344 448 c 0,0,1
EndSplineSet
EndChar

StartChar: s
Encoding: 115 115 67
Width: 434
Flags: MW
LayerCount: 2
Fore
SplineSet
33 -10 m 1,0,-1
 33 169 l 1,1,-1
 45 169 l 1,2,3
 71 82 71 82 115 47 c 128,-1,4
 159 12 159 12 225 12 c 0,5,6
 327 12 327 12 327 77 c 0,7,8
 327 105 327 105 302 119 c 0,9,10
 263.111111111 140.777777778 263.111111111 140.777777778 202 153 c 1,11,12
 133.583120205 171.491048593 133.583120205 171.491048593 88.5 201 c 0,13,14
 33 237.327272727 33 237.327272727 33 315.163636364 c 128,-1,15
 33 393 33 393 81 439.5 c 128,-1,16
 129 486 129 486 209 486 c 0,17,18
 258 486 258 486 310 463 c 0,19,20
 329 455 329 455 339 455 c 128,-1,21
 349 455 349 455 356 462 c 128,-1,22
 363 469 363 469 373 488 c 1,23,-1
 384 488 l 1,24,-1
 384 335 l 1,25,-1
 372 335 l 1,26,27
 321 465 321 465 214 465 c 0,28,29
 167 465 167 465 144 448.5 c 128,-1,30
 121 432 121 432 121 407 c 0,31,32
 121 391.8 121 391.8 128 383.4 c 128,-1,33
 135 375 135 375 139 371 c 128,-1,34
 143 367 143 367 152 362.5 c 128,-1,35
 161 358 161 358 167 355.5 c 128,-1,36
 173 353 173 353 185.5 349 c 128,-1,37
 198 345 198 345 204 343.5 c 0,38,39
 271.935483871 326.516129032 271.935483871 326.516129032 301.967741935 314.258064516 c 128,-1,40
 332 302 332 302 359 283.5 c 0,41,42
 414 245.814814815 414 245.814814815 414 161.407407407 c 128,-1,43
 414 77 414 77 364 33.5 c 128,-1,44
 314 -10 314 -10 227 -10 c 0,45,46
 165 -10 165 -10 107 19 c 1,47,48
 95 27 95 27 88 27 c 0,49,50
 66 27 66 27 45 -10 c 1,51,-1
 33 -10 l 1,0,-1
EndSplineSet
EndChar

StartChar: t
Encoding: 116 116 68
Width: 394
Flags: MW
LayerCount: 2
Fore
SplineSet
60 143 m 2,0,-1
 60 458 l 1,1,-1
 5 458 l 1,2,-1
 5 476 l 1,3,-1
 60 476 l 1,4,-1
 60 605 l 1,5,-1
 246 651 l 1,6,-1
 246 476 l 1,7,-1
 376 476 l 1,8,-1
 376 458 l 1,9,-1
 246 458 l 1,10,-1
 246 121 l 2,11,12
 246 74 246 74 255.5 52 c 128,-1,13
 265 30 265 30 295 30 c 0,14,15
 325 30 325 30 347.5 60 c 128,-1,16
 370 90 370 90 377 142 c 1,17,-1
 394 140 l 1,18,19
 386 71 386 71 350 30.5 c 128,-1,20
 314 -10 314 -10 231 -10 c 0,21,22
 148 -10 148 -10 104 23 c 128,-1,23
 60 56 60 56 60 143 c 2,0,-1
EndSplineSet
EndChar

StartChar: u
Encoding: 117 117 69
Width: 605
Flags: MW
LayerCount: 2
Fore
SplineSet
595 0 m 1,0,-1
 367 0 l 1,1,-1
 356 73 l 1,2,3
 340 33 340 33 308.5 11.5 c 128,-1,4
 277 -10 277 -10 215 -10 c 0,5,6
 60 -10 60 -10 60 157 c 2,7,-1
 60 458 l 1,8,-1
 4 458 l 1,9,-1
 4 476 l 1,10,-1
 246 476 l 1,11,-1
 246 133 l 2,12,13
 246 73 246 73 254.5 54 c 128,-1,14
 263 35 263 35 288.5 35 c 0,15,16
 314 35 314 35 334 66 c 128,-1,17
 354 97 354 97 354 152 c 2,18,-1
 354 458 l 1,19,-1
 308 458 l 1,20,-1
 308 476 l 1,21,-1
 540 476 l 1,22,-1
 540 18 l 1,23,-1
 595 18 l 1,24,-1
 595 0 l 1,0,-1
EndSplineSet
EndChar

StartChar: v
Encoding: 118 118 70
Width: 532
Flags: MW
LayerCount: 2
Fore
SplineSet
0 458 m 1,0,-1
 0 476 l 1,1,-1
 299 476 l 1,2,-1
 299 458 l 1,3,-1
 236 458 l 1,4,-1
 356 126 l 1,5,-1
 464 458 l 1,6,-1
 397 458 l 1,7,-1
 397 476 l 1,8,-1
 532 476 l 1,9,-1
 532 458 l 1,10,-1
 488 458 l 1,11,-1
 340 0 l 1,12,-1
 226 0 l 1,13,-1
 41 458 l 1,14,-1
 0 458 l 1,0,-1
EndSplineSet
EndChar

StartChar: w
Encoding: 119 119 71
Width: 834
Flags: MW
LayerCount: 2
Fore
SplineSet
352 458 m 1,0,-1
 352 476 l 1,1,-1
 610 476 l 1,2,-1
 610 458 l 1,3,-1
 569 458 l 1,4,-1
 659 121 l 1,5,-1
 748 458 l 1,6,-1
 679 458 l 1,7,-1
 679 476 l 1,8,-1
 814 476 l 1,9,-1
 814 458 l 1,10,-1
 772 458 l 1,11,-1
 652 0 l 1,12,-1
 515 0 l 1,13,-1
 428 307 l 1,14,-1
 334 0 l 1,15,-1
 200 0 l 1,16,-1
 52 458 l 1,17,-1
 7 458 l 1,18,-1
 7 476 l 1,19,-1
 310 476 l 1,20,-1
 310 458 l 1,21,-1
 250 458 l 1,22,-1
 342 118 l 1,23,-1
 414 352 l 1,24,-1
 389 458 l 1,25,-1
 352 458 l 1,0,-1
EndSplineSet
EndChar

StartChar: x
Encoding: 120 120 72
Width: 595
Flags: MW
LayerCount: 2
Fore
SplineSet
367 295 m 1,0,-1
 485 458 l 1,1,-1
 413 458 l 1,2,-1
 413 476 l 1,3,-1
 562 476 l 1,4,-1
 562 458 l 1,5,-1
 510 458 l 1,6,-1
 380 274 l 1,7,-1
 543 18 l 1,8,-1
 595 18 l 1,9,-1
 595 0 l 1,10,-1
 261 0 l 1,11,-1
 261 18 l 1,12,-1
 332 18 l 1,13,-1
 222 198 l 1,14,-1
 108 18 l 1,15,-1
 174 18 l 1,16,-1
 174 0 l 1,17,-1
 17 0 l 1,18,-1
 17 18 l 1,19,-1
 83 18 l 1,20,-1
 210 218 l 1,21,-1
 58 458 l 1,22,-1
 0 458 l 1,23,-1
 0 476 l 1,24,-1
 338 476 l 1,25,-1
 338 458 l 1,26,-1
 268 458 l 1,27,-1
 367 295 l 1,0,-1
EndSplineSet
EndChar

StartChar: y
Encoding: 121 121 73
Width: 532
Flags: MW
LayerCount: 2
Fore
SplineSet
5 458 m 1,0,-1
 5 476 l 1,1,-1
 295 476 l 1,2,-1
 295 458 l 1,3,-1
 241 458 l 1,4,-1
 350 126 l 1,5,-1
 466 458 l 1,6,-1
 399 458 l 1,7,-1
 399 476 l 1,8,-1
 540 476 l 1,9,-1
 540 458 l 1,10,-1
 490 458 l 1,11,-1
 303 -81 l 2,12,13
 270 -175 270 -175 229 -212.5 c 128,-1,14
 188 -250 188 -250 129 -250 c 0,15,16
 70 -250 70 -250 36 -223 c 128,-1,17
 2 -196 2 -196 2 -154 c 0,18,19
 2 -112 2 -112 24 -90 c 128,-1,20
 46 -68 46 -68 82 -68 c 0,21,22
 165 -68 165 -68 165 -137 c 0,23,24
 165 -152 165 -152 159 -173 c 1,25,-1
 124 -173 l 1,26,27
 116 -196 116 -196 122 -211 c 128,-1,28
 128 -226 128 -226 149 -226 c 0,29,30
 190 -226 190 -226 222 -185.5 c 128,-1,31
 254 -145 254 -145 283 -62 c 2,32,-1
 305 0 l 1,33,-1
 217 0 l 1,34,-1
 46 458 l 1,35,-1
 5 458 l 1,0,-1
EndSplineSet
EndChar

StartChar: z
Encoding: 122 122 74
Width: 520
Flags: MW
LayerCount: 2
Fore
SplineSet
475 476 m 1,0,-1
 475 458 l 1,1,-1
 238 18 l 1,2,-1
 251 18 l 2,3,4
 335 18 335 18 383 62 c 128,-1,5
 431 106 431 106 458 205 c 1,6,-1
 472 205 l 1,7,-1
 456 0 l 1,8,-1
 36 0 l 1,9,-1
 36 15 l 1,10,-1
 277 458 l 1,11,-1
 266 458 l 2,12,13
 165 458 165 458 125.5 425 c 128,-1,14
 86 392 86 392 55 284 c 1,15,-1
 42 284 l 1,16,-1
 55 476 l 1,17,-1
 475 476 l 1,0,-1
EndSplineSet
EndChar

StartChar: bracketleft
Encoding: 91 91 75
Width: 329
Flags: MW
LayerCount: 2
Fore
SplineSet
349 -142 m 1,0,-1
 349 -160 l 1,1,-1
 61 -160 l 1,2,-1
 61 781 l 1,3,-1
 349 781 l 1,4,-1
 349 763 l 1,5,-1
 304 763 l 2,6,7
 267 763 267 763 256.5 754 c 128,-1,8
 246 745 246 745 246 711 c 2,9,-1
 246 -89 l 2,10,11
 246 -126 246 -126 255.5 -134 c 128,-1,12
 265 -142 265 -142 303 -142 c 2,13,-1
 349 -142 l 1,0,-1
EndSplineSet
Position2: "'case' Case-Sensitive Forms lookup 0 per glyph data 0" dx=0 dy=40 dh=0 dv=0
EndChar

StartChar: bracketright
Encoding: 93 93 76
Width: 328
Flags: MW
LayerCount: 2
Fore
SplineSet
-20 -160 m 1,0,-1
 -20 -142 l 1,1,-1
 26 -142 l 2,2,3
 64 -142 64 -142 73.5 -134 c 128,-1,4
 83 -126 83 -126 83 -89 c 2,5,-1
 83 711 l 2,6,7
 83 745 83 745 72.5 754 c 128,-1,8
 62 763 62 763 25 763 c 2,9,-1
 -20 763 l 1,10,-1
 -20 781 l 1,11,-1
 268 781 l 1,12,-1
 268 -160 l 1,13,-1
 -20 -160 l 1,0,-1
EndSplineSet
Position2: "'case' Case-Sensitive Forms lookup 0 per glyph data 0" dx=0 dy=40 dh=0 dv=0
EndChar

StartChar: parenleft
Encoding: 40 40 77
Width: 351
Flags: MW
LayerCount: 2
Fore
SplineSet
70 141 m 128,-1,1
 50 221 50 221 50 321.5 c 128,-1,2
 50 422 50 422 85 526 c 128,-1,3
 120 630 120 630 195 702.5 c 128,-1,4
 270 775 270 775 371 778 c 1,5,-1
 371 758 l 1,6,7
 313.752228164 755.95543672 313.752228164 755.95543672 290 718.5 c 0,8,9
 263.382387022 676.526071842 263.382387022 676.526071842 258.191193511 625.263035921 c 0,10,11
 251 554.25 251 554.25 251 446 c 2,12,-1
 251 159 l 2,13,14
 251 -30.8461538462 251 -30.8461538462 282 -84.5 c 0,15,16
 311.254596888 -135.132956153 311.254596888 -135.132956153 371 -137 c 1,17,-1
 371 -158 l 1,18,19
 292 -157 292 -157 228.5 -116 c 128,-1,20
 165 -75 165 -75 127.5 -7 c 128,-1,0
 90 61 90 61 70 141 c 128,-1,1
EndSplineSet
Position2: "'case' Case-Sensitive Forms lookup 0 per glyph data 0" dx=0 dy=40 dh=0 dv=0
EndChar

StartChar: parenright
Encoding: 41 41 78
Width: 351
Flags: MW
LayerCount: 2
Fore
SplineSet
281 478 m 128,-1,1
 301 398 301 398 301 297.5 c 128,-1,2
 301 197 301 197 266 93 c 128,-1,3
 231 -11 231 -11 156 -83.5 c 128,-1,4
 81 -156 81 -156 -20 -159 c 1,5,-1
 -20 -139 l 1,6,7
 37.247771836 -136.95543672 37.247771836 -136.95543672 61 -99.5 c 0,8,9
 87.617612978 -57.5260718424 87.617612978 -57.5260718424 92.808806489 -6.26303592121 c 0,10,11
 100 64.75 100 64.75 100 173 c 2,12,-1
 100 460 l 2,13,14
 100 649.846153846 100 649.846153846 69 703.5 c 0,15,16
 39.7454031117 754.132956153 39.7454031117 754.132956153 -20 756 c 1,17,-1
 -20 777 l 1,18,19
 59 776 59 776 122.5 735 c 128,-1,20
 186 694 186 694 223.5 626 c 128,-1,0
 261 558 261 558 281 478 c 128,-1,1
EndSplineSet
Position2: "'case' Case-Sensitive Forms lookup 0 per glyph data 0" dx=0 dy=40 dh=0 dv=0
EndChar

StartChar: braceleft
Encoding: 123 123 79
Width: 377
Flags: MW
LayerCount: 2
Fore
SplineSet
24 324 m 1,0,1
 118 326 118 326 118 441 c 0,2,3
 118 482 118 482 103.5 552.5 c 128,-1,4
 89 623 89 623 89 643 c 0,5,6
 89 780 89 780 276 780 c 0,7,8
 333 780 333 780 368 767 c 1,9,-1
 363 751 l 1,10,11
 342 758 342 758 323 758 c 0,12,13
 269 758 269 758 269 693 c 0,14,15
 269 663 269 663 283 573.5 c 128,-1,16
 297 484 297 484 297 450 c 0,17,18
 297 381 297 381 258.5 352.5 c 128,-1,19
 220 324 220 324 127 319 c 1,20,-1
 127 317 l 1,21,22
 216 310 216 310 256.5 280.5 c 128,-1,23
 297 251 297 251 297 180 c 0,24,25
 297 149 297 149 283 53.5 c 128,-1,26
 269 -42 269 -42 269 -75 c 0,27,28
 269 -136 269 -136 328 -136 c 0,29,30
 350 -136 350 -136 372 -128 c 1,31,-1
 377 -144 l 1,32,33
 340 -160 340 -160 291 -160 c 0,34,35
 89 -160 89 -160 89 -15 c 0,36,37
 89 1 89 1 103.5 76.5 c 128,-1,38
 118 152 118 152 118 192 c 0,39,40
 118 306 118 306 24 308 c 1,41,-1
 24 324 l 1,0,1
EndSplineSet
Position2: "'case' Case-Sensitive Forms lookup 0 per glyph data 0" dx=0 dy=40 dh=0 dv=0
EndChar

StartChar: braceright
Encoding: 125 125 80
Width: 377
Flags: MW
LayerCount: 2
Fore
SplineSet
353 324 m 1,0,-1
 353 308 l 1,1,2
 259 306 259 306 259 192 c 0,3,4
 259 152 259 152 273.5 76.5 c 128,-1,5
 288 1 288 1 288 -15 c 0,6,7
 288 -160 288 -160 86 -160 c 0,8,9
 37 -160 37 -160 0 -144 c 1,10,-1
 5 -128 l 1,11,12
 27 -136 27 -136 51.5 -136 c 0,13,14
 108 -136 108 -136 108 -69 c 0,15,16
 108 -42 108 -42 94 53.5 c 128,-1,17
 80 149 80 149 80 180 c 0,18,19
 80 251 80 251 120.5 280.5 c 128,-1,20
 161 310 161 310 250 317 c 1,21,-1
 250 319 l 1,22,23
 157 324 157 324 118.5 352.5 c 128,-1,24
 80 381 80 381 80 450 c 0,25,26
 80 484 80 484 94 573.5 c 128,-1,27
 108 663 108 663 108 693 c 0,28,29
 108 758 108 758 54 758 c 0,30,31
 35 758 35 758 14 751 c 1,32,-1
 9 767 l 1,33,34
 44 780 44 780 101 780 c 0,35,36
 288 780 288 780 288 643 c 0,37,38
 288 623 288 623 273.5 552.5 c 128,-1,39
 259 482 259 482 259 441 c 0,40,41
 259 326 259 326 353 324 c 1,0,-1
EndSplineSet
Position2: "'case' Case-Sensitive Forms lookup 0 per glyph data 0" dx=0 dy=40 dh=0 dv=0
EndChar

StartChar: backslash
Encoding: 92 92 81
Width: 351
Flags: MW
LayerCount: 2
Fore
SplineSet
49 795 m 1,0,-1
 344 -97 l 1,1,-1
 302 -97 l 1,2,-1
 8 795 l 1,3,-1
 49 795 l 1,0,-1
EndSplineSet
EndChar

StartChar: slash
Encoding: 47 47 82
Width: 351
Flags: MW
LayerCount: 2
Fore
SplineSet
8 -97 m 1,0,-1
 303 795 l 1,1,-1
 343 795 l 1,2,-1
 49 -97 l 1,3,-1
 8 -97 l 1,0,-1
EndSplineSet
EndChar

StartChar: brokenbar
Encoding: 166 166 83
Width: 319
Flags: MW
LayerCount: 2
Fore
SplineSet
140 412 m 1,0,-1
 140 795 l 1,1,-1
 179 795 l 1,2,-1
 179 412 l 1,3,-1
 140 412 l 1,0,-1
140 -127 m 1,4,-1
 140 310 l 1,5,-1
 179 310 l 1,6,-1
 179 -127 l 1,7,-1
 140 -127 l 1,4,-1
EndSplineSet
Position2: "'case' Case-Sensitive Forms lookup 0 per glyph data 0" dx=0 dy=40 dh=0 dv=0
EndChar

StartChar: bar
Encoding: 124 124 84
Width: 319
Flags: MW
LayerCount: 2
Fore
SplineSet
140 -127 m 1,0,-1
 140 795 l 1,1,-1
 179 795 l 1,2,-1
 179 -127 l 1,3,-1
 140 -127 l 1,0,-1
EndSplineSet
Position2: "'case' Case-Sensitive Forms lookup 0 per glyph data 0" dx=0 dy=40 dh=0 dv=0
EndChar

StartChar: asciicircum
Encoding: 94 94 85
Width: 560
Flags: MW
LayerCount: 2
Fore
SplineSet
500 300 m 1,0,-1
 463 285 l 1,1,-1
 273 621 l 1,2,-1
 98 284 l 1,3,-1
 60 300 l 1,4,-1
 249 664 l 1,5,-1
 298 664 l 1,6,-1
 500 300 l 1,0,-1
EndSplineSet
EndChar

StartChar: underscore
Encoding: 95 95 86
Width: 500
Flags: MW
LayerCount: 2
Fore
SplineSet
500 -106 m 1,0,-1
 0 -106 l 1,1,-1
 0 -69 l 1,2,-1
 500 -69 l 1,3,-1
 500 -106 l 1,0,-1
EndSplineSet
EndChar

StartChar: asciitilde
Encoding: 126 126 87
Width: 530
Flags: MW
LayerCount: 2
Fore
SplineSet
179 398 m 0,0,1
 211 398 211 398 296 378 c 128,-1,2
 381 358 381 358 410 358 c 0,3,4
 439 358 439 358 452.5 367 c 128,-1,5
 466 376 466 376 478 401 c 1,6,-1
 490 398 l 1,7,8
 464 299 464 299 440.5 268 c 128,-1,9
 417 237 417 237 376 237 c 0,10,11
 335 237 335 237 255 257.5 c 0,12,13
 175 278 175 278 144 278 c 0,14,15
 94 278 94 278 72 235 c 1,16,-1
 60 240 l 1,17,18
 78 316 78 316 104 357 c 128,-1,19
 130 398 130 398 179 398 c 0,0,1
EndSplineSet
EndChar

StartChar: zero
Encoding: 48 48 89
Width: 664
Flags: MW
LayerCount: 2
Fore
SplineSet
105.5 88 m 128,-1,1
 30 186 30 186 30 362 c 128,-1,2
 30 538 30 538 111 624.5 c 128,-1,3
 192 711 192 711 332.5 711 c 128,-1,4
 473 711 473 711 553.5 625 c 128,-1,5
 634 539 634 539 634 351 c 128,-1,6
 634 163 634 163 553 76.5 c 128,-1,7
 472 -10 472 -10 326.5 -10 c 128,-1,0
 181 -10 181 -10 105.5 88 c 128,-1,1
235 388 m 2,8,-1
 235 299 l 2,9,10
 235 202 235 202 236.5 162 c 128,-1,11
 238 122 238 122 247 79 c 128,-1,12
 256 36 256 36 276 23.5 c 128,-1,13
 296 11 296 11 323 11 c 128,-1,14
 350 11 350 11 363.5 14 c 128,-1,15
 377 17 377 17 387.5 26.5 c 128,-1,16
 398 36 398 36 405 45.5 c 128,-1,17
 412 55 412 55 416.5 75 c 128,-1,18
 421 95 421 95 424 112 c 128,-1,19
 427 129 427 129 428 161.5 c 0,20,21
 430 226.5 430 226.5 430 291 c 2,22,-1
 430 379 l 2,23,24
 430 575 430 575 415.5 632.5 c 128,-1,25
 401 690 401 690 333 690 c 128,-1,26
 265 690 265 690 250 631 c 128,-1,27
 235 572 235 572 235 388 c 2,8,-1
EndSplineSet
EndChar

StartChar: one
Encoding: 49 49 90
Width: 425
Flags: MW
LayerCount: 2
Fore
SplineSet
127 674 m 1,0,-1
 17 660 l 1,1,-1
 15 680 l 1,2,-1
 241 711 l 1,3,-1
 322 711 l 1,4,-1
 322 19 l 1,5,-1
 400 19 l 1,6,-1
 400 0 l 1,7,-1
 22 0 l 1,8,-1
 22 19 l 1,9,-1
 127 19 l 1,10,-1
 127 674 l 1,0,-1
EndSplineSet
EndChar

StartChar: two
Encoding: 50 50 91
Width: 552
Flags: MW
LayerCount: 2
Fore
SplineSet
93 668 m 128,-1,1
 151 711 151 711 267 711 c 128,-1,2
 383 711 383 711 445.5 668 c 128,-1,3
 508 625 508 625 508 539 c 0,4,5
 508 511 508 511 503 488.5 c 128,-1,6
 498 466 498 466 480.5 441.5 c 128,-1,7
 463 417 463 417 446.5 398 c 128,-1,8
 430 379 430 379 390 347.5 c 0,9,10
 329.526734653 299.877303539 329.526734653 299.877303539 263.763367326 252.43865177 c 128,-1,11
 198 205 198 205 187 197 c 2,12,-1
 126 153 l 1,13,-1
 366 153 l 2,14,15
 435 153 435 153 464 183 c 128,-1,16
 493 213 493 213 505 277 c 1,17,-1
 522 277 l 1,18,-1
 512 0 l 1,19,-1
 42 0 l 1,20,-1
 42 116 l 1,21,-1
 143 209 l 2,22,23
 246 303 246 303 289 376.5 c 128,-1,24
 332 450 332 450 332 538.5 c 128,-1,25
 332 627 332 627 313 659.5 c 128,-1,26
 294 692 294 692 249 692 c 128,-1,27
 204 692 204 692 186 669 c 128,-1,28
 168 646 168 646 168 625 c 128,-1,29
 168 604 168 604 174 588 c 1,30,-1
 204 588 l 1,31,32
 212 567 212 567 212 537.5 c 128,-1,33
 212 508 212 508 187 486.5 c 128,-1,34
 162 465 162 465 121 465 c 128,-1,35
 80 465 80 465 57.5 491.5 c 128,-1,36
 35 518 35 518 35 558 c 0,37,0
 35 625 35 625 93 668 c 128,-1,1
EndSplineSet
EndChar

StartChar: three
Encoding: 51 51 92
Width: 573
Flags: MW
LayerCount: 2
Fore
SplineSet
102 667.5 m 128,-1,1
 162 711 162 711 280 711 c 0,2,3
 508 711 508 711 508 552 c 0,4,5
 508 487 508 487 454.5 444.5 c 128,-1,6
 401 402 401 402 301 385 c 1,7,-1
 301 383 l 1,8,9
 425 374 425 374 484 325 c 128,-1,10
 543 276 543 276 543 198 c 0,11,12
 543 102 543 102 465.5 46 c 128,-1,13
 388 -10 388 -10 250 -10 c 0,14,15
 196 -10 196 -10 149.5 2 c 128,-1,16
 103 14 103 14 66.5 49.5 c 128,-1,17
 30 85 30 85 30 134 c 128,-1,18
 30 183 30 183 53.5 210 c 128,-1,19
 77 237 77 237 118 237 c 128,-1,20
 159 237 159 237 183 215.5 c 128,-1,21
 207 194 207 194 207 164.5 c 128,-1,22
 207 135 207 135 199 114 c 1,23,-1
 168 114 l 1,24,25
 162 98 162 98 162 81 c 0,26,27
 162 10 162 10 246 10 c 0,28,29
 305 10 305 10 326.5 55 c 128,-1,30
 348 100 348 100 348 185 c 128,-1,31
 348 270 348 270 327.5 308.5 c 128,-1,32
 307 347 307 347 267 367 c 1,33,34
 231 359 231 359 180 354 c 1,35,-1
 177 376 l 1,36,37
 265 385 265 385 292.5 418 c 128,-1,38
 320 451 320 451 320 535.5 c 128,-1,39
 320 620 320 620 303.5 656.5 c 128,-1,40
 287 693 287 693 248 693 c 128,-1,41
 209 693 209 693 192.5 669.5 c 128,-1,42
 176 646 176 646 176 625 c 128,-1,43
 176 604 176 604 182 588 c 1,44,-1
 211 588 l 1,45,46
 219 567 219 567 219 537.5 c 128,-1,47
 219 508 219 508 194 486.5 c 128,-1,48
 169 465 169 465 128 465 c 128,-1,49
 87 465 87 465 64.5 491.5 c 128,-1,50
 42 518 42 518 42 558 c 0,51,0
 42 624 42 624 102 667.5 c 128,-1,1
EndSplineSet
EndChar

StartChar: four
Encoding: 52 52 93
Width: 603
Flags: MW
LayerCount: 2
Fore
SplineSet
182 0 m 1,0,-1
 182 19 l 1,1,-1
 276 19 l 1,2,-1
 276 179 l 1,3,-1
 5 179 l 1,4,-1
 5 198 l 1,5,-1
 287 700 l 1,6,-1
 460 700 l 1,7,-1
 460 203 l 1,8,-1
 559 203 l 1,9,-1
 559 290 l 1,10,-1
 578 290 l 1,11,-1
 578 105 l 1,12,-1
 559 105 l 1,13,-1
 559 179 l 1,14,-1
 460 179 l 1,15,-1
 460 19 l 1,16,-1
 529 19 l 1,17,-1
 529 0 l 1,18,-1
 182 0 l 1,0,-1
37 203 m 1,19,-1
 276 203 l 1,20,-1
 276 624 l 1,21,-1
 37 203 l 1,19,-1
EndSplineSet
EndChar

StartChar: five
Encoding: 53 53 94
Width: 540
Flags: MW
LayerCount: 2
Fore
SplineSet
291.5 367 m 128,-1,1
 275 405 275 405 217 405 c 128,-1,2
 159 405 159 405 90 362 c 1,3,-1
 73 370 l 1,4,-1
 73 689 l 1,5,-1
 89 701 l 1,6,7
 150 692 150 692 274 679.5 c 128,-1,8
 398 667 398 667 417.5 667 c 128,-1,9
 437 667 437 667 445.5 676.5 c 128,-1,10
 454 686 454 686 460 709 c 1,11,-1
 475 707 l 1,12,13
 459.918767507 554.302521008 459.918767507 554.302521008 435.5 525 c 0,14,15
 423 510 423 510 403 510 c 128,-1,16
 383 510 383 510 319 527 c 2,17,-1
 101 584 l 1,18,-1
 96 390 l 1,19,20
 169 429 169 429 247 429 c 128,-1,21
 325 429 325 429 377 411.5 c 128,-1,22
 429 394 429 394 457 363 c 0,23,24
 510 304.321428571 510 304.321428571 510 220 c 0,25,26
 510 113 510 113 433.5 51.5 c 128,-1,27
 357 -10 357 -10 223 -10 c 0,28,29
 151 -10 151 -10 90 20.5 c 0,30,31
 57 37 57 37 36.5 68.5 c 128,-1,32
 16 100 16 100 16 141.5 c 128,-1,33
 16 183 16 183 39.5 210 c 128,-1,34
 63 237 63 237 104.5 237 c 128,-1,35
 146 237 146 237 169.5 216.5 c 128,-1,36
 193 196 193 196 193 163.5 c 128,-1,37
 193 131 193 131 184 108 c 1,38,-1
 151 108 l 1,39,40
 145 92 145 92 145 70.5 c 128,-1,41
 145 49 145 49 162 29.5 c 128,-1,42
 179 10 179 10 212 10 c 128,-1,43
 245 10 245 10 262 20.5 c 128,-1,44
 279 31 279 31 288 46 c 128,-1,45
 297 61 297 61 301.5 93 c 0,46,47
 308 139.222222222 308 139.222222222 308 234.111111111 c 128,-1,0
 308 329 308 329 291.5 367 c 128,-1,1
EndSplineSet
EndChar

StartChar: six
Encoding: 54 54 95
Width: 616
Flags: MW
LayerCount: 2
Fore
SplineSet
34 308 m 0,0,1
 34 501 34 501 120.5 606 c 128,-1,2
 207 711 207 711 358 711 c 0,3,4
 461 711 461 711 516 669.5 c 128,-1,5
 571 628 571 628 571 561 c 0,6,7
 571 523 571 523 546.5 495.5 c 128,-1,8
 522 468 522 468 482 468 c 128,-1,9
 442 468 442 468 418 489.5 c 128,-1,10
 394 511 394 511 394 540.5 c 128,-1,11
 394 570 394 570 402 592 c 1,12,-1
 434 592 l 1,13,14
 440 608 440 608 440 628 c 0,15,16
 440 691 440 691 369 691 c 128,-1,17
 298 691 298 691 265 617.5 c 128,-1,18
 232 544 232 544 231 364 c 1,19,20
 283 445 283 445 382 445 c 128,-1,21
 481 445 481 445 538 391.5 c 128,-1,22
 595 338 595 338 595 231 c 128,-1,23
 595 124 595 124 520 57 c 128,-1,24
 445 -10 445 -10 319 -10 c 0,25,26
 34 -10 34 -10 34 308 c 0,0,1
273.5 386.5 m 128,-1,28
 250 361 250 361 241.5 326.5 c 128,-1,29
 233 292 233 292 233 236.5 c 128,-1,30
 233 181 233 181 233.5 159.5 c 128,-1,31
 234 138 234 138 236.5 108.5 c 128,-1,32
 239 79 239 79 244 65.5 c 128,-1,33
 249 52 249 52 258 37 c 0,34,35
 273.6 11 273.6 11 308.8 11 c 128,-1,36
 344 11 344 11 361.5 24.5 c 128,-1,37
 379 38 379 38 387 69.5 c 0,38,39
 399 116.75 399 116.75 399 186.875 c 128,-1,40
 399 257 399 257 398.5 280 c 128,-1,41
 398 303 398 303 396 328.5 c 128,-1,42
 394 354 394 354 389.5 367 c 128,-1,43
 385 380 385 380 377.5 392 c 0,44,45
 365 412 365 412 331 412 c 128,-1,27
 297 412 297 412 273.5 386.5 c 128,-1,28
EndSplineSet
EndChar

StartChar: seven
Encoding: 55 55 96
Width: 510
Flags: MW
LayerCount: 2
Fore
SplineSet
150 19.5 m 128,-1,1
 119 49 119 49 119 92.5 c 128,-1,2
 119 136 119 136 148.5 188.5 c 128,-1,3
 178 241 178 241 277 356 c 2,4,-1
 442 547 l 1,5,-1
 186 547 l 2,6,7
 115 547 115 547 92.5 529.5 c 128,-1,8
 70 512 70 512 57 446 c 1,9,-1
 41 446 l 1,10,-1
 52 700 l 1,11,-1
 500 700 l 1,12,-1
 500 592 l 1,13,-1
 389 398 l 2,14,15
 315 267 315 267 294.5 210.5 c 128,-1,16
 274 154 274 154 274 103 c 128,-1,17
 274 52 274 52 304 9 c 1,18,-1
 297 -3 l 1,19,20
 269 -10 269 -10 235 -10 c 0,21,0
 181 -10 181 -10 150 19.5 c 128,-1,1
EndSplineSet
EndChar

StartChar: eight
Encoding: 56 56 97
Width: 611
Flags: MW
LayerCount: 2
Fore
SplineSet
249 368 m 1,0,1
 152 373 152 373 98 416.5 c 128,-1,2
 44 460 44 460 44 529 c 0,3,4
 44 613 44 613 111 662 c 128,-1,5
 178 711 178 711 307 711 c 128,-1,6
 436 711 436 711 502 665 c 128,-1,7
 568 619 568 619 568 541.5 c 128,-1,8
 568 464 568 464 517 419.5 c 128,-1,9
 466 375 466 375 370 368 c 1,10,-1
 370 365 l 1,11,12
 586 347 586 347 586 182 c 0,13,14
 586 86 586 86 518.5 38 c 128,-1,15
 451 -10 451 -10 308 -10 c 0,16,17
 25 -10 25 -10 25 181 c 0,18,19
 25 350 25 350 249 365 c 1,20,-1
 249 368 l 1,0,1
377 315 m 128,-1,22
 359 355 359 355 307.5 355 c 128,-1,23
 256 355 256 355 238 314.5 c 128,-1,24
 220 274 220 274 220 181.5 c 128,-1,25
 220 89 220 89 237.5 50 c 128,-1,26
 255 11 255 11 308 11 c 128,-1,27
 361 11 361 11 378 50.5 c 128,-1,28
 395 90 395 90 395 182.5 c 128,-1,21
 395 275 395 275 377 315 c 128,-1,22
251.5 654.5 m 128,-1,30
 239 619 239 619 239 558.5 c 128,-1,31
 239 498 239 498 240 477.5 c 128,-1,32
 241 457 241 457 244.5 435 c 128,-1,33
 248 413 248 413 255.5 402.5 c 0,34,35
 273 378 273 378 311 378 c 0,36,37
 345.2 378 345.2 378 362 402 c 0,38,39
 374.959839357 420.514056225 374.959839357 420.514056225 375.979919679 458.257028112 c 128,-1,40
 377 496 377 496 377 557.5 c 128,-1,41
 377 619 377 619 364.5 654.5 c 128,-1,42
 352 690 352 690 308 690 c 128,-1,29
 264 690 264 690 251.5 654.5 c 128,-1,30
EndSplineSet
EndChar

StartChar: nine
Encoding: 57 57 98
Width: 616
Flags: MW
LayerCount: 2
Fore
SplineSet
584 393 m 0,0,1
 584 199 584 199 499.5 94.5 c 128,-1,2
 415 -10 415 -10 265 -10 c 0,3,4
 160 -10 160 -10 100.5 30 c 128,-1,5
 41 70 41 70 41 134 c 0,6,7
 41 174 41 174 65.5 203.5 c 128,-1,8
 90 233 90 233 130.5 233 c 128,-1,9
 171 233 171 233 194.5 211.5 c 128,-1,10
 218 190 218 190 218 160.5 c 128,-1,11
 218 131 218 131 210 109 c 1,12,-1
 180 109 l 1,13,14
 173 94 173 94 173 70.5 c 128,-1,15
 173 47 173 47 194.5 28.5 c 128,-1,16
 216 10 216 10 258 10 c 0,17,18
 325 10 325 10 355.5 83 c 128,-1,19
 386 156 386 156 387 337 c 1,20,21
 335 256 335 256 229 256 c 0,22,23
 139 256 139 256 81 314 c 128,-1,24
 23 372 23 372 23 473 c 0,25,26
 23 593 23 593 102.5 652 c 128,-1,27
 182 711 182 711 306 711 c 0,28,29
 584 711 584 711 584 393 c 0,0,1
344.5 314.5 m 128,-1,31
 368 340 368 340 376.5 374.5 c 128,-1,32
 385 409 385 409 385 464.5 c 128,-1,33
 385 520 385 520 384.5 541.5 c 128,-1,34
 384 563 384 563 382 592.5 c 128,-1,35
 380 622 380 622 375 635.5 c 128,-1,36
 370 649 370 649 361.5 664 c 0,37,38
 346.766666667 690 346.766666667 690 307 690 c 0,39,40
 261.6 690 261.6 690 240 654 c 0,41,42
 222.857142857 625.428571429 222.857142857 625.428571429 220 554 c 0,43,44
 219 529 219 529 219 486.5 c 128,-1,45
 219 444 219 444 219.5 421 c 128,-1,46
 220 398 220 398 222 372.5 c 128,-1,47
 224 347 224 347 228.5 334 c 128,-1,48
 233 321 233 321 240.5 309 c 0,49,50
 253 289 253 289 287 289 c 128,-1,30
 321 289 321 289 344.5 314.5 c 128,-1,31
EndSplineSet
EndChar

StartChar: cent
Encoding: 162 162 99
Width: 515
Flags: MW
LayerCount: 2
Fore
SplineSet
312 511 m 0,0,1
 271 511 271 511 251.5 466.5 c 128,-1,2
 232 422 232 422 232 322 c 2,3,-1
 232 275 l 2,4,5
 232 186 232 186 254 147 c 128,-1,6
 276 108 276 108 331.5 108 c 128,-1,7
 387 108 387 108 419 144.5 c 128,-1,8
 451 181 451 181 460 228 c 1,9,-1
 479 224 l 1,10,11
 466.97752809 169.898876404 466.97752809 169.898876404 434.5 129.5 c 0,12,13
 390.68627451 75 390.68627451 75 279 75 c 0,14,15
 246 75 246 75 222 79 c 1,16,-1
 199 -26 l 1,17,-1
 171 -20 l 1,18,-1
 194 85 l 1,19,20
 54 125 54 125 54 296 c 0,21,22
 54 409 54 409 120.5 468.5 c 128,-1,23
 187 528 187 528 305 528 c 2,24,-1
 314 528 l 1,25,-1
 338 635 l 1,26,-1
 366 630 l 1,27,-1
 343 526 l 1,28,29
 407 519 407 519 441.5 487.5 c 128,-1,30
 476 456 476 456 476 410 c 0,31,32
 476 325 476 325 401 325 c 128,-1,33
 326 325 326 325 326 400 c 0,34,35
 326 417 326 417 331 433 c 1,36,-1
 362 433 l 1,37,38
 368 451 368 451 368 469.5 c 128,-1,39
 368 488 368 488 351 499.5 c 128,-1,40
 334 511 334 511 312 511 c 0,0,1
EndSplineSet
EndChar

StartChar: sterling
Encoding: 163 163 100
Width: 581
Flags: MW
LayerCount: 2
Fore
SplineSet
36 298 m 1,0,-1
 36 326 l 1,1,-1
 113 326 l 1,2,3
 93 360 93 360 82.5 380 c 128,-1,4
 72 400 72 400 61 435 c 128,-1,5
 50 470 50 470 50 503 c 0,6,7
 50 602 50 602 121.5 656.5 c 128,-1,8
 193 711 193 711 307 711 c 0,9,10
 421 711 421 711 477.5 668 c 128,-1,11
 534 625 534 625 534 558 c 0,12,13
 534 518 534 518 511.5 491.5 c 128,-1,14
 489 465 489 465 448 465 c 0,15,16
 407 465 407 465 382 486.5 c 128,-1,17
 357 508 357 508 357 537.5 c 0,18,19
 357 567 357 567 365 588 c 1,20,-1
 396 588 l 1,21,22
 402 604 402 604 402 622 c 0,23,24
 402 692 402 692 329 692 c 0,25,26
 274 692 274 692 259.5 656.5 c 128,-1,27
 245 621 245 621 245 530 c 2,28,-1
 245 326 l 1,29,-1
 421 326 l 1,30,-1
 421 298 l 1,31,-1
 245 298 l 1,32,-1
 245 268 l 2,33,34
 245 217 245 217 225 184.5 c 128,-1,35
 205 152 205 152 153 101 c 1,36,-1
 156 96 l 1,37,38
 251 160 251 160 302 160 c 0,39,40
 337 160 337 160 398 127.5 c 128,-1,41
 459 95 459 95 480.5 95 c 0,42,43
 502 95 502 95 514 114.5 c 128,-1,44
 526 134 526 134 530 187 c 1,45,-1
 551 186 l 1,46,47
 547 90 547 90 509.5 35.5 c 128,-1,48
 472 -19 472 -19 421 -19 c 0,49,50
 370 -19 370 -19 315 8 c 2,51,-1
 163 80 l 1,52,53
 157 35 157 35 132.5 12 c 128,-1,54
 108 -11 108 -11 77 -11 c 0,55,56
 46 -11 46 -11 34.5 2 c 128,-1,57
 23 15 23 15 23 33 c 0,58,59
 23 64 23 64 53.5 85.5 c 128,-1,60
 84 107 84 107 131 108 c 1,61,62
 153 151 153 151 153 194.5 c 0,63,64
 153 238 153 238 125 298 c 1,65,-1
 36 298 l 1,0,-1
EndSplineSet
EndChar

StartChar: dollar
Encoding: 36 36 101
Width: 565
Flags: MW
LayerCount: 2
Fore
SplineSet
258 691 m 1,0,-1
 281 692 l 2,1,2
 302 692 302 692 320 689 c 1,3,-1
 320 770 l 1,4,-1
 348 770 l 1,5,-1
 348 685 l 1,6,7
 367 681 367 681 399 671.5 c 128,-1,8
 431 662 431 662 445.5 662 c 128,-1,9
 460 662 460 662 469 682 c 1,10,-1
 479 682 l 1,11,-1
 486 485 l 1,12,-1
 471 485 l 1,13,14
 408 606 408 606 348 646 c 1,15,-1
 348 440 l 1,16,17
 430 413 430 413 477.5 365 c 128,-1,18
 525 317 525 317 525 224 c 128,-1,19
 525 131 525 131 477.5 69.5 c 128,-1,20
 430 8 430 8 348 -6 c 1,21,-1
 348 -71 l 1,22,-1
 320 -71 l 1,23,-1
 320 -9 l 1,24,25
 314 -10 314 -10 296.5 -10 c 128,-1,26
 279 -10 279 -10 258 -7 c 1,27,-1
 258 -71 l 1,28,-1
 230 -71 l 1,29,-1
 230 -4 l 1,30,-1
 111 19 l 1,31,32
 95 19 95 19 84 -10 c 1,33,-1
 71 -10 l 1,34,-1
 62 222 l 1,35,-1
 78 222 l 1,36,37
 140 87 140 87 230 35 c 1,38,-1
 230 260 l 1,39,40
 150 288 150 288 107.5 337.5 c 128,-1,41
 65 387 65 387 65 471.5 c 128,-1,42
 65 556 65 556 108.5 614 c 128,-1,43
 152 672 152 672 230 687 c 1,44,-1
 230 770 l 1,45,-1
 258 770 l 1,46,-1
 258 691 l 1,0,-1
312 11 m 2,47,-1
 320 11 l 1,48,-1
 320 230 l 1,49,50
 298 239 298 239 259 251 c 1,51,-1
 258 251 l 1,52,-1
 258 22 l 1,53,54
 285 11 285 11 312 11 c 2,47,-1
258 467 m 1,55,56
 298 454 298 454 320 449 c 1,57,-1
 320 661 l 1,58,59
 295 672 295 672 278 672 c 128,-1,60
 261 672 261 672 258 671 c 1,61,-1
 258 467 l 1,55,56
430 113 m 0,62,63
 430 180 430 180 348 219 c 1,64,-1
 348 15 l 1,65,66
 384 24 384 24 407 49 c 128,-1,67
 430 74 430 74 430 113 c 0,62,63
155 573 m 0,68,69
 155 510 155 510 230 478 c 1,70,-1
 230 667 l 1,71,72
 196 657 196 657 175.5 632 c 128,-1,73
 155 607 155 607 155 573 c 0,68,69
EndSplineSet
EndChar

StartChar: yen
Encoding: 165 165 102
Width: 609
Flags: MW
LayerCount: 2
Fore
SplineSet
387 391 m 1,0,-1
 529 684 l 1,1,-1
 428 684 l 1,2,-1
 428 700 l 1,3,-1
 625 700 l 1,4,-1
 625 684 l 1,5,-1
 559 684 l 1,6,-1
 411 377 l 1,7,-1
 528 377 l 1,8,-1
 528 349 l 1,9,-1
 408 349 l 1,10,-1
 408 276 l 1,11,-1
 528 276 l 1,12,-1
 528 248 l 1,13,-1
 408 248 l 1,14,-1
 408 19 l 1,15,-1
 469 19 l 1,16,-1
 469 0 l 1,17,-1
 152 0 l 1,18,-1
 152 19 l 1,19,-1
 213 19 l 1,20,-1
 213 248 l 1,21,-1
 99 248 l 1,22,-1
 99 276 l 1,23,-1
 213 276 l 1,24,-1
 213 349 l 1,25,-1
 99 349 l 1,26,-1
 99 377 l 1,27,-1
 199 377 l 1,28,-1
 43 684 l 1,29,-1
 -4 684 l 1,30,-1
 -4 700 l 1,31,-1
 316 700 l 1,32,-1
 316 684 l 1,33,-1
 251 684 l 1,34,-1
 387 391 l 1,0,-1
EndSplineSet
EndChar

StartChar: Euro
Encoding: 8364 8364 103
Width: 612
Flags: MW
LayerCount: 2
Fore
SplineSet
387 691 m 0,0,1
 324 691 324 691 304 640.5 c 128,-1,2
 284 590 284 590 282 427 c 1,3,-1
 483 427 l 1,4,-1
 477 399 l 1,5,-1
 282 399 l 1,6,-1
 282 319 l 1,7,-1
 462 319 l 1,8,-1
 456 291 l 1,9,-1
 282 291 l 1,10,11
 283 131 283 131 304.5 70.5 c 128,-1,12
 326 10 326 10 391 10 c 0,13,14
 430 10 430 10 450.5 25.5 c 128,-1,15
 471 41 471 41 471 61 c 0,16,17
 471 81 471 81 466 92 c 1,18,-1
 436 92 l 1,19,20
 429 113 429 113 429 140.5 c 0,21,22
 429 168 429 168 451.5 187.5 c 128,-1,23
 474 207 474 207 509.5 207 c 0,24,25
 545 207 545 207 565 183.5 c 128,-1,26
 585 160 585 160 585 125 c 0,27,28
 585 68 585 68 530.5 29 c 128,-1,29
 476 -10 476 -10 386 -10 c 0,30,31
 251 -10 251 -10 170.5 64.5 c 128,-1,32
 90 139 90 139 79 291 c 1,33,-1
 11 291 l 1,34,-1
 17 319 l 1,35,-1
 77 319 l 1,36,-1
 77 340 l 2,37,38
 77 361 77 361 79 399 c 1,39,-1
 25 399 l 1,40,-1
 31 427 l 1,41,-1
 82 427 l 1,42,43
 101 567 101 567 179 639 c 128,-1,44
 257 711 257 711 378 711 c 0,45,46
 472 711 472 711 526 672.5 c 128,-1,47
 580 634 580 634 580 576 c 0,48,49
 580 541 580 541 560 517.5 c 128,-1,50
 540 494 540 494 504.5 494 c 0,51,52
 469 494 469 494 446.5 513.5 c 128,-1,53
 424 533 424 533 424 557.5 c 0,54,55
 424 582 424 582 431 603 c 1,56,-1
 460 603 l 1,57,58
 471 640 471 640 447.5 665.5 c 128,-1,59
 424 691 424 691 387 691 c 0,0,1
EndSplineSet
EndChar

StartChar: florin
Encoding: 402 402 104
Width: 549
Flags: MW
LayerCount: 2
Fore
SplineSet
411 694 m 0,0,1
 377 694 377 694 360.5 665.5 c 128,-1,2
 344 637 344 637 332 574 c 2,3,-1
 302 406 l 1,4,-1
 444 406 l 1,5,-1
 441 388 l 1,6,-1
 299 388 l 1,7,-1
 246 83 l 2,8,9
 222 -55 222 -55 150.5 -133 c 128,-1,10
 79 -211 79 -211 -36 -211 c 0,11,12
 -110 -211 -110 -211 -145.5 -181 c 128,-1,13
 -181 -151 -181 -151 -181 -108.5 c 0,14,15
 -181 -66 -181 -66 -157 -39 c 128,-1,16
 -133 -12 -133 -12 -93 -12 c 0,17,18
 -53 -12 -53 -12 -34 -30 c 128,-1,19
 -15 -48 -15 -48 -15 -74 c 0,20,21
 -15 -100 -15 -100 -29 -126 c 1,22,-1
 -67 -126 l 1,23,24
 -81 -146 -81 -146 -81 -162 c 128,-1,25
 -81 -178 -81 -178 -68 -186 c 128,-1,26
 -55 -194 -55 -194 -37 -194 c 0,27,28
 -3 -194 -3 -194 13.5 -165.5 c 128,-1,29
 30 -137 30 -137 42 -74 c 2,30,-1
 123 388 l 1,31,-1
 65 388 l 1,32,-1
 68 406 l 1,33,-1
 126 406 l 1,34,35
 151 550 151 550 222 630.5 c 128,-1,36
 293 711 293 711 410 711 c 0,37,38
 484 711 484 711 519.5 681 c 128,-1,39
 555 651 555 651 555 608.5 c 0,40,41
 555 566 555 566 531 539 c 128,-1,42
 507 512 507 512 467 512 c 0,43,44
 427 512 427 512 408 530 c 128,-1,45
 389 548 389 548 389 574 c 0,46,47
 389 600 389 600 403 626 c 1,48,-1
 441 626 l 1,49,50
 455 646 455 646 455 662 c 128,-1,51
 455 678 455 678 442 686 c 128,-1,52
 429 694 429 694 411 694 c 0,0,1
EndSplineSet
EndChar

StartChar: afii61352
Encoding: 8470 8470 105
Width: 1072
Flags: MW
LayerCount: 2
Fore
SplineSet
660 573 m 2,0,-1
 660 -7 l 1,1,-1
 525 -7 l 1,2,-1
 216 577 l 1,3,-1
 216 142 l 2,4,5
 216 54 216 54 187 22 c 128,-1,6
 158 -10 158 -10 107.5 -10 c 128,-1,7
 57 -10 57 -10 33 16 c 128,-1,8
 9 42 9 42 9 75.5 c 128,-1,9
 9 109 9 109 27 130.5 c 128,-1,10
 45 152 45 152 76 152 c 128,-1,11
 107 152 107 152 122 138 c 128,-1,12
 137 124 137 124 137 103 c 128,-1,13
 137 82 137 82 125 58 c 1,14,-1
 95 58 l 1,15,16
 84 43 84 43 84 33 c 0,17,18
 84 9 84 9 110 9 c 0,19,20
 189 9 189 9 189 128 c 2,21,-1
 189 619 l 1,22,-1
 155 681 l 1,23,-1
 93 681 l 1,24,-1
 93 700 l 1,25,-1
 376 700 l 1,26,-1
 632 209 l 1,27,-1
 632 559 l 2,28,29
 632 711 632 711 744 711 c 0,30,31
 791 711 791 711 815 685 c 128,-1,32
 839 659 839 659 839 625.5 c 128,-1,33
 839 592 839 592 822 570.5 c 128,-1,34
 805 549 805 549 774.5 549 c 128,-1,35
 744 549 744 549 727.5 563 c 128,-1,36
 711 577 711 577 711 598 c 128,-1,37
 711 619 711 619 723 643 c 1,38,-1
 753 643 l 1,39,40
 764 658 764 658 764 668 c 0,41,42
 764 692 764 692 736 692 c 128,-1,43
 708 692 708 692 684 663.5 c 128,-1,44
 660 635 660 635 660 573 c 2,0,-1
773.5 199.5 m 128,-1,46
 729 246 729 246 729 324 c 128,-1,47
 729 402 729 402 777 449 c 128,-1,48
 825 496 825 496 895 496 c 128,-1,49
 965 496 965 496 1011.5 454 c 128,-1,50
 1058 412 1058 412 1058 328.5 c 128,-1,51
 1058 245 1058 245 1008.5 199 c 128,-1,52
 959 153 959 153 888.5 153 c 128,-1,45
 818 153 818 153 773.5 199.5 c 128,-1,46
860 448 m 128,-1,54
 853 417 853 417 853 343.5 c 128,-1,55
 853 270 853 270 853.5 249 c 128,-1,56
 854 228 854 228 858 205 c 128,-1,57
 862 182 862 182 870.5 175 c 128,-1,58
 879 168 879 168 895.5 168 c 128,-1,59
 912 168 912 168 921 176 c 128,-1,60
 930 184 930 184 934 208.5 c 0,61,62
 940 245.25 940 245.25 940 332.125 c 128,-1,63
 940 419 940 419 933.5 449 c 128,-1,64
 927 479 927 479 897 479 c 128,-1,53
 867 479 867 479 860 448 c 128,-1,54
752 88 m 1,65,-1
 752 111 l 1,66,-1
 1037 111 l 1,67,-1
 1037 88 l 1,68,-1
 752 88 l 1,65,-1
EndSplineSet
EndChar

StartChar: currency
Encoding: 164 164 106
Width: 530
Flags: MW
LayerCount: 2
Fore
SplineSet
127 236 m 1,0,1
 99 277 99 277 99 334.5 c 128,-1,2
 99 392 99 392 128 436 c 1,3,-1
 51 525 l 1,4,-1
 70 543 l 1,5,-1
 160 472 l 1,6,7
 206 503 206 503 265 503 c 128,-1,8
 324 503 324 503 362 473 c 1,9,-1
 452 542 l 1,10,-1
 469 526 l 1,11,-1
 394 441 l 1,12,13
 422 399 422 399 422 344.5 c 128,-1,14
 422 290 422 290 392 243 c 1,15,-1
 467 145 l 1,16,-1
 449 128 l 1,17,-1
 355 205 l 1,18,19
 318 176 318 176 259.5 176 c 128,-1,20
 201 176 201 176 162 203 c 1,21,-1
 73 129 l 1,22,-1
 55 147 l 1,23,-1
 127 236 l 1,0,1
169 436 m 128,-1,25
 138 398 138 398 138 339 c 128,-1,26
 138 280 138 280 167.5 243.5 c 128,-1,27
 197 207 197 207 258.5 207 c 128,-1,28
 320 207 320 207 351.5 245 c 128,-1,29
 383 283 383 283 383 341.5 c 128,-1,30
 383 400 383 400 352.5 437 c 128,-1,31
 322 474 322 474 261 474 c 128,-1,24
 200 474 200 474 169 436 c 128,-1,25
EndSplineSet
EndChar

StartChar: section
Encoding: 167 167 107
Width: 699
Flags: MW
LayerCount: 2
Fore
SplineSet
157 635 m 128,-1,1
 244 711 244 711 358.5 711 c 128,-1,2
 473 711 473 711 526.5 672.5 c 128,-1,3
 580 634 580 634 580 568 c 0,4,5
 580 528 580 528 557.5 501.5 c 128,-1,6
 535 475 535 475 494 475 c 128,-1,7
 453 475 453 475 428 496.5 c 128,-1,8
 403 518 403 518 403 547.5 c 128,-1,9
 403 577 403 577 411 598 c 1,10,-1
 447 606 l 1,11,12
 453 622 453 622 453 642 c 0,13,14
 453 692 453 692 374 692 c 0,15,16
 305.5 692 305.5 692 280.5 634 c 0,17,18
 258.913284133 583.918819188 258.913284133 583.918819188 255 490 c 1,19,20
 341 472 341 472 403 448.5 c 128,-1,21
 465 425 465 425 516 388 c 0,22,23
 619 313.274509804 619 313.274509804 619 169.137254902 c 128,-1,24
 619 25 619 25 532 -51 c 128,-1,25
 445 -127 445 -127 330.5 -127 c 128,-1,26
 216 -127 216 -127 162.5 -88.5 c 128,-1,27
 109 -50 109 -50 109 16 c 0,28,29
 109 56 109 56 131.5 82.5 c 128,-1,30
 154 109 154 109 195 109 c 128,-1,31
 236 109 236 109 261 87.5 c 128,-1,32
 286 66 286 66 286 36.5 c 128,-1,33
 286 7 286 7 278 -14 c 1,34,-1
 242 -22 l 1,35,36
 236 -38 236 -38 236 -58 c 0,37,38
 236 -108 236 -108 315 -108 c 0,39,40
 381 -108 381 -108 405.5 -56.5 c 128,-1,41
 430 -5 430 -5 433 94 c 1,42,43
 347 112 347 112 285 135.5 c 128,-1,44
 223 159 223 159 172 196 c 0,45,46
 70 270 70 270 70 414.5 c 128,-1,0
 70 559 70 559 157 635 c 128,-1,1
434 155 m 2,47,48
 434 280 434 280 393.5 353 c 128,-1,49
 353 426 353 426 255 465 c 1,50,-1
 255 429 l 2,51,52
 255 304 255 304 295 230.5 c 128,-1,53
 335 157 335 157 434 118 c 1,54,-1
 434 155 l 2,47,48
EndSplineSet
EndChar

StartChar: copyright
Encoding: 169 169 108
Width: 781
Flags: MW
LayerCount: 2
Fore
SplineSet
632.5 550.5 m 128,-1,1
 721 465 721 465 721 316.5 c 128,-1,2
 721 168 721 168 630 78.5 c 128,-1,3
 539 -11 539 -11 385 -11 c 128,-1,4
 231 -11 231 -11 145.5 76 c 128,-1,5
 60 163 60 163 60 310 c 128,-1,6
 60 457 60 457 155 546.5 c 128,-1,7
 250 636 250 636 397 636 c 128,-1,0
 544 636 544 636 632.5 550.5 c 128,-1,1
613.5 93 m 128,-1,9
 696 174 696 174 696 316 c 128,-1,10
 696 458 696 458 612 536 c 128,-1,11
 528 614 528 614 393 614 c 128,-1,12
 258 614 258 614 172 532 c 128,-1,13
 86 450 86 450 86 309 c 128,-1,14
 86 168 86 168 166.5 90 c 128,-1,15
 247 12 247 12 389 12 c 128,-1,8
 531 12 531 12 613.5 93 c 128,-1,9
472.5 466 m 128,-1,17
 444 496 444 496 411.5 496 c 128,-1,18
 379 496 379 496 365.5 461 c 128,-1,19
 352 426 352 426 352 320.5 c 128,-1,20
 352 215 352 215 365 177.5 c 128,-1,21
 378 140 378 140 415 140 c 128,-1,22
 452 140 452 140 480 171 c 128,-1,23
 508 202 508 202 524 247 c 1,24,-1
 536 247 l 1,25,-1
 532 128 l 1,26,-1
 522 128 l 1,27,28
 519.5 130.5 519.5 130.5 518.25 134.25 c 128,-1,29
 517 138 517 138 515.5 139.5 c 0,30,31
 512 143 512 143 508 143 c 1,32,-1
 473 132.5 l 2,33,34
 438 122 438 122 407 122 c 0,35,36
 314 122 314 122 261 170.5 c 128,-1,37
 208 219 208 219 208 315.5 c 128,-1,38
 208 412 208 412 263 463 c 128,-1,39
 318 514 318 514 411 514 c 0,40,41
 438 514 438 514 470.5 504 c 128,-1,42
 503 494 503 494 505.5 494 c 128,-1,43
 508 494 508 494 510 495.5 c 128,-1,44
 512 497 512 497 513 498.5 c 128,-1,45
 514 500 514 500 516 504 c 128,-1,46
 518 508 518 508 519 509 c 1,47,-1
 528 509 l 1,48,-1
 531 390 l 1,49,-1
 517 390 l 1,50,16
 501 436 501 436 472.5 466 c 128,-1,17
EndSplineSet
Position2: "'case' Case-Sensitive Forms lookup 0 per glyph data 0" dx=0 dy=40 dh=0 dv=0
EndChar

StartChar: registered
Encoding: 174 174 109
Width: 459
Flags: MW
LayerCount: 2
Fore
SplineSet
368 612.5 m 128,-1,1
 419 563 419 563 419 479.5 c 128,-1,2
 419 396 419 396 366 344 c 128,-1,3
 313 292 313 292 225.5 292 c 128,-1,4
 138 292 138 292 89 342.5 c 128,-1,5
 40 393 40 393 40 476 c 128,-1,6
 40 559 40 559 94.5 610.5 c 128,-1,7
 149 662 149 662 233 662 c 128,-1,0
 317 662 317 662 368 612.5 c 128,-1,1
349.5 358 m 128,-1,9
 394 402 394 402 394 478 c 128,-1,10
 394 554 394 554 348 597.5 c 128,-1,11
 302 641 302 641 229.5 641 c 128,-1,12
 157 641 157 641 111.5 596 c 128,-1,13
 66 551 66 551 66 475 c 128,-1,14
 66 399 66 399 109 356.5 c 128,-1,15
 152 314 152 314 228.5 314 c 128,-1,8
 305 314 305 314 349.5 358 c 128,-1,9
226 482 m 2,16,-1
 223 482 l 1,17,-1
 223 395 l 1,18,-1
 231 395 l 1,19,-1
 231 387 l 1,20,-1
 132 387 l 1,21,-1
 132 395 l 1,22,-1
 154 395 l 1,23,-1
 154 571 l 1,24,-1
 132 571 l 1,25,-1
 132 579 l 1,26,-1
 236 579 l 2,27,28
 275 579 275 579 293.5 570 c 128,-1,29
 312 561 312 561 312 534 c 0,30,31
 312 492 312 492 248 487 c 1,32,-1
 248 486 l 1,33,34
 286 484 286 484 300 473.5 c 128,-1,35
 314 463 314 463 314 439 c 2,36,-1
 314 416 l 2,37,38
 314 400 314 400 323 400 c 0,39,40
 337 400 337 400 341 434 c 1,41,-1
 349 433 l 1,42,43
 346 407 346 407 335 395.5 c 128,-1,44
 324 384 324 384 295 384 c 0,45,46
 246 384 246 384 246 421 c 2,47,-1
 246 450 l 2,48,49
 246 469 246 469 242 475.5 c 128,-1,50
 238 482 238 482 226 482 c 2,16,-1
223 571 m 1,51,-1
 223 492 l 1,52,-1
 226 492 l 2,53,54
 242 492 242 492 247 501 c 128,-1,55
 252 510 252 510 252 532 c 128,-1,56
 252 554 252 554 247.5 562.5 c 128,-1,57
 243 571 243 571 228 571 c 2,58,-1
 223 571 l 1,51,-1
EndSplineSet
EndChar

StartChar: trademark
Encoding: 8482 8482 110
Width: 934
Flags: MW
LayerCount: 2
Fore
SplineSet
379 648 m 1,0,-1
 385 524 l 1,1,-1
 372 524 l 1,2,3
 351 571 351 571 327.5 599.5 c 128,-1,4
 304 628 304 628 286 634 c 1,5,-1
 286 295 l 1,6,-1
 337 295 l 1,7,-1
 337 278 l 1,8,-1
 107 278 l 1,9,-1
 107 295 l 1,10,-1
 159 295 l 1,11,-1
 159 634 l 1,12,13
 141 626 141 626 116.5 598 c 128,-1,14
 92 570 92 570 72 524 c 1,15,-1
 59 524 l 1,16,-1
 66 648 l 1,17,-1
 379 648 l 1,0,-1
728 648 m 1,18,-1
 904 648 l 1,19,-1
 904 631 l 1,20,-1
 864 631 l 1,21,-1
 864 293 l 1,22,-1
 904 293 l 1,23,-1
 904 278 l 1,24,-1
 702 278 l 1,25,-1
 702 293 l 1,26,-1
 741 293 l 1,27,-1
 741 630 l 1,28,-1
 642 278 l 1,29,-1
 578 278 l 1,30,-1
 471 623 l 1,31,-1
 471 293 l 1,32,-1
 515 293 l 1,33,-1
 515 278 l 1,34,-1
 416 278 l 1,35,-1
 416 293 l 1,36,-1
 450 293 l 1,37,-1
 450 631 l 1,38,-1
 416 631 l 1,39,-1
 416 648 l 1,40,-1
 597 648 l 1,41,-1
 664 420 l 1,42,-1
 728 648 l 1,18,-1
EndSplineSet
EndChar

StartChar: ordfeminine
Encoding: 170 170 111
Width: 454
Flags: MW
LayerCount: 2
Fore
SplineSet
205 568 m 2,0,-1
 227 568 l 1,1,-1
 227 623 l 2,2,3
 227 690 227 690 219 711.5 c 128,-1,4
 211 733 211 733 188 733 c 0,5,6
 152 733 152 733 152 708 c 0,7,8
 152 699 152 699 156 688 c 1,9,-1
 176 688 l 1,10,11
 182 670 182 670 182 650.5 c 0,12,13
 182 631 182 631 162.5 615.5 c 128,-1,14
 143 600 143 600 114 600 c 0,15,16
 47 600 47 600 47 659 c 0,17,18
 47 747 47 747 209 747 c 0,19,20
 301 747 301 747 336 718 c 128,-1,21
 371 689 371 689 371 612 c 2,22,-1
 371 472 l 2,23,24
 371 435 371 435 393 435 c 0,25,26
 405 435 405 435 412 449 c 128,-1,27
 419 463 419 463 422 505 c 1,28,-1
 435 503 l 1,29,30
 433 441 433 441 410.5 417.5 c 128,-1,31
 388 394 388 394 337 394 c 0,32,33
 245 394 245 394 230 447 c 1,34,35
 221 420 221 420 201 407 c 128,-1,36
 181 394 181 394 142 394 c 0,37,38
 27 394 27 394 27 480 c 0,39,40
 27 531 27 531 71 549.5 c 128,-1,41
 115 568 115 568 205 568 c 2,0,-1
194 426 m 128,-1,43
 206 426 206 426 216.5 444 c 128,-1,44
 227 462 227 462 227 491 c 2,45,-1
 227 553 l 1,46,-1
 222 553 l 2,47,48
 197 553 197 553 185.5 539 c 128,-1,49
 174 525 174 525 174 492 c 2,50,-1
 174 481 l 2,51,52
 174 447 174 447 178 436.5 c 128,-1,42
 182 426 182 426 194 426 c 128,-1,43
EndSplineSet
EndChar

StartChar: ordmasculine
Encoding: 186 186 112
Width: 489
Flags: MW
LayerCount: 2
Fore
SplineSet
295 541 m 2,0,-1
 295 601 l 2,1,2
 295 667 295 667 286 698 c 128,-1,3
 277 729 277 729 245.5 729 c 128,-1,4
 214 729 214 729 204 697.5 c 128,-1,5
 194 666 194 666 194 598 c 2,6,-1
 194 542 l 2,7,8
 194 472 194 472 203.5 441.5 c 128,-1,9
 213 411 213 411 245 411 c 128,-1,10
 277 411 277 411 286 438.5 c 128,-1,11
 295 466 295 466 295 541 c 2,0,-1
96 439.5 m 128,-1,13
 46 485 46 485 46 570.5 c 128,-1,14
 46 656 46 656 98 701.5 c 128,-1,15
 150 747 150 747 249 747 c 0,16,17
 443 747 443 747 443 575 c 0,18,19
 443 394 443 394 244 394 c 0,20,12
 146 394 146 394 96 439.5 c 128,-1,13
EndSplineSet
EndChar

StartChar: guillemotleft
Encoding: 171 171 113
Width: 494
Flags: MW
LayerCount: 2
Fore
SplineSet
239 263 m 1,0,-1
 416 401 l 1,1,-1
 425 394 l 1,2,-1
 339 231 l 1,3,-1
 424 56 l 1,4,-1
 415 49 l 1,5,-1
 256 179 l 1,6,7
 226 205 226 205 226 223.5 c 0,8,9
 226 242 226 242 239 263 c 1,0,-1
63 263 m 1,10,-1
 240 401 l 1,11,-1
 249 394 l 1,12,-1
 163 231 l 1,13,-1
 248 56 l 1,14,-1
 239 49 l 1,15,-1
 80 179 l 1,16,17
 50 205 50 205 50 223.5 c 0,18,19
 50 242 50 242 63 263 c 1,10,-1
EndSplineSet
Position2: "'case' Case-Sensitive Forms lookup 0 per glyph data 0" dx=0 dy=40 dh=0 dv=0
EndChar

StartChar: guillemotright
Encoding: 187 187 114
Width: 494
Flags: MW
LayerCount: 2
Fore
SplineSet
431 187 m 1,0,-1
 254 49 l 1,1,-1
 246 56 l 1,2,-1
 331 219 l 1,3,-1
 247 393 l 1,4,-1
 255 401 l 1,5,-1
 414 271 l 1,6,7
 444 245 444 245 444 226.5 c 0,8,9
 444 208 444 208 431 187 c 1,0,-1
255 187 m 1,10,-1
 78 49 l 1,11,-1
 70 56 l 1,12,-1
 155 219 l 1,13,-1
 71 393 l 1,14,-1
 79 401 l 1,15,-1
 238 271 l 1,16,17
 268 245 268 245 268 226.5 c 0,18,19
 268 208 268 208 255 187 c 1,10,-1
EndSplineSet
Position2: "'case' Case-Sensitive Forms lookup 0 per glyph data 0" dx=0 dy=40 dh=0 dv=0
EndChar

StartChar: guilsinglleft
Encoding: 8249 8249 115
Width: 318
Flags: MW
LayerCount: 2
Fore
SplineSet
63 263 m 1,0,-1
 240 401 l 1,1,-1
 249 394 l 1,2,-1
 163 231 l 1,3,-1
 248 56 l 1,4,-1
 239 49 l 1,5,-1
 80 179 l 1,6,7
 50 205 50 205 50 223.5 c 0,8,9
 50 242 50 242 63 263 c 1,0,-1
EndSplineSet
Position2: "'case' Case-Sensitive Forms lookup 0 per glyph data 0" dx=0 dy=40 dh=0 dv=0
EndChar

StartChar: guilsinglright
Encoding: 8250 8250 116
Width: 318
Flags: MW
LayerCount: 2
Fore
SplineSet
255 187 m 1,0,-1
 78 49 l 1,1,-1
 70 56 l 1,2,-1
 155 219 l 1,3,-1
 71 393 l 1,4,-1
 79 401 l 1,5,-1
 238 271 l 1,6,7
 268 245 268 245 268 226.5 c 0,8,9
 268 208 268 208 255 187 c 1,0,-1
EndSplineSet
Position2: "'case' Case-Sensitive Forms lookup 0 per glyph data 0" dx=0 dy=40 dh=0 dv=0
EndChar

StartChar: quoteleft
Encoding: 8216 8216 117
Width: 260
Flags: MW
LayerCount: 2
Fore
SplineSet
177 755 m 1,0,-1
 186 741 l 1,1,2
 93 680 93 680 93 619 c 0,3,4
 93 588 93 588 120 583 c 1,5,-1
 162 622 l 1,6,7
 182 615 182 615 198.5 596.5 c 128,-1,8
 215 578 215 578 215 549 c 0,9,10
 215 520 215 520 192 499.5 c 128,-1,11
 169 479 169 479 131.5 479 c 0,12,13
 94 479 94 479 69.5 504.5 c 128,-1,14
 45 530 45 530 45 575 c 0,15,16
 45 673 45 673 177 755 c 1,0,-1
EndSplineSet
EndChar

StartChar: quoteright
Encoding: 8217 8217 118
Width: 260
Flags: MW
LayerCount: 2
Fore
SplineSet
83 452 m 1,0,-1
 74 466 l 1,1,2
 167 527 167 527 167 588 c 0,3,4
 167 620 167 620 140 624 c 1,5,-1
 98 585 l 1,6,7
 78 592 78 592 61.5 610.5 c 128,-1,8
 45 629 45 629 45 658 c 0,9,10
 45 687 45 687 68 707.5 c 128,-1,11
 91 728 91 728 128.5 728 c 0,12,13
 166 728 166 728 190.5 702.5 c 128,-1,14
 215 677 215 677 215 632 c 0,15,16
 215 534 215 534 83 452 c 1,0,-1
EndSplineSet
EndChar

StartChar: quotesinglbase
Encoding: 8218 8218 119
Width: 260
Flags: MW
LayerCount: 2
Fore
SplineSet
83 -147 m 1,0,-1
 74 -133 l 1,1,2
 167 -72 167 -72 167 -11 c 0,3,4
 167 20 167 20 140 25 c 1,5,-1
 98 -14 l 1,6,7
 78 -7 78 -7 61.5 11.5 c 128,-1,8
 45 30 45 30 45 59 c 0,9,10
 45 88 45 88 68 108.5 c 128,-1,11
 91 129 91 129 128.5 129 c 0,12,13
 166 129 166 129 190.5 103.5 c 128,-1,14
 215 78 215 78 215 33 c 0,15,16
 215 -65 215 -65 83 -147 c 1,0,-1
EndSplineSet
EndChar

StartChar: quotedblleft
Encoding: 8220 8220 120
Width: 448
Flags: MW
LayerCount: 2
Fore
SplineSet
365 755 m 1,0,-1
 374 741 l 1,1,2
 281 680 281 680 281 619 c 0,3,4
 281 588 281 588 308 583 c 1,5,-1
 350 622 l 1,6,7
 370 615 370 615 386.5 596.5 c 128,-1,8
 403 578 403 578 403 549 c 0,9,10
 403 520 403 520 380 499.5 c 128,-1,11
 357 479 357 479 319.5 479 c 0,12,13
 282 479 282 479 257.5 504.5 c 128,-1,14
 233 530 233 530 233 575 c 0,15,16
 233 673 233 673 365 755 c 1,0,-1
177 755 m 1,17,-1
 186 741 l 1,18,19
 93 680 93 680 93 619 c 0,20,21
 93 588 93 588 120 583 c 1,22,-1
 162 622 l 1,23,24
 182 615 182 615 198.5 596.5 c 128,-1,25
 215 578 215 578 215 549 c 0,26,27
 215 520 215 520 192 499.5 c 128,-1,28
 169 479 169 479 131.5 479 c 0,29,30
 94 479 94 479 69.5 504.5 c 128,-1,31
 45 530 45 530 45 575 c 0,32,33
 45 673 45 673 177 755 c 1,17,-1
EndSplineSet
EndChar

StartChar: quotedblright
Encoding: 8221 8221 121
Width: 445
Flags: MW
LayerCount: 2
Fore
SplineSet
268 452 m 1,0,-1
 259 466 l 1,1,2
 352 527 352 527 352 588 c 0,3,4
 352 620 352 620 325 624 c 1,5,-1
 283 585 l 1,6,7
 263 592 263 592 246.5 610.5 c 128,-1,8
 230 629 230 629 230 658 c 0,9,10
 230 687 230 687 253 707.5 c 128,-1,11
 276 728 276 728 313.5 728 c 0,12,13
 351 728 351 728 375.5 702.5 c 128,-1,14
 400 677 400 677 400 632 c 0,15,16
 400 534 400 534 268 452 c 1,0,-1
83 452 m 1,17,-1
 74 466 l 1,18,19
 167 527 167 527 167 588 c 0,20,21
 167 620 167 620 140 624 c 1,22,-1
 98 585 l 1,23,24
 78 592 78 592 61.5 610.5 c 128,-1,25
 45 629 45 629 45 658 c 0,26,27
 45 687 45 687 68 707.5 c 128,-1,28
 91 728 91 728 128.5 728 c 0,29,30
 166 728 166 728 190.5 702.5 c 128,-1,31
 215 677 215 677 215 632 c 0,32,33
 215 534 215 534 83 452 c 1,17,-1
EndSplineSet
EndChar

StartChar: quotedblbase
Encoding: 8222 8222 122
Width: 445
Flags: MW
LayerCount: 2
Fore
SplineSet
268 -147 m 1,0,-1
 259 -133 l 1,1,2
 352 -72 352 -72 352 -11 c 0,3,4
 352 20 352 20 325 25 c 1,5,-1
 283 -14 l 1,6,7
 263 -7 263 -7 246.5 11.5 c 128,-1,8
 230 30 230 30 230 59 c 0,9,10
 230 88 230 88 253 108.5 c 128,-1,11
 276 129 276 129 313.5 129 c 0,12,13
 351 129 351 129 375.5 103.5 c 128,-1,14
 400 78 400 78 400 33 c 0,15,16
 400 -65 400 -65 268 -147 c 1,0,-1
83 -147 m 1,17,-1
 74 -133 l 1,18,19
 167 -72 167 -72 167 -11 c 0,20,21
 167 20 167 20 140 25 c 1,22,-1
 98 -14 l 1,23,24
 78 -7 78 -7 61.5 11.5 c 128,-1,25
 45 30 45 30 45 59 c 0,26,27
 45 88 45 88 68 108.5 c 128,-1,28
 91 129 91 129 128.5 129 c 0,29,30
 166 129 166 129 190.5 103.5 c 128,-1,31
 215 78 215 78 215 33 c 0,32,33
 215 -65 215 -65 83 -147 c 1,17,-1
EndSplineSet
EndChar

StartChar: dagger
Encoding: 8224 8224 123
Width: 531
Flags: MW
LayerCount: 2
Fore
SplineSet
352 355 m 1,0,-1
 352 349 l 1,1,-1
 343 332 l 2,2,3
 334 315 334 315 332 310.5 c 128,-1,4
 330 306 330 306 321.5 288 c 128,-1,5
 313 270 313 270 310 260 c 128,-1,6
 307 250 307 250 301 230.5 c 128,-1,7
 295 211 295 211 292 195.5 c 0,8,9
 284 154.166666667 284 154.166666667 284 115 c 2,10,-1
 279 -120 l 1,11,-1
 253 -120 l 1,12,-1
 249 114 l 2,13,14
 249 166.909090909 249 166.909090909 241 197.454545455 c 128,-1,15
 233 228 233 228 229 243 c 128,-1,16
 225 258 225 258 216.5 276.5 c 128,-1,17
 208 295 208 295 204 302.5 c 128,-1,18
 200 310 200 310 190 327.5 c 128,-1,19
 180 345 180 345 179 348 c 1,20,-1
 179 354 l 1,21,22
 249 442 249 442 257 485 c 1,23,24
 232 484 232 484 178.5 457.5 c 128,-1,25
 125 431 125 431 97 431 c 128,-1,26
 69 431 69 431 54.5 451 c 128,-1,27
 40 471 40 471 40 496.5 c 128,-1,28
 40 522 40 522 55 541 c 128,-1,29
 70 560 70 560 97.5 560 c 128,-1,30
 125 560 125 560 177.5 531 c 128,-1,31
 230 502 230 502 258 501 c 1,32,33
 256 532 256 532 225.5 576 c 128,-1,34
 195 620 195 620 195 647 c 128,-1,35
 195 674 195 674 214.5 692.5 c 128,-1,36
 234 711 234 711 270 711 c 128,-1,37
 306 711 306 711 324 692.5 c 128,-1,38
 342 674 342 674 342 647.5 c 128,-1,39
 342 621 342 621 310 578 c 128,-1,40
 278 535 278 535 276 501 c 1,41,42
 302 503 302 503 354.5 531.5 c 128,-1,43
 407 560 407 560 432.5 560 c 128,-1,44
 458 560 458 560 474.5 544.5 c 128,-1,45
 491 529 491 529 491 497.5 c 128,-1,46
 491 466 491 466 474.5 448.5 c 128,-1,47
 458 431 458 431 434 431 c 128,-1,48
 410 431 410 431 356 457.5 c 128,-1,49
 302 484 302 484 276 485 c 1,50,51
 282 439 282 439 352 355 c 1,0,-1
EndSplineSet
EndChar

StartChar: daggerdbl
Encoding: 8225 8225 124
Width: 571
Flags: MW
LayerCount: 2
Fore
SplineSet
372 386 m 1,0,-1
 372 380 l 1,1,2
 333 341 333 341 304 293 c 1,3,4
 332 247 332 247 372 208 c 1,5,-1
 372 202 l 1,6,7
 302 134 302 134 294 102 c 1,8,9
 319 103 319 103 372.5 129.5 c 128,-1,10
 426 156 426 156 454 156 c 0,11,12
 482 156 482 156 496.5 136 c 128,-1,13
 511 116 511 116 511 90.5 c 0,14,15
 511 65 511 65 496 46 c 128,-1,16
 481 27 481 27 453.5 27 c 0,17,18
 426 27 426 27 373.5 56 c 128,-1,19
 321 85 321 85 293 86 c 1,20,21
 295 55 295 55 325.5 11 c 128,-1,22
 356 -33 356 -33 356 -60 c 128,-1,23
 356 -87 356 -87 336.5 -105.5 c 128,-1,24
 317 -124 317 -124 281 -124 c 0,25,26
 245 -124 245 -124 227 -105.5 c 128,-1,27
 209 -87 209 -87 209 -60.5 c 0,28,29
 209 -34 209 -34 241 9 c 128,-1,30
 273 52 273 52 275 86 c 1,31,32
 249 84 249 84 196.5 55.5 c 128,-1,33
 144 27 144 27 118.5 27 c 0,34,35
 93 27 93 27 76.5 42.5 c 128,-1,36
 60 58 60 58 60 89.5 c 0,37,38
 60 121 60 121 76.5 138.5 c 128,-1,39
 93 156 93 156 117 156 c 0,40,41
 141 156 141 156 195 129.5 c 128,-1,42
 249 103 249 103 275 102 c 1,43,44
 268 123 268 123 245.5 152 c 128,-1,45
 223 181 223 181 199 201 c 1,46,-1
 199 207 l 1,47,48
 238 246 238 246 266 293 c 1,49,50
 237 342 237 342 199 379 c 1,51,-1
 199 385 l 1,52,53
 269 453 269 453 277 485 c 1,54,55
 252 484 252 484 198.5 457.5 c 128,-1,56
 145 431 145 431 117 431 c 0,57,58
 89 431 89 431 74.5 451 c 128,-1,59
 60 471 60 471 60 496.5 c 0,60,61
 60 522 60 522 75 541 c 128,-1,62
 90 560 90 560 117.5 560 c 0,63,64
 145 560 145 560 197.5 531 c 128,-1,65
 250 502 250 502 278 501 c 1,66,67
 276 532 276 532 245.5 576 c 128,-1,68
 215 620 215 620 215 647 c 128,-1,69
 215 674 215 674 234.5 692.5 c 128,-1,70
 254 711 254 711 290 711 c 0,71,72
 326 711 326 711 344 692.5 c 128,-1,73
 362 674 362 674 362 647.5 c 0,74,75
 362 621 362 621 330 578 c 128,-1,76
 298 535 298 535 296 501 c 1,77,78
 322 503 322 503 374.5 531.5 c 128,-1,79
 427 560 427 560 452.5 560 c 0,80,81
 478 560 478 560 494.5 544.5 c 128,-1,82
 511 529 511 529 511 497.5 c 0,83,84
 511 466 511 466 494.5 448.5 c 128,-1,85
 478 431 478 431 454 431 c 0,86,87
 430 431 430 431 376 457.5 c 128,-1,88
 322 484 322 484 296 485 c 1,89,90
 303 464 303 464 325.5 435 c 128,-1,91
 348 406 348 406 372 386 c 1,0,-1
EndSplineSet
EndChar

StartChar: bullet
Encoding: 8226 8226 125
Width: 400
Flags: MW
LayerCount: 2
Fore
SplineSet
107 188.5 m 128,-1,1
 76 226 76 226 76 281 c 128,-1,2
 76 336 76 336 110 372.5 c 128,-1,3
 144 409 144 409 204 409 c 128,-1,4
 264 409 264 409 299.5 377 c 128,-1,5
 335 345 335 345 335 283.5 c 128,-1,6
 335 222 335 222 301.5 186.5 c 128,-1,7
 268 151 268 151 203 151 c 128,-1,0
 138 151 138 151 107 188.5 c 128,-1,1
EndSplineSet
Position2: "'case' Case-Sensitive Forms lookup 0 per glyph data 0" dx=0 dy=40 dh=0 dv=0
EndChar

StartChar: ellipsis
Encoding: 8230 8230 126
Width: 796
Flags: MW
LayerCount: 2
Fore
SplineSet
66.5 15.5 m 128,-1,1
 45 41 45 41 45 77.5 c 128,-1,2
 45 114 45 114 67.5 139 c 128,-1,3
 90 164 90 164 131 164 c 128,-1,4
 172 164 172 164 196 143 c 128,-1,5
 220 122 220 122 220 80 c 128,-1,6
 220 38 220 38 197.5 14 c 128,-1,7
 175 -10 175 -10 131.5 -10 c 128,-1,0
 88 -10 88 -10 66.5 15.5 c 128,-1,1
330.5 15.5 m 128,-1,9
 309 41 309 41 309 77.5 c 128,-1,10
 309 114 309 114 331.5 139 c 128,-1,11
 354 164 354 164 395 164 c 128,-1,12
 436 164 436 164 460 143 c 128,-1,13
 484 122 484 122 484 80 c 128,-1,14
 484 38 484 38 461.5 14 c 128,-1,15
 439 -10 439 -10 395.5 -10 c 128,-1,8
 352 -10 352 -10 330.5 15.5 c 128,-1,9
597.5 15.5 m 128,-1,17
 576 41 576 41 576 77.5 c 128,-1,18
 576 114 576 114 598.5 139 c 128,-1,19
 621 164 621 164 662 164 c 128,-1,20
 703 164 703 164 727 143 c 128,-1,21
 751 122 751 122 751 80 c 128,-1,22
 751 38 751 38 728.5 14 c 128,-1,23
 706 -10 706 -10 662.5 -10 c 128,-1,16
 619 -10 619 -10 597.5 15.5 c 128,-1,17
EndSplineSet
EndChar

StartChar: paragraph
Encoding: 182 182 127
Width: 628
Flags: MW
LayerCount: 2
Fore
SplineSet
377 -82 m 2,0,-1
 377 175 l 1,1,-1
 358 175 l 2,2,3
 221 175 221 175 148 243.5 c 128,-1,4
 75 312 75 312 75 433 c 0,5,6
 75 554 75 554 151.5 627 c 128,-1,7
 228 700 228 700 371 700 c 2,8,-1
 598 700 l 1,9,-1
 598 681 l 1,10,-1
 533 681 l 1,11,-1
 533 -13 l 2,12,13
 533 -250 533 -250 285 -250 c 0,14,15
 193 -250 193 -250 155 -211.5 c 128,-1,16
 117 -173 117 -173 117 -126.5 c 0,17,18
 117 -80 117 -80 143.5 -54.5 c 128,-1,19
 170 -29 170 -29 208.5 -29 c 0,20,21
 247 -29 247 -29 266.5 -50.5 c 128,-1,22
 286 -72 286 -72 286 -98 c 0,23,24
 286 -124 286 -124 280 -148 c 1,25,-1
 251 -148 l 1,26,27
 230 -185 230 -185 241 -208 c 128,-1,28
 252 -231 252 -231 292 -231 c 0,29,30
 332 -231 332 -231 354.5 -197.5 c 128,-1,31
 377 -164 377 -164 377 -82 c 2,0,-1
407 -93 m 2,32,33
 407 -184 407 -184 369 -218 c 1,34,35
 504 -188 504 -188 504 -4 c 2,36,-1
 504 681 l 1,37,-1
 407 681 l 1,38,-1
 407 -93 l 2,32,33
EndSplineSet
EndChar

StartChar: periodcentered
Encoding: 183 183 128
Width: 300
Flags: MW
LayerCount: 2
Fore
SplineSet
91.5 260.5 m 128,-1,1
 70 286 70 286 70 322.5 c 128,-1,2
 70 359 70 359 92.5 384 c 128,-1,3
 115 409 115 409 156 409 c 128,-1,4
 197 409 197 409 221 388 c 128,-1,5
 245 367 245 367 245 325 c 128,-1,6
 245 283 245 283 222.5 259 c 128,-1,7
 200 235 200 235 156.5 235 c 128,-1,0
 113 235 113 235 91.5 260.5 c 128,-1,1
EndSplineSet
Position2: "'case' Case-Sensitive Forms lookup 0 per glyph data 0" dx=0 dy=40 dh=0 dv=0
EndChar

StartChar: uni00AD
Encoding: 173 173 129
Width: 340
Flags: MW
LayerCount: 2
Fore
SplineSet
47 278 m 1,0,-1
 47 308 l 1,1,-1
 299 308 l 1,2,-1
 299 278 l 1,3,-1
 47 278 l 1,0,-1
EndSplineSet
EndChar

StartChar: endash
Encoding: 8211 8211 130
Width: 500
Flags: MW
LayerCount: 2
Fore
SplineSet
20 272 m 1,0,-1
 20 299 l 1,1,-1
 480 299 l 1,2,-1
 480 272 l 1,3,-1
 20 272 l 1,0,-1
EndSplineSet
Position2: "'case' Case-Sensitive Forms lookup 0 per glyph data 0" dx=0 dy=40 dh=0 dv=0
EndChar

StartChar: emdash
Encoding: 8212 8212 131
Width: 1000
Flags: MW
LayerCount: 2
Fore
SplineSet
20 272 m 1,0,-1
 20 299 l 1,1,-1
 980 299 l 1,2,-1
 980 272 l 1,3,-1
 20 272 l 1,0,-1
EndSplineSet
Position2: "'case' Case-Sensitive Forms lookup 0 per glyph data 0" dx=0 dy=40 dh=0 dv=0
EndChar

StartChar: hyphen.case
Encoding: 65543 -1 132
Width: 352
Flags: MW
LayerCount: 2
Fore
SplineSet
50 328 m 1,0,-1
 50 358 l 1,1,-1
 302 358 l 1,2,-1
 302 328 l 1,3,-1
 50 328 l 1,0,-1
EndSplineSet
EndChar

StartChar: Agrave
Encoding: 192 192 133
Width: 694
Flags: MW
LayerCount: 2
Fore
SplineSet
432 19 m 1,0,-1
 359 235 l 1,1,-1
 161 235 l 1,2,-1
 84 19 l 1,3,-1
 159 19 l 1,4,-1
 159 0 l 1,5,-1
 6 0 l 1,6,-1
 6 19 l 1,7,-1
 53 19 l 1,8,-1
 308 706 l 1,9,-1
 390 706 l 1,10,-1
 642 19 l 1,11,-1
 688 19 l 1,12,-1
 688 0 l 1,13,-1
 361 0 l 1,14,-1
 361 19 l 1,15,-1
 432 19 l 1,0,-1
264 519 m 1,16,-1
 170 257 l 1,17,-1
 351 257 l 1,18,-1
 264 519 l 1,16,-1
329 905 m 1,19,-1
 444 743 l 1,20,-1
 436 733 l 1,21,-1
 277 798 l 2,22,23
 233 816 233 816 233 856 c 0,24,25
 233 873 233 873 244.5 886 c 128,-1,26
 256 899 256 899 281 901 c 2,27,-1
 329 905 l 1,19,-1
EndSplineSet
EndChar

StartChar: Aacute
Encoding: 193 193 134
Width: 694
Flags: MW
LayerCount: 2
Fore
SplineSet
432 19 m 1,0,-1
 359 235 l 1,1,-1
 161 235 l 1,2,-1
 84 19 l 1,3,-1
 159 19 l 1,4,-1
 159 0 l 1,5,-1
 6 0 l 1,6,-1
 6 19 l 1,7,-1
 53 19 l 1,8,-1
 308 706 l 1,9,-1
 390 706 l 1,10,-1
 642 19 l 1,11,-1
 688 19 l 1,12,-1
 688 0 l 1,13,-1
 361 0 l 1,14,-1
 361 19 l 1,15,-1
 432 19 l 1,0,-1
264 519 m 1,16,-1
 170 257 l 1,17,-1
 351 257 l 1,18,-1
 264 519 l 1,16,-1
261 743 m 1,19,-1
 376 905 l 1,20,-1
 424 901 l 2,21,22
 449 899 449 899 460.5 886 c 128,-1,23
 472 873 472 873 472 856 c 0,24,25
 472 816 472 816 428 798 c 2,26,-1
 269 733 l 1,27,-1
 261 743 l 1,19,-1
EndSplineSet
EndChar

StartChar: Acircumflex
Encoding: 194 194 135
Width: 694
Flags: MW
LayerCount: 2
Fore
SplineSet
432 19 m 1,0,-1
 359 235 l 1,1,-1
 161 235 l 1,2,-1
 84 19 l 1,3,-1
 159 19 l 1,4,-1
 159 0 l 1,5,-1
 6 0 l 1,6,-1
 6 19 l 1,7,-1
 53 19 l 1,8,-1
 308 706 l 1,9,-1
 390 706 l 1,10,-1
 642 19 l 1,11,-1
 688 19 l 1,12,-1
 688 0 l 1,13,-1
 361 0 l 1,14,-1
 361 19 l 1,15,-1
 432 19 l 1,0,-1
264 519 m 1,16,-1
 170 257 l 1,17,-1
 351 257 l 1,18,-1
 264 519 l 1,16,-1
197 743 m 1,19,-1
 303 891 l 1,20,21
 331 907 331 907 358 907 c 0,22,23
 405 907 405 907 428 867 c 2,24,-1
 502 743 l 1,25,-1
 493 733 l 1,26,-1
 351 801 l 1,27,-1
 205 733 l 1,28,-1
 197 743 l 1,19,-1
EndSplineSet
EndChar

StartChar: Atilde
Encoding: 195 195 136
Width: 694
Flags: MW
LayerCount: 2
Fore
SplineSet
432 19 m 1,0,-1
 359 235 l 1,1,-1
 161 235 l 1,2,-1
 84 19 l 1,3,-1
 159 19 l 1,4,-1
 159 0 l 1,5,-1
 6 0 l 1,6,-1
 6 19 l 1,7,-1
 53 19 l 1,8,-1
 308 706 l 1,9,-1
 390 706 l 1,10,-1
 642 19 l 1,11,-1
 688 19 l 1,12,-1
 688 0 l 1,13,-1
 361 0 l 1,14,-1
 361 19 l 1,15,-1
 432 19 l 1,0,-1
264 519 m 1,16,-1
 170 257 l 1,17,-1
 351 257 l 1,18,-1
 264 519 l 1,16,-1
479.5 782 m 128,-1,20
 457 752 457 752 424 752 c 128,-1,21
 391 752 391 752 338 772 c 128,-1,22
 285 792 285 792 266 792 c 0,23,24
 228 792 228 792 211 751 c 1,25,-1
 199 755 l 1,26,27
 221.708154506 826.618025751 221.708154506 826.618025751 236.354077253 851.809012876 c 128,-1,28
 251 877 251 877 267 885 c 128,-1,29
 283 893 283 893 308 893 c 128,-1,30
 333 893 333 893 383.5 873 c 128,-1,31
 434 853 434 853 451 853 c 0,32,33
 495 853 495 853 509 895 c 1,34,-1
 522 891 l 1,35,19
 502 812 502 812 479.5 782 c 128,-1,20
EndSplineSet
EndChar

StartChar: Adieresis
Encoding: 196 196 137
Width: 694
Flags: MW
LayerCount: 2
Fore
SplineSet
432 19 m 1,0,-1
 359 235 l 1,1,-1
 161 235 l 1,2,-1
 84 19 l 1,3,-1
 159 19 l 1,4,-1
 159 0 l 1,5,-1
 6 0 l 1,6,-1
 6 19 l 1,7,-1
 53 19 l 1,8,-1
 308 706 l 1,9,-1
 390 706 l 1,10,-1
 642 19 l 1,11,-1
 688 19 l 1,12,-1
 688 0 l 1,13,-1
 361 0 l 1,14,-1
 361 19 l 1,15,-1
 432 19 l 1,0,-1
264 519 m 1,16,-1
 170 257 l 1,17,-1
 351 257 l 1,18,-1
 264 519 l 1,16,-1
371 821 m 128,-1,20
 371 852 371 852 390.5 873 c 128,-1,21
 410 894 410 894 444.5 894 c 0,22,23
 479 894 479 894 499.5 875.5 c 128,-1,24
 520 857 520 857 520 822 c 0,25,26
 520 787 520 787 500.5 766.5 c 128,-1,27
 481 746 481 746 444 746 c 0,28,29
 407 746 407 746 389 768 c 128,-1,19
 371 790 371 790 371 821 c 128,-1,20
178 821 m 128,-1,31
 178 852 178 852 197.5 873 c 128,-1,32
 217 894 217 894 251.5 894 c 0,33,34
 286 894 286 894 306.5 875.5 c 128,-1,35
 327 857 327 857 327 822 c 0,36,37
 327 787 327 787 307.5 766.5 c 128,-1,38
 288 746 288 746 251 746 c 0,39,40
 214 746 214 746 196 768 c 128,-1,30
 178 790 178 790 178 821 c 128,-1,31
EndSplineSet
EndChar

StartChar: Aring
Encoding: 197 197 138
Width: 694
Flags: MW
LayerCount: 2
Fore
SplineSet
432 19 m 1,0,-1
 359 235 l 1,1,-1
 161 235 l 1,2,-1
 84 19 l 1,3,-1
 159 19 l 1,4,-1
 159 0 l 1,5,-1
 6 0 l 1,6,-1
 6 19 l 1,7,-1
 53 19 l 1,8,-1
 308 706 l 1,9,-1
 390 706 l 1,10,-1
 642 19 l 1,11,-1
 688 19 l 1,12,-1
 688 0 l 1,13,-1
 361 0 l 1,14,-1
 361 19 l 1,15,-1
 432 19 l 1,0,-1
264 519 m 1,16,-1
 170 257 l 1,17,-1
 351 257 l 1,18,-1
 264 519 l 1,16,-1
277 823 m 0,19,20
 277 750 277 750 349 750 c 0,21,22
 384 750 384 750 402 770.5 c 128,-1,23
 420 791 420 791 420 822 c 128,-1,24
 420 853 420 853 402 873.5 c 128,-1,25
 384 894 384 894 347.5 894 c 128,-1,26
 311 894 311 894 294 873.5 c 128,-1,27
 277 853 277 853 277 823 c 0,19,20
272 752 m 128,-1,29
 247 778 247 778 247 821 c 128,-1,30
 247 864 247 864 273.5 891 c 128,-1,31
 300 918 300 918 349 918 c 128,-1,32
 398 918 398 918 423.5 892.5 c 128,-1,33
 449 867 449 867 449 823.5 c 128,-1,34
 449 780 449 780 422.5 753 c 128,-1,35
 396 726 396 726 346.5 726 c 128,-1,28
 297 726 297 726 272 752 c 128,-1,29
EndSplineSet
EndChar

StartChar: Aringacute
Encoding: 506 506 139
Width: 694
Flags: MW
LayerCount: 2
Fore
SplineSet
248 785 m 0,0,1
 248 826 248 826 274.5 853 c 128,-1,2
 301 880 301 880 350 880 c 0,3,4
 399 880 399 880 424.5 854.5 c 128,-1,5
 450 829 450 829 450 787 c 0,6,7
 450 718 450 718 393 696 c 1,8,-1
 642 19 l 1,9,-1
 688 19 l 1,10,-1
 688 0 l 1,11,-1
 361 0 l 1,12,-1
 361 19 l 1,13,-1
 432 19 l 1,14,-1
 359 235 l 1,15,-1
 161 235 l 1,16,-1
 84 19 l 1,17,-1
 159 19 l 1,18,-1
 159 0 l 1,19,-1
 6 0 l 1,20,-1
 6 19 l 1,21,-1
 53 19 l 1,22,-1
 304 695 l 1,23,24
 248 715 248 715 248 785 c 0,0,1
264 519 m 1,25,-1
 170 257 l 1,26,-1
 351 257 l 1,27,-1
 264 519 l 1,25,-1
277 896 m 1,28,-1
 392 1058 l 1,29,-1
 440 1054 l 2,30,31
 465 1052 465 1052 476.5 1039 c 128,-1,32
 488 1026 488 1026 488 1009 c 0,33,34
 488 969 488 969 444 951 c 2,35,-1
 285 886 l 1,36,-1
 277 896 l 1,28,-1
278 785 m 0,37,38
 278 712 278 712 350 712 c 0,39,40
 385 712 385 712 403 732.5 c 128,-1,41
 421 753 421 753 421 784 c 0,42,43
 421 815 421 815 403 835.5 c 128,-1,44
 385 856 385 856 348.5 856 c 0,45,46
 312 856 312 856 295 835.5 c 128,-1,47
 278 815 278 815 278 785 c 0,37,38
EndSplineSet
EndChar

StartChar: AE
Encoding: 198 198 140
Width: 1033
Flags: MW
LayerCount: 2
Fore
SplineSet
376 678 m 1,0,-1
 376 700 l 1,1,-1
 950 700 l 1,2,-1
 960 502 l 1,3,-1
 942 502 l 1,4,5
 900 601 900 601 855.5 639.5 c 128,-1,6
 811 678 811 678 728 678 c 2,7,-1
 684 678 l 1,8,-1
 684 362 l 1,9,-1
 718 362 l 2,10,11
 765 362 765 362 797 397.5 c 128,-1,12
 829 433 829 433 842 493 c 1,13,-1
 857 493 l 1,14,-1
 857 197 l 1,15,-1
 840 197 l 1,16,17
 822 272 822 272 791.5 304 c 128,-1,18
 761 336 761 336 708 336 c 2,19,-1
 684 336 l 1,20,-1
 684 22 l 1,21,-1
 722 22 l 2,22,23
 814 22 814 22 878.5 77 c 128,-1,24
 943 132 943 132 967 218 c 1,25,-1
 987 218 l 1,26,-1
 979 0 l 1,27,-1
 430 0 l 1,28,-1
 430 22 l 1,29,-1
 489 22 l 1,30,-1
 489 339 l 1,31,-1
 279 339 l 1,32,-1
 85 19 l 1,33,-1
 160 19 l 1,34,-1
 160 0 l 1,35,-1
 6 0 l 1,36,-1
 6 19 l 1,37,-1
 53 19 l 1,38,-1
 452 678 l 1,39,-1
 376 678 l 1,0,-1
483 678 m 1,40,-1
 291 363 l 1,41,-1
 489 363 l 1,42,-1
 489 678 l 1,43,-1
 483 678 l 1,40,-1
EndSplineSet
EndChar

StartChar: AEacute
Encoding: 508 508 141
Width: 1033
Flags: MW
LayerCount: 2
Fore
SplineSet
376 678 m 1,0,-1
 376 700 l 1,1,-1
 950 700 l 1,2,-1
 960 502 l 1,3,-1
 942 502 l 1,4,5
 900 601 900 601 855.5 639.5 c 128,-1,6
 811 678 811 678 728 678 c 2,7,-1
 684 678 l 1,8,-1
 684 362 l 1,9,-1
 718 362 l 2,10,11
 765 362 765 362 797 397.5 c 128,-1,12
 829 433 829 433 842 493 c 1,13,-1
 857 493 l 1,14,-1
 857 197 l 1,15,-1
 840 197 l 1,16,17
 822 272 822 272 791.5 304 c 128,-1,18
 761 336 761 336 708 336 c 2,19,-1
 684 336 l 1,20,-1
 684 22 l 1,21,-1
 722 22 l 2,22,23
 814 22 814 22 878.5 77 c 128,-1,24
 943 132 943 132 967 218 c 1,25,-1
 987 218 l 1,26,-1
 979 0 l 1,27,-1
 430 0 l 1,28,-1
 430 22 l 1,29,-1
 489 22 l 1,30,-1
 489 339 l 1,31,-1
 279 339 l 1,32,-1
 85 19 l 1,33,-1
 160 19 l 1,34,-1
 160 0 l 1,35,-1
 6 0 l 1,36,-1
 6 19 l 1,37,-1
 53 19 l 1,38,-1
 452 678 l 1,39,-1
 376 678 l 1,0,-1
483 678 m 1,40,-1
 291 363 l 1,41,-1
 489 363 l 1,42,-1
 489 678 l 1,43,-1
 483 678 l 1,40,-1
605 743 m 1,44,-1
 720 905 l 1,45,-1
 768 901 l 2,46,47
 793 899 793 899 804.5 886 c 128,-1,48
 816 873 816 873 816 856 c 0,49,50
 816 816 816 816 772 798 c 2,51,-1
 613 733 l 1,52,-1
 605 743 l 1,44,-1
EndSplineSet
EndChar

StartChar: Ccedilla
Encoding: 199 199 142
Width: 690
Flags: MW
LayerCount: 2
Fore
SplineSet
400 691 m 0,0,1
 245 691 245 691 245 392 c 2,2,-1
 245 313 l 2,3,4
 245 171 245 171 286 90.5 c 128,-1,5
 327 10 327 10 407 10 c 0,6,7
 517 10 517 10 609 224 c 1,8,-1
 627 224 l 1,9,-1
 620 1 l 1,10,-1
 609 1 l 1,11,12
 603 12 603 12 598 16.5 c 128,-1,13
 593 21 593 21 582.5 21 c 128,-1,14
 572 21 572 21 516 7 c 128,-1,15
 460 -7 460 -7 405 -9 c 1,16,-1
 376 -59 l 1,17,18
 397 -56 397 -56 409 -56 c 0,19,20
 514 -56 514 -56 514 -145 c 0,21,22
 514 -186 514 -186 481 -217.5 c 128,-1,23
 448 -249 448 -249 378 -249 c 0,24,25
 332 -249 332 -249 303.5 -230.5 c 128,-1,26
 275 -212 275 -212 275 -187 c 128,-1,27
 275 -162 275 -162 287 -150 c 128,-1,28
 299 -138 299 -138 318 -138 c 0,29,30
 352 -138 352 -138 364 -176 c 1,31,-1
 338 -196 l 1,32,33
 338 -210 338 -210 346 -221.5 c 128,-1,34
 354 -233 354 -233 372.5 -233 c 128,-1,35
 391 -233 391 -233 399.5 -215.5 c 128,-1,36
 408 -198 408 -198 408 -161.5 c 128,-1,37
 408 -125 408 -125 406.5 -110.5 c 0,38,39
 402.724137931 -74 402.724137931 -74 376 -74 c 0,40,41
 362 -74 362 -74 346 -78 c 1,42,-1
 343 -69 l 1,43,-1
 378 -10 l 1,44,45
 217 -8 217 -8 129 79.5 c 128,-1,46
 41 167 41 167 41 343 c 128,-1,47
 41 519 41 519 134.5 615 c 128,-1,48
 228 711 228 711 386 711 c 0,49,50
 447 711 447 711 505.5 695.5 c 128,-1,51
 564 680 564 680 574 680 c 128,-1,52
 584 680 584 680 589 684.5 c 128,-1,53
 594 689 594 689 600 700 c 1,54,-1
 611 700 l 1,55,-1
 619 483 l 1,56,-1
 601 483 l 1,57,58
 556 584 556 584 508.5 637.5 c 128,-1,59
 461 691 461 691 400 691 c 0,0,1
EndSplineSet
EndChar

StartChar: Egrave
Encoding: 200 200 143
Width: 624
Flags: MW
LayerCount: 2
Fore
SplineSet
21 700 m 1,0,-1
 541 700 l 1,1,-1
 551 502 l 1,2,-1
 533 502 l 1,3,4
 491 603 491 603 445 640.5 c 128,-1,5
 399 678 399 678 310 678 c 2,6,-1
 275 678 l 1,7,-1
 275 369 l 1,8,-1
 309 369 l 2,9,10
 356 369 356 369 388 404.5 c 128,-1,11
 420 440 420 440 433 500 c 1,12,-1
 448 500 l 1,13,-1
 448 204 l 1,14,-1
 431 204 l 1,15,16
 413 279 413 279 382.5 311 c 128,-1,17
 352 343 352 343 299 343 c 2,18,-1
 275 343 l 1,19,-1
 275 22 l 1,20,-1
 313 22 l 2,21,22
 405 22 405 22 469.5 77 c 128,-1,23
 534 132 534 132 558 218 c 1,24,-1
 578 218 l 1,25,-1
 570 0 l 1,26,-1
 21 0 l 1,27,-1
 21 22 l 1,28,-1
 80 22 l 1,29,-1
 80 678 l 1,30,-1
 21 678 l 1,31,-1
 21 700 l 1,0,-1
275 905 m 1,32,-1
 390 743 l 1,33,-1
 382 733 l 1,34,-1
 223 798 l 2,35,36
 179 816 179 816 179 856 c 0,37,38
 179 873 179 873 190.5 886 c 128,-1,39
 202 899 202 899 227 901 c 2,40,-1
 275 905 l 1,32,-1
EndSplineSet
EndChar

StartChar: Eacute
Encoding: 201 201 144
Width: 624
Flags: MW
LayerCount: 2
Fore
SplineSet
21 700 m 1,0,-1
 541 700 l 1,1,-1
 551 502 l 1,2,-1
 533 502 l 1,3,4
 491 603 491 603 445 640.5 c 128,-1,5
 399 678 399 678 310 678 c 2,6,-1
 275 678 l 1,7,-1
 275 369 l 1,8,-1
 309 369 l 2,9,10
 356 369 356 369 388 404.5 c 128,-1,11
 420 440 420 440 433 500 c 1,12,-1
 448 500 l 1,13,-1
 448 204 l 1,14,-1
 431 204 l 1,15,16
 413 279 413 279 382.5 311 c 128,-1,17
 352 343 352 343 299 343 c 2,18,-1
 275 343 l 1,19,-1
 275 22 l 1,20,-1
 313 22 l 2,21,22
 405 22 405 22 469.5 77 c 128,-1,23
 534 132 534 132 558 218 c 1,24,-1
 578 218 l 1,25,-1
 570 0 l 1,26,-1
 21 0 l 1,27,-1
 21 22 l 1,28,-1
 80 22 l 1,29,-1
 80 678 l 1,30,-1
 21 678 l 1,31,-1
 21 700 l 1,0,-1
207 743 m 1,32,-1
 322 905 l 1,33,-1
 370 901 l 2,34,35
 395 899 395 899 406.5 886 c 128,-1,36
 418 873 418 873 418 856 c 0,37,38
 418 816 418 816 374 798 c 2,39,-1
 215 733 l 1,40,-1
 207 743 l 1,32,-1
EndSplineSet
EndChar

StartChar: Ecircumflex
Encoding: 202 202 145
Width: 624
Flags: MW
LayerCount: 2
Fore
SplineSet
21 700 m 1,0,-1
 541 700 l 1,1,-1
 551 502 l 1,2,-1
 533 502 l 1,3,4
 491 603 491 603 445 640.5 c 128,-1,5
 399 678 399 678 310 678 c 2,6,-1
 275 678 l 1,7,-1
 275 369 l 1,8,-1
 309 369 l 2,9,10
 356 369 356 369 388 404.5 c 128,-1,11
 420 440 420 440 433 500 c 1,12,-1
 448 500 l 1,13,-1
 448 204 l 1,14,-1
 431 204 l 1,15,16
 413 279 413 279 382.5 311 c 128,-1,17
 352 343 352 343 299 343 c 2,18,-1
 275 343 l 1,19,-1
 275 22 l 1,20,-1
 313 22 l 2,21,22
 405 22 405 22 469.5 77 c 128,-1,23
 534 132 534 132 558 218 c 1,24,-1
 578 218 l 1,25,-1
 570 0 l 1,26,-1
 21 0 l 1,27,-1
 21 22 l 1,28,-1
 80 22 l 1,29,-1
 80 678 l 1,30,-1
 21 678 l 1,31,-1
 21 700 l 1,0,-1
143 743 m 1,32,-1
 249 891 l 1,33,34
 277 907 277 907 304 907 c 0,35,36
 351 907 351 907 374 867 c 2,37,-1
 448 743 l 1,38,-1
 439 733 l 1,39,-1
 297 801 l 1,40,-1
 151 733 l 1,41,-1
 143 743 l 1,32,-1
EndSplineSet
EndChar

StartChar: Edieresis
Encoding: 203 203 146
Width: 624
Flags: MW
LayerCount: 2
Fore
SplineSet
21 700 m 1,0,-1
 541 700 l 1,1,-1
 551 502 l 1,2,-1
 533 502 l 1,3,4
 491 603 491 603 445 640.5 c 128,-1,5
 399 678 399 678 310 678 c 2,6,-1
 275 678 l 1,7,-1
 275 369 l 1,8,-1
 309 369 l 2,9,10
 356 369 356 369 388 404.5 c 128,-1,11
 420 440 420 440 433 500 c 1,12,-1
 448 500 l 1,13,-1
 448 204 l 1,14,-1
 431 204 l 1,15,16
 413 279 413 279 382.5 311 c 128,-1,17
 352 343 352 343 299 343 c 2,18,-1
 275 343 l 1,19,-1
 275 22 l 1,20,-1
 313 22 l 2,21,22
 405 22 405 22 469.5 77 c 128,-1,23
 534 132 534 132 558 218 c 1,24,-1
 578 218 l 1,25,-1
 570 0 l 1,26,-1
 21 0 l 1,27,-1
 21 22 l 1,28,-1
 80 22 l 1,29,-1
 80 678 l 1,30,-1
 21 678 l 1,31,-1
 21 700 l 1,0,-1
317 821 m 128,-1,33
 317 852 317 852 336.5 873 c 128,-1,34
 356 894 356 894 390.5 894 c 0,35,36
 425 894 425 894 445.5 875.5 c 128,-1,37
 466 857 466 857 466 822 c 0,38,39
 466 787 466 787 446.5 766.5 c 128,-1,40
 427 746 427 746 390 746 c 0,41,42
 353 746 353 746 335 768 c 128,-1,32
 317 790 317 790 317 821 c 128,-1,33
124 821 m 128,-1,44
 124 852 124 852 143.5 873 c 128,-1,45
 163 894 163 894 197.5 894 c 0,46,47
 232 894 232 894 252.5 875.5 c 128,-1,48
 273 857 273 857 273 822 c 0,49,50
 273 787 273 787 253.5 766.5 c 128,-1,51
 234 746 234 746 197 746 c 0,52,53
 160 746 160 746 142 768 c 128,-1,43
 124 790 124 790 124 821 c 128,-1,44
EndSplineSet
EndChar

StartChar: Igrave
Encoding: 204 204 147
Width: 355
Flags: MW
LayerCount: 2
Fore
SplineSet
25 700 m 1,0,-1
 330 700 l 1,1,-1
 330 681 l 1,2,-1
 275 681 l 1,3,-1
 275 19 l 1,4,-1
 330 19 l 1,5,-1
 330 0 l 1,6,-1
 25 0 l 1,7,-1
 25 19 l 1,8,-1
 80 19 l 1,9,-1
 80 681 l 1,10,-1
 25 681 l 1,11,-1
 25 700 l 1,0,-1
157 905 m 1,12,-1
 272 743 l 1,13,-1
 264 733 l 1,14,-1
 105 798 l 2,15,16
 61 816 61 816 61 856 c 0,17,18
 61 873 61 873 72.5 886 c 128,-1,19
 84 899 84 899 109 901 c 2,20,-1
 157 905 l 1,12,-1
EndSplineSet
EndChar

StartChar: Iacute
Encoding: 205 205 148
Width: 355
Flags: MW
LayerCount: 2
Fore
SplineSet
25 700 m 1,0,-1
 330 700 l 1,1,-1
 330 681 l 1,2,-1
 275 681 l 1,3,-1
 275 19 l 1,4,-1
 330 19 l 1,5,-1
 330 0 l 1,6,-1
 25 0 l 1,7,-1
 25 19 l 1,8,-1
 80 19 l 1,9,-1
 80 681 l 1,10,-1
 25 681 l 1,11,-1
 25 700 l 1,0,-1
89 743 m 1,12,-1
 204 905 l 1,13,-1
 252 901 l 2,14,15
 277 899 277 899 288.5 886 c 128,-1,16
 300 873 300 873 300 856 c 0,17,18
 300 816 300 816 256 798 c 2,19,-1
 97 733 l 1,20,-1
 89 743 l 1,12,-1
EndSplineSet
EndChar

StartChar: Icircumflex
Encoding: 206 206 149
Width: 355
Flags: MW
LayerCount: 2
Fore
SplineSet
25 700 m 1,0,-1
 330 700 l 1,1,-1
 330 681 l 1,2,-1
 275 681 l 1,3,-1
 275 19 l 1,4,-1
 330 19 l 1,5,-1
 330 0 l 1,6,-1
 25 0 l 1,7,-1
 25 19 l 1,8,-1
 80 19 l 1,9,-1
 80 681 l 1,10,-1
 25 681 l 1,11,-1
 25 700 l 1,0,-1
25 743 m 1,12,-1
 131 891 l 1,13,14
 159 907 159 907 186 907 c 0,15,16
 233 907 233 907 256 867 c 2,17,-1
 330 743 l 1,18,-1
 321 733 l 1,19,-1
 179 801 l 1,20,-1
 33 733 l 1,21,-1
 25 743 l 1,12,-1
EndSplineSet
EndChar

StartChar: Idieresis
Encoding: 207 207 150
Width: 355
Flags: MW
LayerCount: 2
Fore
SplineSet
25 700 m 1,0,-1
 330 700 l 1,1,-1
 330 681 l 1,2,-1
 275 681 l 1,3,-1
 275 19 l 1,4,-1
 330 19 l 1,5,-1
 330 0 l 1,6,-1
 25 0 l 1,7,-1
 25 19 l 1,8,-1
 80 19 l 1,9,-1
 80 681 l 1,10,-1
 25 681 l 1,11,-1
 25 700 l 1,0,-1
199 821 m 128,-1,13
 199 852 199 852 218.5 873 c 128,-1,14
 238 894 238 894 272.5 894 c 0,15,16
 307 894 307 894 327.5 875.5 c 128,-1,17
 348 857 348 857 348 822 c 0,18,19
 348 787 348 787 328.5 766.5 c 128,-1,20
 309 746 309 746 272 746 c 0,21,22
 235 746 235 746 217 768 c 128,-1,12
 199 790 199 790 199 821 c 128,-1,13
6 821 m 128,-1,24
 6 852 6 852 25.5 873 c 128,-1,25
 45 894 45 894 79.5 894 c 0,26,27
 114 894 114 894 134.5 875.5 c 128,-1,28
 155 857 155 857 155 822 c 0,29,30
 155 787 155 787 135.5 766.5 c 128,-1,31
 116 746 116 746 79 746 c 0,32,33
 42 746 42 746 24 768 c 128,-1,23
 6 790 6 790 6 821 c 128,-1,24
EndSplineSet
EndChar

StartChar: Eth
Encoding: 208 208 151
Width: 763
Flags: MW
LayerCount: 2
Fore
SplineSet
19 359 m 1,0,-1
 19 385 l 1,1,-1
 95 385 l 1,2,-1
 95 681 l 1,3,-1
 29 681 l 1,4,-1
 29 700 l 1,5,-1
 338 700 l 2,6,7
 530 700 530 700 626 621.5 c 128,-1,8
 722 543 722 543 722 362 c 0,9,10
 722 156.403508772 722 156.403508772 606 75 c 0,11,12
 499.125 0 499.125 0 312 0 c 2,13,-1
 29 0 l 1,14,-1
 29 19 l 1,15,-1
 95 19 l 1,16,-1
 95 359 l 1,17,-1
 19 359 l 1,0,-1
290 19 m 1,18,-1
 328 19 l 2,19,20
 429 19 429 19 472.5 90.5 c 128,-1,21
 516 162 516 162 516 330 c 2,22,-1
 516 388 l 2,23,24
 516 612.853658537 516 612.853658537 430 659 c 0,25,26
 389 681 389 681 314 681 c 2,27,-1
 290 681 l 1,28,-1
 290 385 l 1,29,-1
 419 385 l 1,30,-1
 419 359 l 1,31,-1
 290 359 l 1,32,-1
 290 19 l 1,18,-1
EndSplineSet
EndChar

StartChar: Ntilde
Encoding: 209 209 152
Width: 670
Flags: MW
LayerCount: 2
Fore
SplineSet
590 681 m 1,0,-1
 590 0 l 1,1,-1
 450 0 l 1,2,-1
 107 647 l 1,3,-1
 107 19 l 1,4,-1
 162 19 l 1,5,-1
 162 0 l 1,6,-1
 25 0 l 1,7,-1
 25 19 l 1,8,-1
 80 19 l 1,9,-1
 80 681 l 1,10,-1
 25 681 l 1,11,-1
 25 700 l 1,12,-1
 301 700 l 1,13,-1
 563 198 l 1,14,-1
 563 681 l 1,15,-1
 508 681 l 1,16,-1
 508 700 l 1,17,-1
 645 700 l 1,18,-1
 645 681 l 1,19,-1
 590 681 l 1,0,-1
472.5 782 m 128,-1,21
 450 752 450 752 417 752 c 128,-1,22
 384 752 384 752 331 772 c 128,-1,23
 278 792 278 792 259 792 c 0,24,25
 221 792 221 792 204 751 c 1,26,-1
 192 755 l 1,27,28
 214.708154506 826.618025751 214.708154506 826.618025751 229.354077253 851.809012876 c 128,-1,29
 244 877 244 877 260 885 c 128,-1,30
 276 893 276 893 301 893 c 128,-1,31
 326 893 326 893 376.5 873 c 128,-1,32
 427 853 427 853 444 853 c 0,33,34
 488 853 488 853 502 895 c 1,35,-1
 515 891 l 1,36,20
 495 812 495 812 472.5 782 c 128,-1,21
EndSplineSet
EndChar

StartChar: Ograve
Encoding: 210 210 153
Width: 748
Flags: MW
LayerCount: 2
Fore
SplineSet
501 309 m 2,0,-1
 501 383 l 2,1,2
 501 566.125 501 566.125 483 614.5 c 0,3,4
 462.555555556 669.444444444 462.555555556 669.444444444 426 682.5 c 0,5,6
 405 690 405 690 375 690 c 128,-1,7
 345 690 345 690 323.5 682 c 128,-1,8
 302 674 302 674 288 654 c 128,-1,9
 274 634 274 634 265.5 612 c 128,-1,10
 257 590 257 590 252.5 550 c 0,11,12
 246 492.222222222 246 492.222222222 246 379 c 2,13,-1
 246 307 l 2,14,15
 246 184.6 246 184.6 255.5 133.3 c 128,-1,16
 265 82 265 82 279 60 c 0,17,18
 310.181818182 11 310.181818182 11 375 11 c 0,19,20
 454 11 454 11 477.5 77.5 c 128,-1,21
 501 144 501 144 501 309 c 2,0,-1
123.5 80.5 m 128,-1,23
 41 171 41 171 41 342.5 c 128,-1,24
 41 514 41 514 129.5 612.5 c 128,-1,25
 218 711 218 711 380 711 c 128,-1,26
 542 711 542 711 624.5 617.5 c 128,-1,27
 707 524 707 524 707 352 c 128,-1,28
 707 180 707 180 623.5 85 c 128,-1,29
 540 -10 540 -10 373 -10 c 128,-1,22
 206 -10 206 -10 123.5 80.5 c 128,-1,23
356 905 m 1,30,-1
 471 743 l 1,31,-1
 463 733 l 1,32,-1
 304 798 l 2,33,34
 260 816 260 816 260 856 c 0,35,36
 260 873 260 873 271.5 886 c 128,-1,37
 283 899 283 899 308 901 c 2,38,-1
 356 905 l 1,30,-1
EndSplineSet
EndChar

StartChar: Oacute
Encoding: 211 211 154
Width: 748
Flags: MW
LayerCount: 2
Fore
SplineSet
501 309 m 2,0,-1
 501 383 l 2,1,2
 501 566.125 501 566.125 483 614.5 c 0,3,4
 462.555555556 669.444444444 462.555555556 669.444444444 426 682.5 c 0,5,6
 405 690 405 690 375 690 c 128,-1,7
 345 690 345 690 323.5 682 c 128,-1,8
 302 674 302 674 288 654 c 128,-1,9
 274 634 274 634 265.5 612 c 128,-1,10
 257 590 257 590 252.5 550 c 0,11,12
 246 492.222222222 246 492.222222222 246 379 c 2,13,-1
 246 307 l 2,14,15
 246 184.6 246 184.6 255.5 133.3 c 128,-1,16
 265 82 265 82 279 60 c 0,17,18
 310.181818182 11 310.181818182 11 375 11 c 0,19,20
 454 11 454 11 477.5 77.5 c 128,-1,21
 501 144 501 144 501 309 c 2,0,-1
123.5 80.5 m 128,-1,23
 41 171 41 171 41 342.5 c 128,-1,24
 41 514 41 514 129.5 612.5 c 128,-1,25
 218 711 218 711 380 711 c 128,-1,26
 542 711 542 711 624.5 617.5 c 128,-1,27
 707 524 707 524 707 352 c 128,-1,28
 707 180 707 180 623.5 85 c 128,-1,29
 540 -10 540 -10 373 -10 c 128,-1,22
 206 -10 206 -10 123.5 80.5 c 128,-1,23
288 743 m 1,30,-1
 403 905 l 1,31,-1
 451 901 l 2,32,33
 476 899 476 899 487.5 886 c 128,-1,34
 499 873 499 873 499 856 c 0,35,36
 499 816 499 816 455 798 c 2,37,-1
 296 733 l 1,38,-1
 288 743 l 1,30,-1
EndSplineSet
EndChar

StartChar: Ocircumflex
Encoding: 212 212 155
Width: 748
Flags: MW
LayerCount: 2
Fore
SplineSet
501 309 m 2,0,-1
 501 383 l 2,1,2
 501 566.125 501 566.125 483 614.5 c 0,3,4
 462.555555556 669.444444444 462.555555556 669.444444444 426 682.5 c 0,5,6
 405 690 405 690 375 690 c 128,-1,7
 345 690 345 690 323.5 682 c 128,-1,8
 302 674 302 674 288 654 c 128,-1,9
 274 634 274 634 265.5 612 c 128,-1,10
 257 590 257 590 252.5 550 c 0,11,12
 246 492.222222222 246 492.222222222 246 379 c 2,13,-1
 246 307 l 2,14,15
 246 184.6 246 184.6 255.5 133.3 c 128,-1,16
 265 82 265 82 279 60 c 0,17,18
 310.181818182 11 310.181818182 11 375 11 c 0,19,20
 454 11 454 11 477.5 77.5 c 128,-1,21
 501 144 501 144 501 309 c 2,0,-1
123.5 80.5 m 128,-1,23
 41 171 41 171 41 342.5 c 128,-1,24
 41 514 41 514 129.5 612.5 c 128,-1,25
 218 711 218 711 380 711 c 128,-1,26
 542 711 542 711 624.5 617.5 c 128,-1,27
 707 524 707 524 707 352 c 128,-1,28
 707 180 707 180 623.5 85 c 128,-1,29
 540 -10 540 -10 373 -10 c 128,-1,22
 206 -10 206 -10 123.5 80.5 c 128,-1,23
224 743 m 1,30,-1
 330 891 l 1,31,32
 358 907 358 907 385 907 c 0,33,34
 432 907 432 907 455 867 c 2,35,-1
 529 743 l 1,36,-1
 520 733 l 1,37,-1
 378 801 l 1,38,-1
 232 733 l 1,39,-1
 224 743 l 1,30,-1
EndSplineSet
EndChar

StartChar: Otilde
Encoding: 213 213 156
Width: 748
Flags: MW
LayerCount: 2
Fore
SplineSet
501 309 m 2,0,-1
 501 383 l 2,1,2
 501 566.125 501 566.125 483 614.5 c 0,3,4
 462.555555556 669.444444444 462.555555556 669.444444444 426 682.5 c 0,5,6
 405 690 405 690 375 690 c 128,-1,7
 345 690 345 690 323.5 682 c 128,-1,8
 302 674 302 674 288 654 c 128,-1,9
 274 634 274 634 265.5 612 c 128,-1,10
 257 590 257 590 252.5 550 c 0,11,12
 246 492.222222222 246 492.222222222 246 379 c 2,13,-1
 246 307 l 2,14,15
 246 184.6 246 184.6 255.5 133.3 c 128,-1,16
 265 82 265 82 279 60 c 0,17,18
 310.181818182 11 310.181818182 11 375 11 c 0,19,20
 454 11 454 11 477.5 77.5 c 128,-1,21
 501 144 501 144 501 309 c 2,0,-1
123.5 80.5 m 128,-1,23
 41 171 41 171 41 342.5 c 128,-1,24
 41 514 41 514 129.5 612.5 c 128,-1,25
 218 711 218 711 380 711 c 128,-1,26
 542 711 542 711 624.5 617.5 c 128,-1,27
 707 524 707 524 707 352 c 128,-1,28
 707 180 707 180 623.5 85 c 128,-1,29
 540 -10 540 -10 373 -10 c 128,-1,22
 206 -10 206 -10 123.5 80.5 c 128,-1,23
506.5 782 m 128,-1,31
 484 752 484 752 451 752 c 128,-1,32
 418 752 418 752 365 772 c 128,-1,33
 312 792 312 792 293 792 c 0,34,35
 255 792 255 792 238 751 c 1,36,-1
 226 755 l 1,37,38
 248.708154506 826.618025751 248.708154506 826.618025751 263.354077253 851.809012876 c 128,-1,39
 278 877 278 877 294 885 c 128,-1,40
 310 893 310 893 335 893 c 128,-1,41
 360 893 360 893 410.5 873 c 128,-1,42
 461 853 461 853 478 853 c 0,43,44
 522 853 522 853 536 895 c 1,45,-1
 549 891 l 1,46,30
 529 812 529 812 506.5 782 c 128,-1,31
EndSplineSet
EndChar

StartChar: Odieresis
Encoding: 214 214 157
Width: 748
Flags: MW
LayerCount: 2
Fore
SplineSet
501 309 m 2,0,-1
 501 383 l 2,1,2
 501 566.125 501 566.125 483 614.5 c 0,3,4
 462.555555556 669.444444444 462.555555556 669.444444444 426 682.5 c 0,5,6
 405 690 405 690 375 690 c 128,-1,7
 345 690 345 690 323.5 682 c 128,-1,8
 302 674 302 674 288 654 c 128,-1,9
 274 634 274 634 265.5 612 c 128,-1,10
 257 590 257 590 252.5 550 c 0,11,12
 246 492.222222222 246 492.222222222 246 379 c 2,13,-1
 246 307 l 2,14,15
 246 184.6 246 184.6 255.5 133.3 c 128,-1,16
 265 82 265 82 279 60 c 0,17,18
 310.181818182 11 310.181818182 11 375 11 c 0,19,20
 454 11 454 11 477.5 77.5 c 128,-1,21
 501 144 501 144 501 309 c 2,0,-1
123.5 80.5 m 128,-1,23
 41 171 41 171 41 342.5 c 128,-1,24
 41 514 41 514 129.5 612.5 c 128,-1,25
 218 711 218 711 380 711 c 128,-1,26
 542 711 542 711 624.5 617.5 c 128,-1,27
 707 524 707 524 707 352 c 128,-1,28
 707 180 707 180 623.5 85 c 128,-1,29
 540 -10 540 -10 373 -10 c 128,-1,22
 206 -10 206 -10 123.5 80.5 c 128,-1,23
398 821 m 128,-1,31
 398 852 398 852 417.5 873 c 128,-1,32
 437 894 437 894 471.5 894 c 128,-1,33
 506 894 506 894 526.5 875.5 c 128,-1,34
 547 857 547 857 547 822 c 128,-1,35
 547 787 547 787 527.5 766.5 c 128,-1,36
 508 746 508 746 471 746 c 128,-1,37
 434 746 434 746 416 768 c 128,-1,30
 398 790 398 790 398 821 c 128,-1,31
205 821 m 128,-1,39
 205 852 205 852 224.5 873 c 128,-1,40
 244 894 244 894 278.5 894 c 128,-1,41
 313 894 313 894 333.5 875.5 c 128,-1,42
 354 857 354 857 354 822 c 128,-1,43
 354 787 354 787 334.5 766.5 c 128,-1,44
 315 746 315 746 278 746 c 128,-1,45
 241 746 241 746 223 768 c 128,-1,38
 205 790 205 790 205 821 c 128,-1,39
EndSplineSet
EndChar

StartChar: Oslash
Encoding: 216 216 158
Width: 748
Flags: MW
LayerCount: 2
Fore
SplineSet
41 339 m 0,0,1
 41 514 41 514 129.5 612.5 c 128,-1,2
 218 711 218 711 383 711 c 0,3,4
 442 711 442 711 488 698 c 1,5,-1
 515 769 l 1,6,-1
 540 759 l 1,7,-1
 514 690 l 1,8,9
 707 622 707 622 707 352 c 0,10,11
 707 180 707 180 623.5 85 c 128,-1,12
 540 -10 540 -10 371 -10 c 0,13,14
 308 -10 308 -10 254 4 c 1,15,-1
 225 -74 l 1,16,-1
 200 -64 l 1,17,-1
 229 12 l 1,18,19
 41 80 41 80 41 339 c 0,0,1
501 309 m 2,20,-1
 501 383 l 2,21,22
 501 552 501 552 484 610 c 1,23,-1
 277 64 l 1,24,25
 306 11 306 11 380 11 c 128,-1,26
 454 11 454 11 477.5 77.5 c 128,-1,27
 501 144 501 144 501 309 c 2,20,-1
246 307 m 2,28,29
 246 158 246 158 262 101 c 1,30,-1
 468 645 l 1,31,32
 441 690 441 690 375 690 c 0,33,34
 313.2 690 313.2 690 288 654 c 0,35,36
 259.642553191 613.489361702 259.642553191 613.489361702 253.821276596 561.744680851 c 0,37,38
 246 492.222222222 246 492.222222222 246 379 c 2,39,-1
 246 307 l 2,28,29
EndSplineSet
EndChar

StartChar: Oslashacute
Encoding: 510 510 159
Width: 748
Flags: MW
LayerCount: 2
Fore
SplineSet
41 339 m 0,0,1
 41 514 41 514 129.5 612.5 c 128,-1,2
 218 711 218 711 383 711 c 0,3,4
 442 711 442 711 488 698 c 1,5,-1
 515 769 l 1,6,-1
 540 759 l 1,7,-1
 514 690 l 1,8,9
 707 622 707 622 707 352 c 0,10,11
 707 180 707 180 623.5 85 c 128,-1,12
 540 -10 540 -10 371 -10 c 0,13,14
 308 -10 308 -10 254 4 c 1,15,-1
 225 -74 l 1,16,-1
 200 -64 l 1,17,-1
 229 12 l 1,18,19
 41 80 41 80 41 339 c 0,0,1
501 309 m 2,20,-1
 501 383 l 2,21,22
 501 552 501 552 484 610 c 1,23,-1
 277 64 l 1,24,25
 306 11 306 11 380 11 c 128,-1,26
 454 11 454 11 477.5 77.5 c 128,-1,27
 501 144 501 144 501 309 c 2,20,-1
246 307 m 2,28,29
 246 158 246 158 262 101 c 1,30,-1
 468 645 l 1,31,32
 441 690 441 690 375 690 c 0,33,34
 313.2 690 313.2 690 288 654 c 0,35,36
 259.642553191 613.489361702 259.642553191 613.489361702 253.821276596 561.744680851 c 0,37,38
 246 492.222222222 246 492.222222222 246 379 c 2,39,-1
 246 307 l 2,28,29
323 743 m 1,40,-1
 438 905 l 1,41,-1
 486 901 l 2,42,43
 511 899 511 899 522.5 886 c 128,-1,44
 534 873 534 873 534 856 c 0,45,46
 534 816 534 816 490 798 c 2,47,-1
 331 733 l 1,48,-1
 323 743 l 1,40,-1
EndSplineSet
EndChar

StartChar: Ugrave
Encoding: 217 217 160
Width: 683
Flags: MW
LayerCount: 2
Fore
SplineSet
302.5 72 m 128,-1,1
 334 23 334 23 416 23 c 128,-1,2
 498 23 498 23 542 74 c 128,-1,3
 586 125 586 125 586 229 c 2,4,-1
 586 681 l 1,5,-1
 521 681 l 1,6,-1
 521 700 l 1,7,-1
 667 700 l 1,8,-1
 667 681 l 1,9,-1
 612 681 l 1,10,-1
 612 236 l 2,11,12
 612 112 612 112 557 51 c 128,-1,13
 502 -10 502 -10 362.5 -10 c 128,-1,14
 223 -10 223 -10 149.5 48 c 128,-1,15
 76 106 76 106 76 247 c 2,16,-1
 76 681 l 1,17,-1
 21 681 l 1,18,-1
 21 700 l 1,19,-1
 336 700 l 1,20,-1
 336 681 l 1,21,-1
 271 681 l 1,22,-1
 271 213 l 2,23,0
 271 121 271 121 302.5 72 c 128,-1,1
350 905 m 1,24,-1
 465 743 l 1,25,-1
 457 733 l 1,26,-1
 298 798 l 2,27,28
 254 816 254 816 254 856 c 0,29,30
 254 873 254 873 265.5 886 c 128,-1,31
 277 899 277 899 302 901 c 2,32,-1
 350 905 l 1,24,-1
EndSplineSet
EndChar

StartChar: Uacute
Encoding: 218 218 161
Width: 683
Flags: MW
LayerCount: 2
Fore
SplineSet
302.5 72 m 128,-1,1
 334 23 334 23 416 23 c 128,-1,2
 498 23 498 23 542 74 c 128,-1,3
 586 125 586 125 586 229 c 2,4,-1
 586 681 l 1,5,-1
 521 681 l 1,6,-1
 521 700 l 1,7,-1
 667 700 l 1,8,-1
 667 681 l 1,9,-1
 612 681 l 1,10,-1
 612 236 l 2,11,12
 612 112 612 112 557 51 c 128,-1,13
 502 -10 502 -10 362.5 -10 c 128,-1,14
 223 -10 223 -10 149.5 48 c 128,-1,15
 76 106 76 106 76 247 c 2,16,-1
 76 681 l 1,17,-1
 21 681 l 1,18,-1
 21 700 l 1,19,-1
 336 700 l 1,20,-1
 336 681 l 1,21,-1
 271 681 l 1,22,-1
 271 213 l 2,23,0
 271 121 271 121 302.5 72 c 128,-1,1
282 743 m 1,24,-1
 397 905 l 1,25,-1
 445 901 l 2,26,27
 470 899 470 899 481.5 886 c 128,-1,28
 493 873 493 873 493 856 c 0,29,30
 493 816 493 816 449 798 c 2,31,-1
 290 733 l 1,32,-1
 282 743 l 1,24,-1
EndSplineSet
EndChar

StartChar: Ucircumflex
Encoding: 219 219 162
Width: 683
Flags: MW
LayerCount: 2
Fore
SplineSet
302.5 72 m 128,-1,1
 334 23 334 23 416 23 c 128,-1,2
 498 23 498 23 542 74 c 128,-1,3
 586 125 586 125 586 229 c 2,4,-1
 586 681 l 1,5,-1
 521 681 l 1,6,-1
 521 700 l 1,7,-1
 667 700 l 1,8,-1
 667 681 l 1,9,-1
 612 681 l 1,10,-1
 612 236 l 2,11,12
 612 112 612 112 557 51 c 128,-1,13
 502 -10 502 -10 362.5 -10 c 128,-1,14
 223 -10 223 -10 149.5 48 c 128,-1,15
 76 106 76 106 76 247 c 2,16,-1
 76 681 l 1,17,-1
 21 681 l 1,18,-1
 21 700 l 1,19,-1
 336 700 l 1,20,-1
 336 681 l 1,21,-1
 271 681 l 1,22,-1
 271 213 l 2,23,0
 271 121 271 121 302.5 72 c 128,-1,1
218 743 m 1,24,-1
 324 891 l 1,25,26
 352 907 352 907 379 907 c 0,27,28
 426 907 426 907 449 867 c 2,29,-1
 523 743 l 1,30,-1
 514 733 l 1,31,-1
 372 801 l 1,32,-1
 226 733 l 1,33,-1
 218 743 l 1,24,-1
EndSplineSet
EndChar

StartChar: Udieresis
Encoding: 220 220 163
Width: 683
Flags: MW
LayerCount: 2
Fore
SplineSet
302.5 72 m 128,-1,1
 334 23 334 23 416 23 c 128,-1,2
 498 23 498 23 542 74 c 128,-1,3
 586 125 586 125 586 229 c 2,4,-1
 586 681 l 1,5,-1
 521 681 l 1,6,-1
 521 700 l 1,7,-1
 667 700 l 1,8,-1
 667 681 l 1,9,-1
 612 681 l 1,10,-1
 612 236 l 2,11,12
 612 112 612 112 557 51 c 128,-1,13
 502 -10 502 -10 362.5 -10 c 128,-1,14
 223 -10 223 -10 149.5 48 c 128,-1,15
 76 106 76 106 76 247 c 2,16,-1
 76 681 l 1,17,-1
 21 681 l 1,18,-1
 21 700 l 1,19,-1
 336 700 l 1,20,-1
 336 681 l 1,21,-1
 271 681 l 1,22,-1
 271 213 l 2,23,0
 271 121 271 121 302.5 72 c 128,-1,1
392 821 m 128,-1,25
 392 852 392 852 411.5 873 c 128,-1,26
 431 894 431 894 465.5 894 c 128,-1,27
 500 894 500 894 520.5 875.5 c 128,-1,28
 541 857 541 857 541 822 c 128,-1,29
 541 787 541 787 521.5 766.5 c 128,-1,30
 502 746 502 746 465 746 c 128,-1,31
 428 746 428 746 410 768 c 128,-1,24
 392 790 392 790 392 821 c 128,-1,25
199 821 m 128,-1,33
 199 852 199 852 218.5 873 c 128,-1,34
 238 894 238 894 272.5 894 c 128,-1,35
 307 894 307 894 327.5 875.5 c 128,-1,36
 348 857 348 857 348 822 c 128,-1,37
 348 787 348 787 328.5 766.5 c 128,-1,38
 309 746 309 746 272 746 c 128,-1,39
 235 746 235 746 217 768 c 128,-1,32
 199 790 199 790 199 821 c 128,-1,33
EndSplineSet
EndChar

StartChar: Yacute
Encoding: 221 221 164
Width: 641
Flags: MW
LayerCount: 2
Fore
SplineSet
397 371 m 1,0,-1
 539 684 l 1,1,-1
 438 684 l 1,2,-1
 438 700 l 1,3,-1
 635 700 l 1,4,-1
 635 684 l 1,5,-1
 569 684 l 1,6,-1
 418 350 l 1,7,-1
 418 19 l 1,8,-1
 479 19 l 1,9,-1
 479 0 l 1,10,-1
 162 0 l 1,11,-1
 162 19 l 1,12,-1
 223 19 l 1,13,-1
 223 331 l 1,14,-1
 53 684 l 1,15,-1
 6 684 l 1,16,-1
 6 700 l 1,17,-1
 326 700 l 1,18,-1
 326 684 l 1,19,-1
 261 684 l 1,20,-1
 397 371 l 1,0,-1
261 743 m 1,21,-1
 376 905 l 1,22,-1
 424 901 l 2,23,24
 449 899 449 899 460.5 886 c 128,-1,25
 472 873 472 873 472 856 c 0,26,27
 472 816 472 816 428 798 c 2,28,-1
 269 733 l 1,29,-1
 261 743 l 1,21,-1
EndSplineSet
EndChar

StartChar: Thorn
Encoding: 222 222 165
Width: 634
Flags: MW
LayerCount: 2
Fore
SplineSet
275 681 m 1,0,-1
 275 566 l 1,1,-1
 309 566 l 2,2,3
 460 566 460 566 534 522.5 c 128,-1,4
 608 479 608 479 608 367 c 0,5,6
 608 242.775280899 608 242.775280899 517.5 196 c 0,7,8
 434.304347826 153 434.304347826 153 283 153 c 2,9,-1
 275 153 l 1,10,-1
 275 19 l 1,11,-1
 400 19 l 1,12,-1
 400 0 l 1,13,-1
 15 0 l 1,14,-1
 15 19 l 1,15,-1
 80 19 l 1,16,-1
 80 681 l 1,17,-1
 15 681 l 1,18,-1
 15 700 l 1,19,-1
 400 700 l 1,20,-1
 400 681 l 1,21,-1
 275 681 l 1,0,-1
275 547 m 1,22,-1
 275 172 l 1,23,-1
 296 172 l 2,24,25
 356 172 356 172 379 213 c 128,-1,26
 402 254 402 254 402 346 c 2,27,-1
 402 394 l 2,28,29
 402 479 402 479 380.5 513 c 128,-1,30
 359 547 359 547 302 547 c 2,31,-1
 275 547 l 1,22,-1
EndSplineSet
EndChar

StartChar: germandbls
Encoding: 223 223 166
Width: 674
Flags: MW
LayerCount: 2
Fore
SplineSet
307 -10 m 1,0,-1
 307 169 l 1,1,-1
 319 169 l 1,2,3
 369 12 369 12 480 12 c 0,4,5
 572 12 572 12 572 78 c 0,6,7
 572 109 572 109 546 129 c 128,-1,8
 520 149 520 149 482.5 162.5 c 128,-1,9
 445 176 445 176 407.5 193.5 c 128,-1,10
 370 211 370 211 344 248 c 128,-1,11
 318 285 318 285 318 333 c 128,-1,12
 318 381 318 381 336.5 416.5 c 128,-1,13
 355 452 355 452 381.5 478 c 128,-1,14
 408 504 408 504 434 529 c 0,15,16
 497 589.576923077 497 589.576923077 497 643.288461538 c 128,-1,17
 497 697 497 697 463 724 c 128,-1,18
 429 751 429 751 363.5 751 c 128,-1,19
 298 751 298 751 274.5 712 c 128,-1,20
 251 673 251 673 251 604 c 2,21,-1
 251 0 l 1,22,-1
 -11 0 l 1,23,-1
 -11 18 l 1,24,-1
 65 18 l 1,25,-1
 65 469 l 2,26,27
 65 634 65 634 141.5 703.5 c 128,-1,28
 218 773 218 773 353 773 c 0,29,30
 447 773 447 773 486.5 737 c 128,-1,31
 526 701 526 701 526 649 c 0,32,33
 526 613 526 613 507.5 579.5 c 128,-1,34
 489 546 489 546 467.5 526 c 128,-1,35
 446 506 446 506 427.5 480 c 128,-1,36
 409 454 409 454 409 431 c 128,-1,37
 409 408 409 408 427.5 391 c 128,-1,38
 446 374 446 374 474 364 c 128,-1,39
 502 354 502 354 534 338 c 128,-1,40
 566 322 566 322 594 303.5 c 128,-1,41
 622 285 622 285 640.5 248 c 128,-1,42
 659 211 659 211 659 161 c 0,43,44
 659 85 659 85 608.5 37.5 c 128,-1,45
 558 -10 558 -10 495 -10 c 128,-1,46
 432 -10 432 -10 381 19 c 0,47,48
 360 31 360 31 350 31 c 0,49,50
 328 31 328 31 319 -10 c 1,51,-1
 307 -10 l 1,0,-1
EndSplineSet
EndChar

StartChar: aacute
Encoding: 225 225 168
Width: 549
Flags: MW
LayerCount: 2
Fore
SplineSet
250 235 m 2,0,-1
 279 235 l 1,1,-1
 279 312 l 2,2,3
 279 407 279 407 268.5 439.5 c 128,-1,4
 258 472 258 472 228 472 c 0,5,6
 210 472 210 472 195.5 462.5 c 128,-1,7
 181 453 181 453 181 436.5 c 128,-1,8
 181 420 181 420 187 403 c 1,9,-1
 212 403 l 1,10,11
 220 382 220 382 220 352.5 c 128,-1,12
 220 323 220 323 195 301.5 c 128,-1,13
 170 280 170 280 132 280 c 0,14,15
 46 280 46 280 46 363 c 0,16,17
 46 486 46 486 255 486 c 0,18,19
 374 486 374 486 419.5 445.5 c 128,-1,20
 465 405 465 405 465 297 c 2,21,-1
 465 94 l 2,22,23
 465 42 465 42 494 42 c 0,24,25
 528 42 528 42 534 145 c 1,26,-1
 549 144 l 1,27,28
 545 56 545 56 516 23 c 128,-1,29
 487 -10 487 -10 421 -10 c 0,30,31
 301 -10 301 -10 283 64 c 1,32,33
 270 26 270 26 244 8 c 128,-1,34
 218 -10 218 -10 168 -10 c 0,35,36
 20 -10 20 -10 20 111 c 0,37,38
 20 182 20 182 76.5 208.5 c 128,-1,39
 133 235 133 235 250 235 c 2,0,-1
215.5 45 m 128,-1,41
 221 30 221 30 236.5 30 c 128,-1,42
 252 30 252 30 265.5 55.5 c 128,-1,43
 279 81 279 81 279 126 c 2,44,-1
 279 219 l 1,45,-1
 272 219 l 2,46,47
 210 219 210 219 210 128 c 2,48,-1
 210 112 l 2,49,40
 210 60 210 60 215.5 45 c 128,-1,41
188 547 m 1,50,-1
 251 738 l 1,51,-1
 298 748 l 2,52,53
 329 755 329 755 345.5 740.5 c 128,-1,54
 362 726 362 726 362 701.5 c 128,-1,55
 362 677 362 677 333 651 c 1,56,-1
 199 540 l 1,57,-1
 188 547 l 1,50,-1
EndSplineSet
EndChar

StartChar: atilde
Encoding: 227 227 170
Width: 549
Flags: MW
LayerCount: 2
Fore
SplineSet
250 235 m 2,0,-1
 279 235 l 1,1,-1
 279 312 l 2,2,3
 279 407 279 407 268.5 439.5 c 128,-1,4
 258 472 258 472 228 472 c 0,5,6
 210 472 210 472 195.5 462.5 c 128,-1,7
 181 453 181 453 181 436.5 c 128,-1,8
 181 420 181 420 187 403 c 1,9,-1
 212 403 l 1,10,11
 220 382 220 382 220 352.5 c 128,-1,12
 220 323 220 323 195 301.5 c 128,-1,13
 170 280 170 280 132 280 c 0,14,15
 46 280 46 280 46 363 c 0,16,17
 46 486 46 486 255 486 c 0,18,19
 374 486 374 486 419.5 445.5 c 128,-1,20
 465 405 465 405 465 297 c 2,21,-1
 465 94 l 2,22,23
 465 42 465 42 494 42 c 0,24,25
 528 42 528 42 534 145 c 1,26,-1
 549 144 l 1,27,28
 545 56 545 56 516 23 c 128,-1,29
 487 -10 487 -10 421 -10 c 0,30,31
 301 -10 301 -10 283 64 c 1,32,33
 270 26 270 26 244 8 c 128,-1,34
 218 -10 218 -10 168 -10 c 0,35,36
 20 -10 20 -10 20 111 c 0,37,38
 20 182 20 182 76.5 208.5 c 128,-1,39
 133 235 133 235 250 235 c 2,0,-1
215.5 45 m 128,-1,41
 221 30 221 30 236.5 30 c 128,-1,42
 252 30 252 30 265.5 55.5 c 128,-1,43
 279 81 279 81 279 126 c 2,44,-1
 279 219 l 1,45,-1
 272 219 l 2,46,47
 210 219 210 219 210 128 c 2,48,-1
 210 112 l 2,49,40
 210 60 210 60 215.5 45 c 128,-1,41
433 710 m 1,50,51
 395.307692308 563 395.307692308 563 325.5 563 c 0,52,53
 292 563 292 563 239 583 c 128,-1,54
 186 603 186 603 167 603 c 0,55,56
 129 603 129 603 112 562 c 1,57,-1
 100 566 l 1,58,59
 123 641 123 641 148 676.5 c 128,-1,60
 173 712 173 712 217 712 c 0,61,62
 244 712 244 712 294.5 692 c 128,-1,63
 345 672 345 672 362 672 c 0,64,65
 406 672 406 672 420 714 c 1,66,-1
 433 710 l 1,50,51
EndSplineSet
EndChar

StartChar: aring
Encoding: 229 229 172
Width: 549
Flags: MW
LayerCount: 2
Fore
SplineSet
250 235 m 2,0,-1
 279 235 l 1,1,-1
 279 312 l 2,2,3
 279 407 279 407 268.5 439.5 c 128,-1,4
 258 472 258 472 228 472 c 0,5,6
 210 472 210 472 195.5 462.5 c 128,-1,7
 181 453 181 453 181 436.5 c 128,-1,8
 181 420 181 420 187 403 c 1,9,-1
 212 403 l 1,10,11
 220 382 220 382 220 352.5 c 128,-1,12
 220 323 220 323 195 301.5 c 128,-1,13
 170 280 170 280 132 280 c 0,14,15
 46 280 46 280 46 363 c 0,16,17
 46 486 46 486 255 486 c 0,18,19
 374 486 374 486 419.5 445.5 c 128,-1,20
 465 405 465 405 465 297 c 2,21,-1
 465 94 l 2,22,23
 465 42 465 42 494 42 c 0,24,25
 528 42 528 42 534 145 c 1,26,-1
 549 144 l 1,27,28
 545 56 545 56 516 23 c 128,-1,29
 487 -10 487 -10 421 -10 c 0,30,31
 301 -10 301 -10 283 64 c 1,32,33
 270 26 270 26 244 8 c 128,-1,34
 218 -10 218 -10 168 -10 c 0,35,36
 20 -10 20 -10 20 111 c 0,37,38
 20 182 20 182 76.5 208.5 c 128,-1,39
 133 235 133 235 250 235 c 2,0,-1
215.5 45 m 128,-1,41
 221 30 221 30 236.5 30 c 128,-1,42
 252 30 252 30 265.5 55.5 c 128,-1,43
 279 81 279 81 279 126 c 2,44,-1
 279 219 l 1,45,-1
 272 219 l 2,46,47
 210 219 210 219 210 128 c 2,48,-1
 210 112 l 2,49,40
 210 60 210 60 215.5 45 c 128,-1,41
186 632 m 0,50,51
 186 559 186 559 258 559 c 0,52,53
 293 559 293 559 311 579.5 c 128,-1,54
 329 600 329 600 329 631 c 128,-1,55
 329 662 329 662 311 682.5 c 128,-1,56
 293 703 293 703 256.5 703 c 128,-1,57
 220 703 220 703 203 682.5 c 128,-1,58
 186 662 186 662 186 632 c 0,50,51
181 561 m 128,-1,60
 156 587 156 587 156 630 c 128,-1,61
 156 673 156 673 182.5 700 c 128,-1,62
 209 727 209 727 258 727 c 128,-1,63
 307 727 307 727 332.5 701.5 c 128,-1,64
 358 676 358 676 358 632.5 c 128,-1,65
 358 589 358 589 331.5 562 c 128,-1,66
 305 535 305 535 255.5 535 c 128,-1,59
 206 535 206 535 181 561 c 128,-1,60
EndSplineSet
EndChar

StartChar: aringacute
Encoding: 507 507 173
Width: 549
Flags: MW
LayerCount: 2
Fore
SplineSet
250 235 m 2,0,-1
 279 235 l 1,1,-1
 279 312 l 2,2,3
 279 407 279 407 268.5 439.5 c 128,-1,4
 258 472 258 472 228 472 c 0,5,6
 210 472 210 472 195.5 462.5 c 128,-1,7
 181 453 181 453 181 436.5 c 128,-1,8
 181 420 181 420 187 403 c 1,9,-1
 212 403 l 1,10,11
 220 382 220 382 220 352.5 c 128,-1,12
 220 323 220 323 195 301.5 c 128,-1,13
 170 280 170 280 132 280 c 0,14,15
 46 280 46 280 46 363 c 0,16,17
 46 486 46 486 255 486 c 0,18,19
 374 486 374 486 419.5 445.5 c 128,-1,20
 465 405 465 405 465 297 c 2,21,-1
 465 94 l 2,22,23
 465 42 465 42 494 42 c 0,24,25
 528 42 528 42 534 145 c 1,26,-1
 549 144 l 1,27,28
 545 56 545 56 516 23 c 128,-1,29
 487 -10 487 -10 421 -10 c 0,30,31
 301 -10 301 -10 283 64 c 1,32,33
 270 26 270 26 244 8 c 128,-1,34
 218 -10 218 -10 168 -10 c 0,35,36
 20 -10 20 -10 20 111 c 0,37,38
 20 182 20 182 76.5 208.5 c 128,-1,39
 133 235 133 235 250 235 c 2,0,-1
215.5 45 m 128,-1,41
 221 30 221 30 236.5 30 c 128,-1,42
 252 30 252 30 265.5 55.5 c 128,-1,43
 279 81 279 81 279 126 c 2,44,-1
 279 219 l 1,45,-1
 272 219 l 2,46,47
 210 219 210 219 210 128 c 2,48,-1
 210 112 l 2,49,40
 210 60 210 60 215.5 45 c 128,-1,41
186 607 m 0,50,51
 186 534 186 534 258 534 c 0,52,53
 293 534 293 534 311 554.5 c 128,-1,54
 329 575 329 575 329 606 c 128,-1,55
 329 637 329 637 311 657.5 c 128,-1,56
 293 678 293 678 256.5 678 c 128,-1,57
 220 678 220 678 203 657.5 c 128,-1,58
 186 637 186 637 186 607 c 0,50,51
181 536 m 128,-1,60
 156 562 156 562 156 605 c 128,-1,61
 156 648 156 648 182.5 675 c 128,-1,62
 209 702 209 702 258 702 c 128,-1,63
 307 702 307 702 332.5 676.5 c 128,-1,64
 358 651 358 651 358 607.5 c 128,-1,65
 358 564 358 564 331.5 537 c 128,-1,66
 305 510 305 510 255.5 510 c 128,-1,59
 206 510 206 510 181 536 c 128,-1,60
165 713 m 1,67,-1
 280 875 l 1,68,-1
 328 871 l 2,69,70
 353 869 353 869 364.5 856 c 128,-1,71
 376 843 376 843 376 826 c 0,72,73
 376 786 376 786 332 768 c 2,74,-1
 173 703 l 1,75,-1
 165 713 l 1,67,-1
EndSplineSet
EndChar

StartChar: ae
Encoding: 230 230 174
Width: 772
Flags: MW
LayerCount: 2
Fore
SplineSet
279 235 m 1,0,-1
 279 312 l 2,1,2
 279 407 279 407 268.5 439.5 c 128,-1,3
 258 472 258 472 228 472 c 0,4,5
 210 472 210 472 195.5 462.5 c 128,-1,6
 181 453 181 453 181 436.5 c 128,-1,7
 181 420 181 420 187 403 c 1,8,-1
 212 403 l 1,9,10
 220 382 220 382 220 352.5 c 128,-1,11
 220 323 220 323 195 301.5 c 128,-1,12
 170 280 170 280 132 280 c 0,13,14
 46 280 46 280 46 363 c 0,15,16
 46 424 46 424 98 455 c 128,-1,17
 150 486 150 486 237 486 c 0,18,19
 346 486 346 486 389 423 c 1,20,21
 436 486 436 486 541 486 c 0,22,23
 755 486 755 486 746 258 c 1,24,-1
 464 258 l 1,25,-1
 464 219 l 2,26,27
 464 121 464 121 489 71 c 128,-1,28
 514 21 514 21 575.5 21 c 0,29,30
 692.271186441 21 692.271186441 21 728 145 c 1,31,-1
 746 142 l 1,32,33
 727 70 727 70 677.5 30 c 128,-1,34
 628 -10 628 -10 529 -10 c 0,35,36
 390 -10 390 -10 328 70 c 1,37,38
 294 -10 294 -10 173 -10 c 0,39,40
 20 -10 20 -10 20 111 c 0,41,42
 20 182 20 182 76.5 208.5 c 128,-1,43
 133 235 133 235 250 235 c 2,44,-1
 279 235 l 1,0,-1
465 278 m 1,45,-1
 568 278 l 1,46,-1
 568 327 l 2,47,48
 568 408 568 408 558.5 437.5 c 128,-1,49
 549 467 549 467 520.5 467 c 128,-1,50
 492 467 492 467 478.5 435.5 c 128,-1,51
 465 404 465 404 465 327 c 2,52,-1
 465 278 l 1,45,-1
219.5 46 m 128,-1,54
 229 30 229 30 247.5 30 c 128,-1,55
 266 30 266 30 285.5 44.5 c 128,-1,56
 305 59 305 59 314 89 c 1,57,58
 282 141 282 141 279 218 c 1,59,-1
 279 219 l 1,60,-1
 272 219 l 2,61,62
 210 219 210 219 210 128 c 2,63,-1
 210 112 l 2,64,53
 210 62 210 62 219.5 46 c 128,-1,54
EndSplineSet
EndChar

StartChar: ccedilla
Encoding: 231 231 176
Width: 483
Flags: MW
LayerCount: 2
Fore
SplineSet
290 468 m 0,0,1
 246 468 246 468 227 420 c 128,-1,2
 208 372 208 372 208 261 c 2,3,-1
 208 209 l 2,4,5
 208 110 208 110 230 67 c 128,-1,6
 252 24 252 24 311 24 c 128,-1,7
 370 24 370 24 405 64 c 128,-1,8
 440 104 440 104 450 155 c 1,9,-1
 468 153 l 1,10,11
 449.433990895 71.3095599393 449.433990895 71.3095599393 405.5 34.5 c 0,12,13
 360.525862069 -3.18103448276 360.525862069 -3.18103448276 281 -9 c 1,14,-1
 254 -55 l 1,15,16
 275 -52 275 -52 287 -52 c 0,17,18
 392 -52 392 -52 392 -141 c 0,19,20
 392 -182 392 -182 359 -213.5 c 128,-1,21
 326 -245 326 -245 256 -245 c 0,22,23
 210 -245 210 -245 181.5 -226.5 c 128,-1,24
 153 -208 153 -208 153 -183 c 128,-1,25
 153 -158 153 -158 165 -146 c 128,-1,26
 177 -134 177 -134 196 -134 c 0,27,28
 230 -134 230 -134 242 -172 c 1,29,-1
 216 -192 l 1,30,31
 216 -206 216 -206 224 -217.5 c 128,-1,32
 232 -229 232 -229 250.5 -229 c 128,-1,33
 269 -229 269 -229 277.5 -211.5 c 128,-1,34
 286 -194 286 -194 286 -157.5 c 128,-1,35
 286 -121 286 -121 284.5 -106.5 c 0,36,37
 280.724137931 -70 280.724137931 -70 254 -70 c 0,38,39
 240 -70 240 -70 224 -74 c 1,40,-1
 221 -65 l 1,41,-1
 254 -10 l 1,42,43
 138 -9 138 -9 76.5 53 c 128,-1,44
 15 115 15 115 15 235.5 c 128,-1,45
 15 356 15 356 85.5 421 c 128,-1,46
 156 486 156 486 282 486 c 0,47,48
 371 486 371 486 418 451.5 c 128,-1,49
 465 417 465 417 465 365 c 128,-1,50
 465 313 465 313 442.5 289 c 128,-1,51
 420 265 420 265 380.5 265 c 128,-1,52
 341 265 341 265 317 286 c 128,-1,53
 293 307 293 307 293 348 c 0,54,55
 293 366 293 366 298 384 c 1,56,-1
 331 384 l 1,57,58
 338 404 338 404 338 420 c 0,59,60
 338 468 338 468 290 468 c 0,0,1
EndSplineSet
EndChar

StartChar: eacute
Encoding: 233 233 178
Width: 516
Flags: MW
LayerCount: 2
Fore
SplineSet
79.5 56.5 m 128,-1,1
 15 123 15 123 15 241.5 c 128,-1,2
 15 360 15 360 87.5 423 c 128,-1,3
 160 486 160 486 272 486 c 0,4,5
 499 486 499 486 490 258 c 1,6,-1
 208 258 l 1,7,-1
 208 219 l 2,8,9
 208 121 208 121 233 71 c 128,-1,10
 258 21 258 21 319.5 21 c 0,11,12
 436.271186441 21 436.271186441 21 472 145 c 1,13,-1
 490 142 l 1,14,15
 471 70 471 70 421.5 30 c 128,-1,16
 372 -10 372 -10 273 -10 c 0,17,0
 144 -10 144 -10 79.5 56.5 c 128,-1,1
312 278 m 1,18,-1
 312 327 l 2,19,20
 312 408 312 408 302.5 437.5 c 128,-1,21
 293 467 293 467 264.5 467 c 128,-1,22
 236 467 236 467 222.5 435.5 c 128,-1,23
 209 404 209 404 209 327 c 2,24,-1
 209 278 l 1,25,-1
 312 278 l 1,18,-1
198 547 m 1,26,-1
 261 738 l 1,27,-1
 308 748 l 2,28,29
 339 755 339 755 355.5 740.5 c 128,-1,30
 372 726 372 726 372 701.5 c 128,-1,31
 372 677 372 677 343 651 c 1,32,-1
 209 540 l 1,33,-1
 198 547 l 1,26,-1
EndSplineSet
EndChar

StartChar: edieresis
Encoding: 235 235 180
Width: 516
Flags: MW
LayerCount: 2
Fore
SplineSet
79.5 56.5 m 128,-1,1
 15 123 15 123 15 241.5 c 128,-1,2
 15 360 15 360 87.5 423 c 128,-1,3
 160 486 160 486 272 486 c 0,4,5
 499 486 499 486 490 258 c 1,6,-1
 208 258 l 1,7,-1
 208 219 l 2,8,9
 208 121 208 121 233 71 c 128,-1,10
 258 21 258 21 319.5 21 c 0,11,12
 436.271186441 21 436.271186441 21 472 145 c 1,13,-1
 490 142 l 1,14,15
 471 70 471 70 421.5 30 c 128,-1,16
 372 -10 372 -10 273 -10 c 0,17,0
 144 -10 144 -10 79.5 56.5 c 128,-1,1
209 278 m 1,18,-1
 312 278 l 1,19,-1
 312 327 l 2,20,21
 312 408 312 408 302.5 437.5 c 128,-1,22
 293 467 293 467 264.5 467 c 128,-1,23
 236 467 236 467 222.5 435.5 c 128,-1,24
 209 404 209 404 209 327 c 2,25,-1
 209 278 l 1,18,-1
289 633 m 128,-1,27
 289 664 289 664 308.5 685 c 128,-1,28
 328 706 328 706 362.5 706 c 128,-1,29
 397 706 397 706 417.5 687.5 c 128,-1,30
 438 669 438 669 438 634 c 128,-1,31
 438 599 438 599 418.5 578.5 c 128,-1,32
 399 558 399 558 362 558 c 128,-1,33
 325 558 325 558 307 580 c 128,-1,26
 289 602 289 602 289 633 c 128,-1,27
96 633 m 128,-1,35
 96 664 96 664 115.5 685 c 128,-1,36
 135 706 135 706 169.5 706 c 128,-1,37
 204 706 204 706 224.5 687.5 c 128,-1,38
 245 669 245 669 245 634 c 128,-1,39
 245 599 245 599 225.5 578.5 c 128,-1,40
 206 558 206 558 169 558 c 128,-1,41
 132 558 132 558 114 580 c 128,-1,34
 96 602 96 602 96 633 c 128,-1,35
EndSplineSet
EndChar

StartChar: igrave
Encoding: 236 236 181
Width: 317
Flags: MW
LayerCount: 2
Fore
SplineSet
147 738 m 1,0,-1
 210 547 l 1,1,-1
 199 540 l 1,2,-1
 65 651 l 1,3,4
 36 677 36 677 36 701.5 c 0,5,6
 36 726 36 726 52.5 740.5 c 128,-1,7
 69 755 69 755 100 748 c 2,8,-1
 147 738 l 1,0,-1
6 476 m 1,9,-1
 251 476 l 1,10,-1
 251 18 l 1,11,-1
 307 18 l 1,12,-1
 307 0 l 1,13,-1
 10 0 l 1,14,-1
 10 18 l 1,15,-1
 65 18 l 1,16,-1
 65 458 l 1,17,-1
 6 458 l 1,18,-1
 6 476 l 1,9,-1
EndSplineSet
EndChar

StartChar: iacute
Encoding: 237 237 182
Width: 317
Flags: MW
LayerCount: 2
Fore
SplineSet
85 547 m 1,0,-1
 148 738 l 1,1,-1
 195 748 l 2,2,3
 226 755 226 755 242.5 740.5 c 128,-1,4
 259 726 259 726 259 701.5 c 0,5,6
 259 677 259 677 230 651 c 1,7,-1
 96 540 l 1,8,-1
 85 547 l 1,0,-1
6 476 m 1,9,-1
 251 476 l 1,10,-1
 251 18 l 1,11,-1
 307 18 l 1,12,-1
 307 0 l 1,13,-1
 10 0 l 1,14,-1
 10 18 l 1,15,-1
 65 18 l 1,16,-1
 65 458 l 1,17,-1
 6 458 l 1,18,-1
 6 476 l 1,9,-1
EndSplineSet
EndChar

StartChar: icircumflex
Encoding: 238 238 183
Width: 317
Flags: MW
LayerCount: 2
Fore
SplineSet
6 476 m 1,0,-1
 251 476 l 1,1,-1
 251 18 l 1,2,-1
 307 18 l 1,3,-1
 307 0 l 1,4,-1
 10 0 l 1,5,-1
 10 18 l 1,6,-1
 65 18 l 1,7,-1
 65 458 l 1,8,-1
 6 458 l 1,9,-1
 6 476 l 1,0,-1
4 532 m 1,10,-1
 93 722 l 1,11,12
 123 738 123 738 152 738 c 0,13,14
 197 738 197 738 216 690 c 2,15,-1
 277 531 l 1,16,-1
 266 524 l 1,17,-1
 141 628 l 1,18,-1
 16 523 l 1,19,-1
 4 532 l 1,10,-1
EndSplineSet
EndChar

StartChar: idieresis
Encoding: 239 239 184
Width: 317
Flags: MW
LayerCount: 2
Fore
SplineSet
169 633 m 128,-1,1
 169 664 169 664 188.5 685 c 128,-1,2
 208 706 208 706 242.5 706 c 0,3,4
 277 706 277 706 297.5 687.5 c 128,-1,5
 318 669 318 669 318 634 c 0,6,7
 318 599 318 599 298.5 578.5 c 128,-1,8
 279 558 279 558 242 558 c 0,9,10
 205 558 205 558 187 580 c 128,-1,0
 169 602 169 602 169 633 c 128,-1,1
-24 633 m 128,-1,12
 -24 664 -24 664 -4.5 685 c 128,-1,13
 15 706 15 706 49.5 706 c 0,14,15
 84 706 84 706 104.5 687.5 c 128,-1,16
 125 669 125 669 125 634 c 0,17,18
 125 599 125 599 105.5 578.5 c 128,-1,19
 86 558 86 558 49 558 c 0,20,21
 12 558 12 558 -6 580 c 128,-1,11
 -24 602 -24 602 -24 633 c 128,-1,12
6 476 m 1,22,-1
 251 476 l 1,23,-1
 251 18 l 1,24,-1
 307 18 l 1,25,-1
 307 0 l 1,26,-1
 10 0 l 1,27,-1
 10 18 l 1,28,-1
 65 18 l 1,29,-1
 65 458 l 1,30,-1
 6 458 l 1,31,-1
 6 476 l 1,22,-1
EndSplineSet
EndChar

StartChar: eth
Encoding: 240 240 185
Width: 560
Flags: MW
LayerCount: 2
Fore
SplineSet
195 575 m 1,0,-1
 187 600 l 1,1,-1
 293 669 l 1,2,3
 227 750 227 750 89 749 c 1,4,-1
 91 765 l 1,5,6
 261 778 261 778 367 718 c 1,7,-1
 473 788 l 1,8,-1
 481 763 l 1,9,-1
 390 703 l 1,10,11
 540 598 540 598 540 332 c 0,12,13
 540 141.928571429 540 141.928571429 466 60 c 0,14,15
 438 29 438 29 390 9.5 c 128,-1,16
 342 -10 342 -10 278 -10 c 0,17,18
 150 -10 150 -10 85 53.5 c 128,-1,19
 20 117 20 117 20 237.5 c 128,-1,20
 20 358 20 358 81 426 c 128,-1,21
 142 494 142 494 249 494 c 0,22,23
 332 494 332 494 360 431 c 1,24,25
 352 579 352 579 307 649 c 1,26,-1
 195 575 l 1,0,-1
344 197 m 2,27,-1
 344 282 l 2,28,29
 344 376 344 376 332 422 c 128,-1,30
 320 468 320 468 279.5 468 c 128,-1,31
 239 468 239 468 226 421.5 c 128,-1,32
 213 375 213 375 213 277 c 2,33,-1
 213 199 l 2,34,35
 213 99 213 99 225.5 53.5 c 128,-1,36
 238 8 238 8 279 8 c 128,-1,37
 320 8 320 8 332 49.5 c 128,-1,38
 344 91 344 91 344 197 c 2,27,-1
EndSplineSet
EndChar

StartChar: ntilde
Encoding: 241 241 186
Width: 616
Flags: MW
LayerCount: 2
Fore
SplineSet
10 476 m 1,0,-1
 251 476 l 1,1,-1
 251 384 l 1,2,3
 267 430 267 430 300 458 c 128,-1,4
 333 486 333 486 400 486 c 0,5,6
 555 486 555 486 555 319 c 2,7,-1
 555 18 l 1,8,-1
 611 18 l 1,9,-1
 611 0 l 1,10,-1
 328 0 l 1,11,-1
 328 18 l 1,12,-1
 369 18 l 1,13,-1
 369 343 l 2,14,15
 369 403 369 403 361 420.5 c 128,-1,16
 353 438 353 438 332 438 c 0,17,18
 300 438 300 438 275.5 396 c 128,-1,19
 251 354 251 354 251 294 c 2,20,-1
 251 18 l 1,21,-1
 294 18 l 1,22,-1
 294 0 l 1,23,-1
 10 0 l 1,24,-1
 10 18 l 1,25,-1
 65 18 l 1,26,-1
 65 458 l 1,27,-1
 10 458 l 1,28,-1
 10 476 l 1,0,-1
481 710 m 1,29,30
 443.307692308 563 443.307692308 563 373.5 563 c 0,31,32
 340 563 340 563 287 583 c 128,-1,33
 234 603 234 603 215 603 c 0,34,35
 177 603 177 603 160 562 c 1,36,-1
 148 566 l 1,37,38
 171 641 171 641 196 676.5 c 128,-1,39
 221 712 221 712 265 712 c 0,40,41
 292 712 292 712 342.5 692 c 128,-1,42
 393 672 393 672 410 672 c 0,43,44
 454 672 454 672 468 714 c 1,45,-1
 481 710 l 1,29,30
EndSplineSet
EndChar

StartChar: oacute
Encoding: 243 243 188
Width: 543
Flags: MW
LayerCount: 2
Fore
SplineSet
333 197 m 2,0,-1
 333 282 l 2,1,2
 333 379 333 379 322.5 423.5 c 128,-1,3
 312 468 312 468 274 468 c 0,4,5
 252 468 252 468 238.5 455.5 c 128,-1,6
 225 443 225 443 219 413.5 c 0,7,8
 210 369.25 210 369.25 210 277 c 2,9,-1
 210 199 l 2,10,11
 210 89.875 210 89.875 216.5 67.9375 c 128,-1,12
 223 46 223 46 229.5 32.5 c 0,13,14
 241.296296296 8 241.296296296 8 273 8 c 0,15,16
 312.384615385 8 312.384615385 8 324.5 53 c 0,17,18
 333 84.5714285714 333 84.5714285714 333 197 c 2,0,-1
82 54 m 128,-1,20
 18 118 18 118 18 237.5 c 128,-1,21
 18 357 18 357 86.5 421.5 c 128,-1,22
 155 486 155 486 279 486 c 128,-1,23
 403 486 403 486 464 426.5 c 128,-1,24
 525 367 525 367 525 245 c 0,25,26
 525 -10 525 -10 271 -10 c 0,27,19
 146 -10 146 -10 82 54 c 128,-1,20
205 547 m 1,28,-1
 268 738 l 1,29,-1
 315 748 l 2,30,31
 346 755 346 755 362.5 740.5 c 128,-1,32
 379 726 379 726 379 701.5 c 128,-1,33
 379 677 379 677 350 651 c 1,34,-1
 216 540 l 1,35,-1
 205 547 l 1,28,-1
EndSplineSet
EndChar

StartChar: otilde
Encoding: 245 245 190
Width: 543
Flags: MW
LayerCount: 2
Fore
SplineSet
333 197 m 2,0,-1
 333 282 l 2,1,2
 333 379 333 379 322.5 423.5 c 128,-1,3
 312 468 312 468 274 468 c 0,4,5
 252 468 252 468 238.5 455.5 c 128,-1,6
 225 443 225 443 219 413.5 c 0,7,8
 210 369.25 210 369.25 210 277 c 2,9,-1
 210 199 l 2,10,11
 210 89.875 210 89.875 216.5 67.9375 c 128,-1,12
 223 46 223 46 229.5 32.5 c 0,13,14
 241.296296296 8 241.296296296 8 273 8 c 0,15,16
 312.384615385 8 312.384615385 8 324.5 53 c 0,17,18
 333 84.5714285714 333 84.5714285714 333 197 c 2,0,-1
82 54 m 128,-1,20
 18 118 18 118 18 237.5 c 128,-1,21
 18 357 18 357 86.5 421.5 c 128,-1,22
 155 486 155 486 279 486 c 128,-1,23
 403 486 403 486 464 426.5 c 128,-1,24
 525 367 525 367 525 245 c 0,25,26
 525 -10 525 -10 271 -10 c 0,27,19
 146 -10 146 -10 82 54 c 128,-1,20
450 710 m 1,28,29
 412.307692308 563 412.307692308 563 342.5 563 c 0,30,31
 309 563 309 563 256 583 c 128,-1,32
 203 603 203 603 184 603 c 0,33,34
 146 603 146 603 129 562 c 1,35,-1
 117 566 l 1,36,37
 140 641 140 641 165 676.5 c 128,-1,38
 190 712 190 712 234 712 c 0,39,40
 261 712 261 712 311.5 692 c 128,-1,41
 362 672 362 672 379 672 c 0,42,43
 423 672 423 672 437 714 c 1,44,-1
 450 710 l 1,28,29
EndSplineSet
EndChar

StartChar: oslash
Encoding: 248 248 192
Width: 546
Flags: MW
LayerCount: 2
Fore
SplineSet
15 236 m 0,0,1
 15 359 15 359 82.5 422.5 c 128,-1,2
 150 486 150 486 279 486 c 0,3,4
 311 486 311 486 344 481 c 1,5,-1
 370 550 l 1,6,-1
 392 542 l 1,7,-1
 367 477 l 1,8,9
 531 439 531 439 531 245 c 0,10,11
 531 -10 531 -10 273 -10 c 0,12,13
 225 -10 225 -10 186 -1 c 1,14,-1
 158 -75 l 1,15,-1
 136 -67 l 1,16,-1
 163 5 l 1,17,18
 15 53 15 53 15 236 c 0,0,1
339 197 m 2,19,-1
 339 282 l 2,20,21
 339 352 339 352 334 389 c 1,22,-1
 215 75 l 1,23,24
 227 8 227 8 275 8 c 0,25,26
 315 8 315 8 327 49.5 c 128,-1,27
 339 91 339 91 339 197 c 2,19,-1
208 199 m 2,28,29
 208 148 208 148 209 127 c 1,30,-1
 324 429 l 1,31,32
 308 468 308 468 276 468 c 0,33,34
 234 468 234 468 221 421.5 c 128,-1,35
 208 375 208 375 208 277 c 2,36,-1
 208 199 l 2,28,29
EndSplineSet
EndChar

StartChar: oslashacute
Encoding: 511 511 193
Width: 546
Flags: MW
LayerCount: 2
Fore
SplineSet
15 236 m 0,0,1
 15 359 15 359 82.5 422.5 c 128,-1,2
 150 486 150 486 279 486 c 0,3,4
 311 486 311 486 344 481 c 1,5,-1
 370 550 l 1,6,-1
 392 542 l 1,7,-1
 367 477 l 1,8,9
 531 439 531 439 531 245 c 0,10,11
 531 -10 531 -10 273 -10 c 0,12,13
 225 -10 225 -10 186 -1 c 1,14,-1
 158 -75 l 1,15,-1
 136 -67 l 1,16,-1
 163 5 l 1,17,18
 15 53 15 53 15 236 c 0,0,1
339 197 m 2,19,-1
 339 282 l 2,20,21
 339 352 339 352 334 389 c 1,22,-1
 215 75 l 1,23,24
 227 8 227 8 275 8 c 0,25,26
 315 8 315 8 327 49.5 c 128,-1,27
 339 91 339 91 339 197 c 2,19,-1
208 199 m 2,28,29
 208 148 208 148 209 127 c 1,30,-1
 324 429 l 1,31,32
 308 468 308 468 276 468 c 0,33,34
 234 468 234 468 221 421.5 c 128,-1,35
 208 375 208 375 208 277 c 2,36,-1
 208 199 l 2,28,29
205 547 m 1,37,-1
 268 738 l 1,38,-1
 315 748 l 2,39,40
 346 755 346 755 362.5 740.5 c 128,-1,41
 379 726 379 726 379 701.5 c 0,42,43
 379 677 379 677 350 651 c 1,44,-1
 216 540 l 1,45,-1
 205 547 l 1,37,-1
EndSplineSet
EndChar

StartChar: uacute
Encoding: 250 250 195
Width: 605
Flags: MW
LayerCount: 2
Fore
SplineSet
595 0 m 1,0,-1
 367 0 l 1,1,-1
 356 73 l 1,2,3
 340 33 340 33 308.5 11.5 c 128,-1,4
 277 -10 277 -10 215 -10 c 0,5,6
 60 -10 60 -10 60 157 c 2,7,-1
 60 458 l 1,8,-1
 4 458 l 1,9,-1
 4 476 l 1,10,-1
 246 476 l 1,11,-1
 246 133 l 2,12,13
 246 73 246 73 254.5 54 c 128,-1,14
 263 35 263 35 288.5 35 c 0,15,16
 314 35 314 35 334 66 c 128,-1,17
 354 97 354 97 354 152 c 2,18,-1
 354 458 l 1,19,-1
 308 458 l 1,20,-1
 308 476 l 1,21,-1
 540 476 l 1,22,-1
 540 18 l 1,23,-1
 595 18 l 1,24,-1
 595 0 l 1,0,-1
223 547 m 1,25,-1
 286 738 l 1,26,-1
 333 748 l 2,27,28
 364 755 364 755 380.5 740.5 c 128,-1,29
 397 726 397 726 397 701.5 c 0,30,31
 397 677 397 677 368 651 c 1,32,-1
 234 540 l 1,33,-1
 223 547 l 1,25,-1
EndSplineSet
EndChar

StartChar: udieresis
Encoding: 252 252 197
Width: 605
Flags: MW
LayerCount: 2
Fore
SplineSet
595 0 m 1,0,-1
 367 0 l 1,1,-1
 356 73 l 1,2,3
 340 33 340 33 308.5 11.5 c 128,-1,4
 277 -10 277 -10 215 -10 c 0,5,6
 60 -10 60 -10 60 157 c 2,7,-1
 60 458 l 1,8,-1
 4 458 l 1,9,-1
 4 476 l 1,10,-1
 246 476 l 1,11,-1
 246 133 l 2,12,13
 246 73 246 73 254.5 54 c 128,-1,14
 263 35 263 35 288.5 35 c 0,15,16
 314 35 314 35 334 66 c 128,-1,17
 354 97 354 97 354 152 c 2,18,-1
 354 458 l 1,19,-1
 308 458 l 1,20,-1
 308 476 l 1,21,-1
 540 476 l 1,22,-1
 540 18 l 1,23,-1
 595 18 l 1,24,-1
 595 0 l 1,0,-1
314 633 m 128,-1,26
 314 664 314 664 333.5 685 c 128,-1,27
 353 706 353 706 387.5 706 c 0,28,29
 422 706 422 706 442.5 687.5 c 128,-1,30
 463 669 463 669 463 634 c 0,31,32
 463 599 463 599 443.5 578.5 c 128,-1,33
 424 558 424 558 387 558 c 0,34,35
 350 558 350 558 332 580 c 128,-1,25
 314 602 314 602 314 633 c 128,-1,26
121 633 m 128,-1,37
 121 664 121 664 140.5 685 c 128,-1,38
 160 706 160 706 194.5 706 c 0,39,40
 229 706 229 706 249.5 687.5 c 128,-1,41
 270 669 270 669 270 634 c 0,42,43
 270 599 270 599 250.5 578.5 c 128,-1,44
 231 558 231 558 194 558 c 0,45,46
 157 558 157 558 139 580 c 128,-1,36
 121 602 121 602 121 633 c 128,-1,37
EndSplineSet
EndChar

StartChar: thorn
Encoding: 254 254 199
Width: 588
Flags: MW
LayerCount: 2
Fore
SplineSet
365 407.5 m 128,-1,1
 355 443 355 443 326 443 c 128,-1,2
 297 443 297 443 274 407 c 128,-1,3
 251 371 251 371 251 308 c 2,4,-1
 251 122 l 2,5,6
 251 79 251 79 268.5 49 c 128,-1,7
 286 19 286 19 318.5 19 c 128,-1,8
 351 19 351 19 363 63 c 128,-1,9
 375 107 375 107 375 217 c 2,10,-1
 375 269 l 2,11,0
 375 372 375 372 365 407.5 c 128,-1,1
65 -220 m 1,12,-1
 65 732 l 1,13,-1
 16 732 l 1,14,-1
 16 750 l 1,15,-1
 251 750 l 1,16,-1
 251 400 l 1,17,18
 289 486 289 486 381 486 c 0,19,20
 568 486 568 486 568 237 c 0,21,22
 568 110 568 110 516.5 50 c 128,-1,23
 465 -10 465 -10 362 -10 c 0,24,25
 314 -10 314 -10 290 2 c 128,-1,26
 266 14 266 14 251 39 c 1,27,-1
 251 -220 l 1,28,-1
 380 -220 l 1,29,-1
 380 -238 l 1,30,-1
 10 -238 l 1,31,-1
 10 -220 l 1,32,-1
 65 -220 l 1,12,-1
EndSplineSet
EndChar

StartChar: ydieresis
Encoding: 255 255 200
Width: 532
Flags: MW
LayerCount: 2
Fore
SplineSet
5 458 m 1,0,-1
 5 476 l 1,1,-1
 295 476 l 1,2,-1
 295 458 l 1,3,-1
 241 458 l 1,4,-1
 350 126 l 1,5,-1
 466 458 l 1,6,-1
 399 458 l 1,7,-1
 399 476 l 1,8,-1
 540 476 l 1,9,-1
 540 458 l 1,10,-1
 490 458 l 1,11,-1
 303 -81 l 2,12,13
 270 -175 270 -175 229 -212.5 c 128,-1,14
 188 -250 188 -250 129 -250 c 0,15,16
 70 -250 70 -250 36 -223 c 128,-1,17
 2 -196 2 -196 2 -154 c 0,18,19
 2 -112 2 -112 24 -90 c 128,-1,20
 46 -68 46 -68 82 -68 c 0,21,22
 165 -68 165 -68 165 -137 c 0,23,24
 165 -152 165 -152 159 -173 c 1,25,-1
 124 -173 l 1,26,27
 116 -196 116 -196 122 -211 c 128,-1,28
 128 -226 128 -226 149 -226 c 0,29,30
 190 -226 190 -226 222 -185.5 c 128,-1,31
 254 -145 254 -145 283 -62 c 2,32,-1
 305 0 l 1,33,-1
 217 0 l 1,34,-1
 46 458 l 1,35,-1
 5 458 l 1,0,-1
322 633 m 128,-1,37
 322 664 322 664 341.5 685 c 128,-1,38
 361 706 361 706 395.5 706 c 0,39,40
 430 706 430 706 450.5 687.5 c 128,-1,41
 471 669 471 669 471 634 c 0,42,43
 471 599 471 599 451.5 578.5 c 128,-1,44
 432 558 432 558 395 558 c 0,45,46
 358 558 358 558 340 580 c 128,-1,36
 322 602 322 602 322 633 c 128,-1,37
129 633 m 128,-1,48
 129 664 129 664 148.5 685 c 128,-1,49
 168 706 168 706 202.5 706 c 0,50,51
 237 706 237 706 257.5 687.5 c 128,-1,52
 278 669 278 669 278 634 c 0,53,54
 278 599 278 599 258.5 578.5 c 128,-1,55
 239 558 239 558 202 558 c 0,56,57
 165 558 165 558 147 580 c 128,-1,47
 129 602 129 602 129 633 c 128,-1,48
EndSplineSet
EndChar

StartChar: Amacron
Encoding: 256 256 201
Width: 694
Flags: MW
LayerCount: 2
Fore
SplineSet
432 19 m 1,0,-1
 359 235 l 1,1,-1
 161 235 l 1,2,-1
 84 19 l 1,3,-1
 159 19 l 1,4,-1
 159 0 l 1,5,-1
 6 0 l 1,6,-1
 6 19 l 1,7,-1
 53 19 l 1,8,-1
 308 706 l 1,9,-1
 390 706 l 1,10,-1
 642 19 l 1,11,-1
 688 19 l 1,12,-1
 688 0 l 1,13,-1
 361 0 l 1,14,-1
 361 19 l 1,15,-1
 432 19 l 1,0,-1
264 519 m 1,16,-1
 170 257 l 1,17,-1
 351 257 l 1,18,-1
 264 519 l 1,16,-1
213 770 m 1,19,-1
 213 867 l 1,20,-1
 485 867 l 1,21,-1
 485 770 l 1,22,-1
 213 770 l 1,19,-1
EndSplineSet
EndChar

StartChar: Abreve
Encoding: 258 258 203
Width: 694
Flags: MW
LayerCount: 2
Fore
SplineSet
432 19 m 1,0,-1
 359 235 l 1,1,-1
 161 235 l 1,2,-1
 84 19 l 1,3,-1
 159 19 l 1,4,-1
 159 0 l 1,5,-1
 6 0 l 1,6,-1
 6 19 l 1,7,-1
 53 19 l 1,8,-1
 308 706 l 1,9,-1
 390 706 l 1,10,-1
 642 19 l 1,11,-1
 688 19 l 1,12,-1
 688 0 l 1,13,-1
 361 0 l 1,14,-1
 361 19 l 1,15,-1
 432 19 l 1,0,-1
264 519 m 1,16,-1
 170 257 l 1,17,-1
 351 257 l 1,18,-1
 264 519 l 1,16,-1
207 918 m 1,19,-1
 223 921 l 1,20,21
 237 881 237 881 265.5 867 c 128,-1,22
 294 853 294 853 351.5 853 c 128,-1,23
 409 853 409 853 436.5 866 c 128,-1,24
 464 879 464 879 476 921 c 1,25,-1
 491 918 l 1,26,27
 473 746 473 746 349 746 c 0,28,29
 274.196078431 746 274.196078431 746 243.5 796.5 c 0,30,31
 216.375 841.125 216.375 841.125 207 918 c 1,19,-1
EndSplineSet
EndChar

StartChar: Aogonek
Encoding: 260 260 205
Width: 694
Flags: MW
LayerCount: 2
Fore
SplineSet
432 19 m 1,0,-1
 359 235 l 1,1,-1
 161 235 l 1,2,-1
 84 19 l 1,3,-1
 159 19 l 1,4,-1
 159 0 l 1,5,-1
 6 0 l 1,6,-1
 6 19 l 1,7,-1
 53 19 l 1,8,-1
 308 706 l 1,9,-1
 390 706 l 1,10,-1
 642 19 l 1,11,-1
 688 19 l 1,12,-1
 688 0 l 1,13,-1
 577 0 l 1,14,15
 515 -51 515 -51 515 -147 c 0,16,17
 515 -184 515 -184 522 -197 c 128,-1,18
 529 -210 529 -210 551 -210 c 0,19,20
 573 -210 573 -210 602 -167 c 1,21,-1
 615 -175 l 1,22,23
 601 -198 601 -198 589 -212.5 c 128,-1,24
 577 -227 577 -227 552 -239 c 128,-1,25
 527 -251 527 -251 489 -251 c 0,26,27
 451 -251 451 -251 423 -230 c 128,-1,28
 395 -209 395 -209 395 -167.5 c 0,29,30
 395 -126 395 -126 417 -96 c 128,-1,31
 439 -66 439 -66 505 -26 c 2,32,-1
 547 0 l 1,33,-1
 361 0 l 1,34,-1
 361 19 l 1,35,-1
 432 19 l 1,0,-1
264 519 m 1,36,-1
 170 257 l 1,37,-1
 351 257 l 1,38,-1
 264 519 l 1,36,-1
EndSplineSet
EndChar

StartChar: aogonek
Encoding: 261 261 206
Width: 549
Flags: MW
LayerCount: 2
Fore
SplineSet
445 -9 m 1,0,-1
 421 -10 l 1,1,2
 301 -10 301 -10 283 64 c 1,3,4
 270 26 270 26 244 8 c 128,-1,5
 218 -10 218 -10 168 -10 c 0,6,7
 20 -10 20 -10 20 111 c 0,8,9
 20 182 20 182 76.5 208.5 c 128,-1,10
 133 235 133 235 250 235 c 2,11,-1
 279 235 l 1,12,-1
 279 312 l 2,13,14
 279 407 279 407 268.5 439.5 c 128,-1,15
 258 472 258 472 228 472 c 0,16,17
 210 472 210 472 195.5 462.5 c 128,-1,18
 181 453 181 453 181 436.5 c 128,-1,19
 181 420 181 420 187 403 c 1,20,-1
 212 403 l 1,21,22
 220 382 220 382 220 352.5 c 128,-1,23
 220 323 220 323 195 301.5 c 128,-1,24
 170 280 170 280 132 280 c 0,25,26
 46 280 46 280 46 363 c 0,27,28
 46 486 46 486 255 486 c 0,29,30
 374 486 374 486 419.5 445.5 c 128,-1,31
 465 405 465 405 465 297 c 2,32,-1
 465 94 l 2,33,34
 465 42 465 42 494 42 c 0,35,36
 528 42 528 42 534 145 c 1,37,-1
 549 144 l 1,38,39
 545 37 545 37 498 5 c 0,40,41
 427 -43 427 -43 427 -147 c 0,42,43
 427 -184 427 -184 434 -197 c 128,-1,44
 441 -210 441 -210 463 -210 c 128,-1,45
 485 -210 485 -210 514 -167 c 1,46,-1
 527 -175 l 1,47,48
 513 -198 513 -198 501 -212.5 c 128,-1,49
 489 -227 489 -227 464 -239 c 128,-1,50
 439 -251 439 -251 401 -251 c 128,-1,51
 363 -251 363 -251 335 -230 c 128,-1,52
 307 -209 307 -209 307 -167.5 c 128,-1,53
 307 -126 307 -126 329 -96 c 128,-1,54
 351 -66 351 -66 417 -26 c 2,55,-1
 445 -9 l 1,0,-1
215.5 45 m 128,-1,57
 221 30 221 30 236.5 30 c 128,-1,58
 252 30 252 30 265.5 55.5 c 128,-1,59
 279 81 279 81 279 126 c 2,60,-1
 279 219 l 1,61,-1
 272 219 l 2,62,63
 210 219 210 219 210 128 c 2,64,-1
 210 112 l 2,65,56
 210 60 210 60 215.5 45 c 128,-1,57
EndSplineSet
EndChar

StartChar: Cacute
Encoding: 262 262 207
Width: 690
Flags: MW
LayerCount: 2
Fore
SplineSet
400 691 m 0,0,1
 245 691 245 691 245 392 c 2,2,-1
 245 313 l 2,3,4
 245 171 245 171 286 90.5 c 128,-1,5
 327 10 327 10 407 10 c 0,6,7
 517 10 517 10 609 224 c 1,8,-1
 627 224 l 1,9,-1
 620 1 l 1,10,-1
 609 1 l 1,11,12
 603 12 603 12 598 16.5 c 128,-1,13
 593 21 593 21 583.5 21 c 0,14,15
 574 21 574 21 511 5.5 c 128,-1,16
 448 -10 448 -10 383 -10 c 0,17,18
 220 -10 220 -10 130.5 78 c 128,-1,19
 41 166 41 166 41 342.5 c 0,20,21
 41 519 41 519 134.5 615 c 128,-1,22
 228 711 228 711 386 711 c 0,23,24
 447 711 447 711 505.5 695.5 c 128,-1,25
 564 680 564 680 574 680 c 0,26,27
 584 680 584 680 589 684.5 c 128,-1,28
 594 689 594 689 600 700 c 1,29,-1
 611 700 l 1,30,-1
 619 483 l 1,31,-1
 601 483 l 1,32,33
 556 584 556 584 508.5 637.5 c 128,-1,34
 461 691 461 691 400 691 c 0,0,1
290 743 m 1,35,-1
 405 905 l 1,36,-1
 453 901 l 2,37,38
 478 899 478 899 489.5 886 c 128,-1,39
 501 873 501 873 501 856 c 0,40,41
 501 816 501 816 457 798 c 2,42,-1
 298 733 l 1,43,-1
 290 743 l 1,35,-1
EndSplineSet
EndChar

StartChar: Ccircumflex
Encoding: 264 264 209
Width: 690
Flags: MW
LayerCount: 2
Fore
SplineSet
400 691 m 0,0,1
 245 691 245 691 245 392 c 2,2,-1
 245 313 l 2,3,4
 245 171 245 171 286 90.5 c 128,-1,5
 327 10 327 10 407 10 c 0,6,7
 517 10 517 10 609 224 c 1,8,-1
 627 224 l 1,9,-1
 620 1 l 1,10,-1
 609 1 l 1,11,12
 603 12 603 12 598 16.5 c 128,-1,13
 593 21 593 21 583.5 21 c 0,14,15
 574 21 574 21 511 5.5 c 128,-1,16
 448 -10 448 -10 383 -10 c 0,17,18
 220 -10 220 -10 130.5 78 c 128,-1,19
 41 166 41 166 41 342.5 c 0,20,21
 41 519 41 519 134.5 615 c 128,-1,22
 228 711 228 711 386 711 c 0,23,24
 447 711 447 711 505.5 695.5 c 128,-1,25
 564 680 564 680 574 680 c 0,26,27
 584 680 584 680 589 684.5 c 128,-1,28
 594 689 594 689 600 700 c 1,29,-1
 611 700 l 1,30,-1
 619 483 l 1,31,-1
 601 483 l 1,32,33
 556 584 556 584 508.5 637.5 c 128,-1,34
 461 691 461 691 400 691 c 0,0,1
226 743 m 1,35,-1
 332 891 l 1,36,37
 360 907 360 907 387 907 c 0,38,39
 434 907 434 907 457 867 c 2,40,-1
 531 743 l 1,41,-1
 522 733 l 1,42,-1
 380 801 l 1,43,-1
 234 733 l 1,44,-1
 226 743 l 1,35,-1
EndSplineSet
EndChar

StartChar: Cdotaccent
Encoding: 266 266 211
Width: 690
Flags: MW
LayerCount: 2
Fore
SplineSet
400 691 m 0,0,1
 245 691 245 691 245 392 c 2,2,-1
 245 313 l 2,3,4
 245 171 245 171 286 90.5 c 128,-1,5
 327 10 327 10 407 10 c 0,6,7
 517 10 517 10 609 224 c 1,8,-1
 627 224 l 1,9,-1
 620 1 l 1,10,-1
 609 1 l 1,11,12
 603 12 603 12 598 16.5 c 128,-1,13
 593 21 593 21 583.5 21 c 128,-1,14
 574 21 574 21 511 5.5 c 128,-1,15
 448 -10 448 -10 383 -10 c 0,16,17
 220 -10 220 -10 130.5 78 c 128,-1,18
 41 166 41 166 41 342.5 c 128,-1,19
 41 519 41 519 134.5 615 c 128,-1,20
 228 711 228 711 386 711 c 0,21,22
 447 711 447 711 505.5 695.5 c 128,-1,23
 564 680 564 680 574 680 c 128,-1,24
 584 680 584 680 589 684.5 c 128,-1,25
 594 689 594 689 600 700 c 1,26,-1
 611 700 l 1,27,-1
 619 483 l 1,28,-1
 601 483 l 1,29,30
 556 584 556 584 508.5 637.5 c 128,-1,31
 461 691 461 691 400 691 c 0,0,1
300.5 780 m 128,-1,33
 278 807 278 807 278 847 c 128,-1,34
 278 887 278 887 302.5 913 c 128,-1,35
 327 939 327 939 377 939 c 128,-1,36
 427 939 427 939 453 915.5 c 128,-1,37
 479 892 479 892 479 848.5 c 128,-1,38
 479 805 479 805 454 779 c 128,-1,39
 429 753 429 753 376 753 c 128,-1,32
 323 753 323 753 300.5 780 c 128,-1,33
EndSplineSet
EndChar

StartChar: Ccaron
Encoding: 268 268 213
Width: 690
Flags: MW
LayerCount: 2
Fore
SplineSet
400 691 m 0,0,1
 245 691 245 691 245 392 c 2,2,-1
 245 313 l 2,3,4
 245 171 245 171 286 90.5 c 128,-1,5
 327 10 327 10 407 10 c 0,6,7
 517 10 517 10 609 224 c 1,8,-1
 627 224 l 1,9,-1
 620 1 l 1,10,-1
 609 1 l 1,11,12
 603 12 603 12 598 16.5 c 128,-1,13
 593 21 593 21 583.5 21 c 0,14,15
 574 21 574 21 511 5.5 c 128,-1,16
 448 -10 448 -10 383 -10 c 0,17,18
 220 -10 220 -10 130.5 78 c 128,-1,19
 41 166 41 166 41 342.5 c 0,20,21
 41 519 41 519 134.5 615 c 128,-1,22
 228 711 228 711 386 711 c 0,23,24
 447 711 447 711 505.5 695.5 c 128,-1,25
 564 680 564 680 574 680 c 0,26,27
 584 680 584 680 589 684.5 c 128,-1,28
 594 689 594 689 600 700 c 1,29,-1
 611 700 l 1,30,-1
 619 483 l 1,31,-1
 601 483 l 1,32,33
 556 584 556 584 508.5 637.5 c 128,-1,34
 461 691 461 691 400 691 c 0,0,1
534 909 m 1,35,-1
 428 761 l 1,36,37
 400 745 400 745 373 745 c 0,38,39
 326 745 326 745 303 785 c 2,40,-1
 229 909 l 1,41,-1
 238 919 l 1,42,-1
 380 851 l 1,43,-1
 526 919 l 1,44,-1
 534 909 l 1,35,-1
EndSplineSet
EndChar

StartChar: Dcaron
Encoding: 270 270 215
Width: 755
Flags: MW
LayerCount: 2
Fore
SplineSet
714 362 m 0,0,1
 714 156.403508772 714 156.403508772 598 75 c 0,2,3
 491.125 0 491.125 0 304 0 c 2,4,-1
 21 0 l 1,5,-1
 21 19 l 1,6,-1
 87 19 l 1,7,-1
 87 681 l 1,8,-1
 21 681 l 1,9,-1
 21 700 l 1,10,-1
 330 700 l 2,11,12
 522 700 522 700 618 621.5 c 128,-1,13
 714 543 714 543 714 362 c 0,0,1
282 19 m 1,14,-1
 320 19 l 2,15,16
 421 19 421 19 464.5 90.5 c 128,-1,17
 508 162 508 162 508 330 c 2,18,-1
 508 388 l 2,19,20
 508 612.853658537 508 612.853658537 422 659 c 0,21,22
 381 681 381 681 306 681 c 2,23,-1
 282 681 l 1,24,-1
 282 19 l 1,14,-1
488 909 m 1,25,-1
 382 761 l 1,26,27
 354 745 354 745 327 745 c 0,28,29
 280 745 280 745 257 785 c 2,30,-1
 183 909 l 1,31,-1
 192 919 l 1,32,-1
 334 851 l 1,33,-1
 480 919 l 1,34,-1
 488 909 l 1,25,-1
EndSplineSet
EndChar

StartChar: dcaron
Encoding: 271 271 216
Width: 664
Flags: MW
LayerCount: 2
Fore
SplineSet
224 67.5 m 128,-1,1
 235 33 235 33 264.5 33 c 128,-1,2
 294 33 294 33 315.5 59 c 128,-1,3
 337 85 337 85 337 136 c 2,4,-1
 337 354 l 2,5,6
 337 397 337 397 320 427 c 128,-1,7
 303 457 303 457 270 457 c 128,-1,8
 237 457 237 457 225 413 c 128,-1,9
 213 369 213 369 213 259 c 2,10,-1
 213 207 l 2,11,0
 213 102 213 102 224 67.5 c 128,-1,1
339 70 m 1,12,13
 305 -10 305 -10 201 -10 c 0,14,15
 115 -10 115 -10 67.5 52 c 128,-1,16
 20 114 20 114 20 237 c 0,17,18
 20 486 20 486 218 486 c 0,19,20
 306 486 306 486 334 437 c 1,21,-1
 334 732 l 1,22,-1
 273 732 l 1,23,-1
 273 750 l 1,24,-1
 523 750 l 1,25,-1
 523 18 l 1,26,-1
 572 18 l 1,27,-1
 572 0 l 1,28,-1
 350 0 l 1,29,-1
 339 70 l 1,12,13
570 520 m 1,30,-1
 558 533 l 1,31,32
 600 579 600 579 600 635 c 0,33,34
 600 669 600 669 555 708 c 1,35,-1
 577 730 l 2,36,37
 606 759 606 759 634 759 c 128,-1,38
 662 759 662 759 678 738.5 c 128,-1,39
 694 718 694 718 694 689 c 0,40,41
 694 608 694 608 570 520 c 1,30,-1
EndSplineSet
EndChar

StartChar: Dcroat
Encoding: 272 272 217
Width: 763
Flags: MW
LayerCount: 2
Fore
SplineSet
19 359 m 1,0,-1
 19 385 l 1,1,-1
 95 385 l 1,2,-1
 95 681 l 1,3,-1
 29 681 l 1,4,-1
 29 700 l 1,5,-1
 338 700 l 2,6,7
 530 700 530 700 626 621.5 c 128,-1,8
 722 543 722 543 722 362 c 0,9,10
 722 156.403508772 722 156.403508772 606 75 c 0,11,12
 499.125 0 499.125 0 312 0 c 2,13,-1
 29 0 l 1,14,-1
 29 19 l 1,15,-1
 95 19 l 1,16,-1
 95 359 l 1,17,-1
 19 359 l 1,0,-1
290 19 m 1,18,-1
 328 19 l 2,19,20
 429 19 429 19 472.5 90.5 c 128,-1,21
 516 162 516 162 516 330 c 2,22,-1
 516 388 l 2,23,24
 516 612.853658537 516 612.853658537 430 659 c 0,25,26
 389 681 389 681 314 681 c 2,27,-1
 290 681 l 1,28,-1
 290 385 l 1,29,-1
 419 385 l 1,30,-1
 419 359 l 1,31,-1
 290 359 l 1,32,-1
 290 19 l 1,18,-1
EndSplineSet
EndChar

StartChar: dcroat
Encoding: 273 273 218
Width: 584
Flags: MW
LayerCount: 2
Fore
SplineSet
350 0 m 1,0,-1
 339 70 l 1,1,2
 305 -10 305 -10 201 -10 c 0,3,4
 115 -10 115 -10 67.5 52 c 128,-1,5
 20 114 20 114 20 237 c 0,6,7
 20 486 20 486 218 486 c 0,8,9
 306 486 306 486 334 437 c 1,10,-1
 334 585 l 1,11,-1
 170 585 l 1,12,-1
 170 606 l 1,13,-1
 334 606 l 1,14,-1
 334 732 l 1,15,-1
 273 732 l 1,16,-1
 273 750 l 1,17,-1
 523 750 l 1,18,-1
 523 606 l 1,19,-1
 579 606 l 1,20,-1
 579 585 l 1,21,-1
 523 585 l 1,22,-1
 523 18 l 1,23,-1
 572 18 l 1,24,-1
 572 0 l 1,25,-1
 350 0 l 1,0,-1
224 67.5 m 128,-1,27
 235 33 235 33 264.5 33 c 128,-1,28
 294 33 294 33 315.5 59 c 128,-1,29
 337 85 337 85 337 136 c 2,30,-1
 337 354 l 2,31,32
 337 397 337 397 320 427 c 128,-1,33
 303 457 303 457 270 457 c 128,-1,34
 237 457 237 457 225 413 c 128,-1,35
 213 369 213 369 213 259 c 2,36,-1
 213 207 l 2,37,26
 213 102 213 102 224 67.5 c 128,-1,27
EndSplineSet
EndChar

StartChar: Emacron
Encoding: 274 274 219
Width: 624
Flags: MW
LayerCount: 2
Fore
SplineSet
21 700 m 1,0,-1
 541 700 l 1,1,-1
 551 502 l 1,2,-1
 533 502 l 1,3,4
 491 603 491 603 445 640.5 c 128,-1,5
 399 678 399 678 310 678 c 2,6,-1
 275 678 l 1,7,-1
 275 369 l 1,8,-1
 309 369 l 2,9,10
 356 369 356 369 388 404.5 c 128,-1,11
 420 440 420 440 433 500 c 1,12,-1
 448 500 l 1,13,-1
 448 204 l 1,14,-1
 431 204 l 1,15,16
 413 279 413 279 382.5 311 c 128,-1,17
 352 343 352 343 299 343 c 2,18,-1
 275 343 l 1,19,-1
 275 22 l 1,20,-1
 313 22 l 2,21,22
 405 22 405 22 469.5 77 c 128,-1,23
 534 132 534 132 558 218 c 1,24,-1
 578 218 l 1,25,-1
 570 0 l 1,26,-1
 21 0 l 1,27,-1
 21 22 l 1,28,-1
 80 22 l 1,29,-1
 80 678 l 1,30,-1
 21 678 l 1,31,-1
 21 700 l 1,0,-1
159 770 m 1,32,-1
 159 867 l 1,33,-1
 431 867 l 1,34,-1
 431 770 l 1,35,-1
 159 770 l 1,32,-1
EndSplineSet
EndChar

StartChar: Ebreve
Encoding: 276 276 221
Width: 624
Flags: MW
LayerCount: 2
Fore
SplineSet
21 700 m 1,0,-1
 541 700 l 1,1,-1
 551 502 l 1,2,-1
 533 502 l 1,3,4
 491 603 491 603 445 640.5 c 128,-1,5
 399 678 399 678 310 678 c 2,6,-1
 275 678 l 1,7,-1
 275 369 l 1,8,-1
 309 369 l 2,9,10
 356 369 356 369 388 404.5 c 128,-1,11
 420 440 420 440 433 500 c 1,12,-1
 448 500 l 1,13,-1
 448 204 l 1,14,-1
 431 204 l 1,15,16
 413 279 413 279 382.5 311 c 128,-1,17
 352 343 352 343 299 343 c 2,18,-1
 275 343 l 1,19,-1
 275 22 l 1,20,-1
 313 22 l 2,21,22
 405 22 405 22 469.5 77 c 128,-1,23
 534 132 534 132 558 218 c 1,24,-1
 578 218 l 1,25,-1
 570 0 l 1,26,-1
 21 0 l 1,27,-1
 21 22 l 1,28,-1
 80 22 l 1,29,-1
 80 678 l 1,30,-1
 21 678 l 1,31,-1
 21 700 l 1,0,-1
157 918 m 1,32,-1
 173 921 l 1,33,34
 187 881 187 881 215.5 867 c 128,-1,35
 244 853 244 853 301.5 853 c 128,-1,36
 359 853 359 853 386.5 866 c 128,-1,37
 414 879 414 879 426 921 c 1,38,-1
 441 918 l 1,39,40
 423 746 423 746 299 746 c 0,41,42
 224.196078431 746 224.196078431 746 193.5 796.5 c 0,43,44
 166.375 841.125 166.375 841.125 157 918 c 1,32,-1
EndSplineSet
EndChar

StartChar: Edotaccent
Encoding: 278 278 223
Width: 624
Flags: MW
LayerCount: 2
Fore
SplineSet
21 700 m 1,0,-1
 541 700 l 1,1,-1
 551 502 l 1,2,-1
 533 502 l 1,3,4
 491 603 491 603 445 640.5 c 128,-1,5
 399 678 399 678 310 678 c 2,6,-1
 275 678 l 1,7,-1
 275 369 l 1,8,-1
 309 369 l 2,9,10
 356 369 356 369 388 404.5 c 128,-1,11
 420 440 420 440 433 500 c 1,12,-1
 448 500 l 1,13,-1
 448 204 l 1,14,-1
 431 204 l 1,15,16
 413 279 413 279 382.5 311 c 128,-1,17
 352 343 352 343 299 343 c 2,18,-1
 275 343 l 1,19,-1
 275 22 l 1,20,-1
 313 22 l 2,21,22
 405 22 405 22 469.5 77 c 128,-1,23
 534 132 534 132 558 218 c 1,24,-1
 578 218 l 1,25,-1
 570 0 l 1,26,-1
 21 0 l 1,27,-1
 21 22 l 1,28,-1
 80 22 l 1,29,-1
 80 678 l 1,30,-1
 21 678 l 1,31,-1
 21 700 l 1,0,-1
222.5 780 m 128,-1,33
 200 807 200 807 200 847 c 128,-1,34
 200 887 200 887 224.5 913 c 128,-1,35
 249 939 249 939 299 939 c 128,-1,36
 349 939 349 939 375 915.5 c 128,-1,37
 401 892 401 892 401 848.5 c 128,-1,38
 401 805 401 805 376 779 c 128,-1,39
 351 753 351 753 298 753 c 128,-1,32
 245 753 245 753 222.5 780 c 128,-1,33
EndSplineSet
EndChar

StartChar: Eogonek
Encoding: 280 280 225
Width: 624
Flags: MW
LayerCount: 2
Fore
SplineSet
21 700 m 1,0,-1
 541 700 l 1,1,-1
 551 502 l 1,2,-1
 533 502 l 1,3,4
 491 603 491 603 445 640.5 c 128,-1,5
 399 678 399 678 310 678 c 2,6,-1
 275 678 l 1,7,-1
 275 369 l 1,8,-1
 309 369 l 2,9,10
 356 369 356 369 388 404.5 c 128,-1,11
 420 440 420 440 433 500 c 1,12,-1
 448 500 l 1,13,-1
 448 204 l 1,14,-1
 431 204 l 1,15,16
 413 279 413 279 382.5 311 c 128,-1,17
 352 343 352 343 299 343 c 2,18,-1
 275 343 l 1,19,-1
 275 22 l 1,20,-1
 313 22 l 2,21,22
 405 22 405 22 469.5 77 c 128,-1,23
 534 132 534 132 558 218 c 1,24,-1
 578 218 l 1,25,-1
 570 0 l 1,26,-1
 501 0 l 1,27,28
 438 -51 438 -51 438 -147 c 0,29,30
 438 -184 438 -184 445 -197 c 128,-1,31
 452 -210 452 -210 474 -210 c 0,32,33
 496 -210 496 -210 525 -167 c 1,34,-1
 538 -175 l 1,35,36
 524 -198 524 -198 512 -212.5 c 128,-1,37
 500 -227 500 -227 475 -239 c 128,-1,38
 450 -251 450 -251 412 -251 c 0,39,40
 374 -251 374 -251 346 -230 c 128,-1,41
 318 -209 318 -209 318 -167.5 c 0,42,43
 318 -126 318 -126 340 -96 c 128,-1,44
 362 -66 362 -66 428 -26 c 2,45,-1
 470 0 l 1,46,-1
 21 0 l 1,47,-1
 21 22 l 1,48,-1
 80 22 l 1,49,-1
 80 678 l 1,50,-1
 21 678 l 1,51,-1
 21 700 l 1,0,-1
EndSplineSet
EndChar

StartChar: eogonek
Encoding: 281 281 226
Width: 516
Flags: MW
LayerCount: 2
Fore
SplineSet
79.5 56.5 m 128,-1,1
 15 123 15 123 15 241.5 c 128,-1,2
 15 360 15 360 87.5 423 c 128,-1,3
 160 486 160 486 272 486 c 0,4,5
 499 486 499 486 490 258 c 1,6,-1
 208 258 l 1,7,-1
 208 219 l 2,8,9
 208 121 208 121 233 71 c 128,-1,10
 258 21 258 21 319.5 21 c 0,11,12
 436.271186441 21 436.271186441 21 472 145 c 1,13,-1
 490 142 l 1,14,15
 467 53 467 53 394 11 c 1,16,17
 320 -33 320 -33 320 -147 c 0,18,19
 320 -184 320 -184 327 -197 c 128,-1,20
 334 -210 334 -210 356 -210 c 128,-1,21
 378 -210 378 -210 407 -167 c 1,22,-1
 420 -175 l 1,23,24
 406 -198 406 -198 394 -212.5 c 128,-1,25
 382 -227 382 -227 357 -239 c 128,-1,26
 332 -251 332 -251 294 -251 c 128,-1,27
 256 -251 256 -251 228 -230 c 128,-1,28
 200 -209 200 -209 200 -168.5 c 128,-1,29
 200 -128 200 -128 222 -98.5 c 128,-1,30
 244 -69 244 -69 306 -27 c 2,31,-1
 341 -3 l 1,32,33
 306 -10 306 -10 273 -10 c 0,34,0
 144 -10 144 -10 79.5 56.5 c 128,-1,1
209 278 m 1,35,-1
 312 278 l 1,36,-1
 312 327 l 2,37,38
 312 408 312 408 302.5 437.5 c 128,-1,39
 293 467 293 467 264.5 467 c 128,-1,40
 236 467 236 467 222.5 435.5 c 128,-1,41
 209 404 209 404 209 327 c 2,42,-1
 209 278 l 1,35,-1
EndSplineSet
EndChar

StartChar: Ecaron
Encoding: 282 282 227
Width: 624
Flags: MW
LayerCount: 2
Fore
SplineSet
21 700 m 1,0,-1
 541 700 l 1,1,-1
 551 502 l 1,2,-1
 533 502 l 1,3,4
 491 603 491 603 445 640.5 c 128,-1,5
 399 678 399 678 310 678 c 2,6,-1
 275 678 l 1,7,-1
 275 369 l 1,8,-1
 309 369 l 2,9,10
 356 369 356 369 388 404.5 c 128,-1,11
 420 440 420 440 433 500 c 1,12,-1
 448 500 l 1,13,-1
 448 204 l 1,14,-1
 431 204 l 1,15,16
 413 279 413 279 382.5 311 c 128,-1,17
 352 343 352 343 299 343 c 2,18,-1
 275 343 l 1,19,-1
 275 22 l 1,20,-1
 313 22 l 2,21,22
 405 22 405 22 469.5 77 c 128,-1,23
 534 132 534 132 558 218 c 1,24,-1
 578 218 l 1,25,-1
 570 0 l 1,26,-1
 21 0 l 1,27,-1
 21 22 l 1,28,-1
 80 22 l 1,29,-1
 80 678 l 1,30,-1
 21 678 l 1,31,-1
 21 700 l 1,0,-1
451 909 m 1,32,-1
 345 761 l 1,33,34
 317 745 317 745 290 745 c 0,35,36
 243 745 243 745 220 785 c 2,37,-1
 146 909 l 1,38,-1
 155 919 l 1,39,-1
 297 851 l 1,40,-1
 443 919 l 1,41,-1
 451 909 l 1,32,-1
EndSplineSet
EndChar

StartChar: Gcircumflex
Encoding: 284 284 229
Width: 723
Flags: MW
LayerCount: 2
Fore
SplineSet
390 10 m 0,0,1
 439 10 439 10 452.5 28 c 128,-1,2
 466 46 466 46 466 89 c 2,3,-1
 466 283 l 1,4,-1
 402 283 l 1,5,-1
 402 305 l 1,6,-1
 690 305 l 1,7,-1
 690 283 l 1,8,-1
 651 283 l 1,9,-1
 651 1 l 1,10,-1
 636 1 l 1,11,12
 618 26 618 26 585 26 c 0,13,14
 571 26 571 26 501.5 8 c 128,-1,15
 432 -10 432 -10 383 -10 c 0,16,17
 220 -10 220 -10 130.5 78 c 128,-1,18
 41 166 41 166 41 342.5 c 0,19,20
 41 519 41 519 134.5 615 c 128,-1,21
 228 711 228 711 386 711 c 0,22,23
 447 711 447 711 508.5 695.5 c 128,-1,24
 570 680 570 680 580 680 c 0,25,26
 590 680 590 680 595 684.5 c 128,-1,27
 600 689 600 689 606 700 c 1,28,-1
 617 700 l 1,29,-1
 625 483 l 1,30,-1
 607 483 l 1,31,32
 558 580 558 580 508.5 635.5 c 128,-1,33
 459 691 459 691 398 691 c 0,34,35
 245 691 245 691 245 392 c 2,36,-1
 245 313 l 2,37,38
 245 163 245 163 282.5 86.5 c 128,-1,39
 320 10 320 10 390 10 c 0,0,1
227 743 m 1,40,-1
 333 891 l 1,41,42
 361 907 361 907 388 907 c 0,43,44
 435 907 435 907 458 867 c 2,45,-1
 532 743 l 1,46,-1
 523 733 l 1,47,-1
 381 801 l 1,48,-1
 235 733 l 1,49,-1
 227 743 l 1,40,-1
EndSplineSet
EndChar

StartChar: gcircumflex
Encoding: 285 285 230
Width: 522
Flags: MW
LayerCount: 2
Fore
SplineSet
111 532 m 1,0,-1
 203 715 l 1,1,2
 231 731 231 731 259 731 c 0,3,4
 300 731 300 731 319 685 c 2,5,-1
 357 590 l 1,6,-1
 346 583 l 1,7,-1
 248 643 l 1,8,-1
 123 523 l 1,9,-1
 111 532 l 1,0,-1
439 545 m 1,10,11
 445 576 445 576 415 576 c 0,12,13
 372 576 372 576 372 510 c 0,14,15
 372 484 372 484 379 450 c 1,16,17
 455 399 455 399 455 319.5 c 0,18,19
 455 240 455 240 400 196 c 128,-1,20
 345 152 345 152 251 152 c 0,21,22
 212 152 212 152 170 160 c 1,23,24
 126 132 126 132 126 118 c 128,-1,25
 126 104 126 104 190 104 c 2,26,-1
 292 104 l 2,27,28
 519 104 519 104 519 -59 c 0,29,30
 519 -147 519 -147 450.5 -198.5 c 128,-1,31
 382 -250 382 -250 237 -250 c 0,32,33
 -10 -250 -10 -250 -10 -143 c 0,34,35
 -10 -85 -10 -85 67 -63 c 1,36,-1
 127 -90 l 1,37,38
 119 -119 119 -119 119 -145 c 0,39,40
 119 -231 119 -231 247 -231 c 0,41,42
 325 -231 325 -231 367 -202 c 128,-1,43
 409 -173 409 -173 409 -130 c 0,44,45
 409 -87 409 -87 383.5 -72.5 c 128,-1,46
 358 -58 358 -58 282 -58 c 2,47,-1
 185 -58 l 2,48,49
 104 -58 104 -58 69 -31 c 128,-1,50
 34 -4 34 -4 34 35.5 c 0,51,52
 34 75 34 75 59 101.5 c 128,-1,53
 84 128 84 128 148 167 c 1,54,55
 32 200 32 200 32 319 c 0,56,57
 32 394 32 394 86 440 c 128,-1,58
 140 486 140 486 248 486 c 0,59,60
 313 486 313 486 359 461 c 1,61,62
 353 488 353 488 353 510 c 0,63,64
 353 566 353 566 383 591 c 128,-1,65
 413 616 413 616 450 616 c 0,66,67
 487 616 487 616 509.5 596.5 c 128,-1,68
 532 577 532 577 532 543 c 0,69,70
 532 509 532 509 514 492.5 c 128,-1,71
 496 476 496 476 470.5 476 c 0,72,73
 445 476 445 476 428.5 489.5 c 128,-1,74
 412 503 412 503 411 528 c 1,75,-1
 439 545 l 1,10,11
199 287 m 2,76,77
 199 220 199 220 210.5 196 c 128,-1,78
 222 172 222 172 245.5 172 c 0,79,80
 269 172 269 172 279.5 195.5 c 128,-1,81
 290 219 290 219 290 292 c 2,82,-1
 290 341 l 2,83,84
 290 419 290 419 280 443.5 c 128,-1,85
 270 468 270 468 246.5 468 c 0,86,87
 223 468 223 468 211 442.5 c 128,-1,88
 199 417 199 417 199 341 c 2,89,-1
 199 287 l 2,76,77
EndSplineSet
EndChar

StartChar: Gbreve
Encoding: 286 286 231
Width: 723
Flags: MW
LayerCount: 2
Fore
SplineSet
390 10 m 0,0,1
 439 10 439 10 452.5 28 c 128,-1,2
 466 46 466 46 466 89 c 2,3,-1
 466 283 l 1,4,-1
 402 283 l 1,5,-1
 402 305 l 1,6,-1
 690 305 l 1,7,-1
 690 283 l 1,8,-1
 651 283 l 1,9,-1
 651 1 l 1,10,-1
 636 1 l 1,11,12
 618 26 618 26 585 26 c 0,13,14
 571 26 571 26 501.5 8 c 128,-1,15
 432 -10 432 -10 383 -10 c 0,16,17
 220 -10 220 -10 130.5 78 c 128,-1,18
 41 166 41 166 41 342.5 c 128,-1,19
 41 519 41 519 134.5 615 c 128,-1,20
 228 711 228 711 386 711 c 0,21,22
 447 711 447 711 508.5 695.5 c 128,-1,23
 570 680 570 680 580 680 c 128,-1,24
 590 680 590 680 595 684.5 c 128,-1,25
 600 689 600 689 606 700 c 1,26,-1
 617 700 l 1,27,-1
 625 483 l 1,28,-1
 607 483 l 1,29,30
 558 580 558 580 508.5 635.5 c 128,-1,31
 459 691 459 691 398 691 c 0,32,33
 245 691 245 691 245 392 c 2,34,-1
 245 313 l 2,35,36
 245 163 245 163 282.5 86.5 c 128,-1,37
 320 10 320 10 390 10 c 0,0,1
237 918 m 1,38,-1
 253 921 l 1,39,40
 267 881 267 881 295.5 867 c 128,-1,41
 324 853 324 853 381.5 853 c 128,-1,42
 439 853 439 853 466.5 866 c 128,-1,43
 494 879 494 879 506 921 c 1,44,-1
 521 918 l 1,45,46
 503 746 503 746 379 746 c 0,47,48
 304.196078431 746 304.196078431 746 273.5 796.5 c 0,49,50
 246.375 841.125 246.375 841.125 237 918 c 1,38,-1
EndSplineSet
EndChar

StartChar: Gdotaccent
Encoding: 288 288 233
Width: 723
Flags: MW
LayerCount: 2
Fore
SplineSet
390 10 m 0,0,1
 439 10 439 10 452.5 28 c 128,-1,2
 466 46 466 46 466 89 c 2,3,-1
 466 283 l 1,4,-1
 402 283 l 1,5,-1
 402 305 l 1,6,-1
 690 305 l 1,7,-1
 690 283 l 1,8,-1
 651 283 l 1,9,-1
 651 1 l 1,10,-1
 636 1 l 1,11,12
 618 26 618 26 585 26 c 0,13,14
 571 26 571 26 501.5 8 c 128,-1,15
 432 -10 432 -10 383 -10 c 0,16,17
 220 -10 220 -10 130.5 78 c 128,-1,18
 41 166 41 166 41 342.5 c 128,-1,19
 41 519 41 519 134.5 615 c 128,-1,20
 228 711 228 711 386 711 c 0,21,22
 447 711 447 711 508.5 695.5 c 128,-1,23
 570 680 570 680 580 680 c 128,-1,24
 590 680 590 680 595 684.5 c 128,-1,25
 600 689 600 689 606 700 c 1,26,-1
 617 700 l 1,27,-1
 625 483 l 1,28,-1
 607 483 l 1,29,30
 558 580 558 580 508.5 635.5 c 128,-1,31
 459 691 459 691 398 691 c 0,32,33
 245 691 245 691 245 392 c 2,34,-1
 245 313 l 2,35,36
 245 163 245 163 282.5 86.5 c 128,-1,37
 320 10 320 10 390 10 c 0,0,1
301.5 780 m 128,-1,39
 279 807 279 807 279 847 c 128,-1,40
 279 887 279 887 303.5 913 c 128,-1,41
 328 939 328 939 378 939 c 128,-1,42
 428 939 428 939 454 915.5 c 128,-1,43
 480 892 480 892 480 848.5 c 128,-1,44
 480 805 480 805 455 779 c 128,-1,45
 430 753 430 753 377 753 c 128,-1,38
 324 753 324 753 301.5 780 c 128,-1,39
EndSplineSet
EndChar

StartChar: Gcommaaccent
Encoding: 290 290 235
Width: 723
Flags: MW
LayerCount: 2
Fore
SplineSet
390 10 m 0,0,1
 439 10 439 10 452.5 28 c 128,-1,2
 466 46 466 46 466 89 c 2,3,-1
 466 283 l 1,4,-1
 402 283 l 1,5,-1
 402 305 l 1,6,-1
 690 305 l 1,7,-1
 690 283 l 1,8,-1
 651 283 l 1,9,-1
 651 1 l 1,10,-1
 636 1 l 1,11,12
 618 26 618 26 585 26 c 0,13,14
 571 26 571 26 501.5 8 c 128,-1,15
 432 -10 432 -10 383 -10 c 0,16,17
 220 -10 220 -10 130.5 78 c 128,-1,18
 41 166 41 166 41 342.5 c 0,19,20
 41 519 41 519 134.5 615 c 128,-1,21
 228 711 228 711 386 711 c 0,22,23
 447 711 447 711 508.5 695.5 c 128,-1,24
 570 680 570 680 580 680 c 0,25,26
 590 680 590 680 595 684.5 c 128,-1,27
 600 689 600 689 606 700 c 1,28,-1
 617 700 l 1,29,-1
 625 483 l 1,30,-1
 607 483 l 1,31,32
 558 580 558 580 508.5 635.5 c 128,-1,33
 459 691 459 691 398 691 c 0,34,35
 245 691 245 691 245 392 c 2,36,-1
 245 313 l 2,37,38
 245 163 245 163 282.5 86.5 c 128,-1,39
 320 10 320 10 390 10 c 0,0,1
351 -290 m 1,40,-1
 340 -275 l 1,41,42
 403 -227 403 -227 403 -192 c 0,43,44
 403 -167 403 -167 385 -159 c 1,45,-1
 354 -190 l 1,46,47
 305 -172 305 -172 305 -123 c 0,48,49
 305 -90 305 -90 324.5 -72 c 128,-1,50
 344 -54 344 -54 378.5 -54 c 0,51,52
 413 -54 413 -54 433 -78.5 c 128,-1,53
 453 -103 453 -103 453 -145 c 0,54,55
 453 -230 453 -230 351 -290 c 1,40,-1
EndSplineSet
EndChar

